<?xml version="1.0" encoding="UTF-8"?>
<svg id="Layer_1" data-name="Layer 1" xmlns="http://www.w3.org/2000/svg" viewBox="0 0 347.96 347.96">
  <defs>
    <style>
      .cls-1 {
        fill: #fcfcfc;
      }

      .cls-1, .cls-2, .cls-3, .cls-4, .cls-5, .cls-6, .cls-7, .cls-8, .cls-9, .cls-10, .cls-11, .cls-12, .cls-13, .cls-14, .cls-15, .cls-16, .cls-17, .cls-18, .cls-19, .cls-20, .cls-21, .cls-22, .cls-23, .cls-24, .cls-25, .cls-26, .cls-27, .cls-28, .cls-29, .cls-30 {
        stroke-width: 0px;
      }

      .cls-2 {
        fill: #201903;
      }

      .cls-3 {
        fill: #907d4b;
      }

      .cls-4 {
        fill: #447083;
      }

      .cls-5 {
        fill: #2f85b6;
      }

      .cls-6 {
        fill: #ba9b61;
      }

      .cls-7 {
        fill: #03557d;
      }

      .cls-8 {
        fill: #0e618b;
      }

      .cls-9 {
        fill: #1f73a3;
      }

      .cls-10 {
        fill: #3d93cb;
      }

      .cls-11 {
        fill: #146794;
      }

      .cls-12 {
        fill: #0a5c86;
      }

      .cls-13 {
        fill: #544311;
      }

      .cls-14 {
        fill: #297bab;
      }

      .cls-15 {
        fill: #776634;
      }

      .cls-16 {
        fill: #332701;
      }

      .cls-17 {
        fill: #1a1f35;
      }

      .cls-18 {
        fill: #373840;
      }

      .cls-19 {
        fill: #2378a9;
      }

      .cls-20 {
        fill: #548ba6;
      }

      .cls-21 {
        fill: #1a6d9d;
      }

      .cls-22 {
        fill: #a78e5a;
      }

      .cls-23 {
        fill: #c5a266;
      }

      .cls-24 {
        fill: #5f4e19;
      }

      .cls-25 {
        fill: #489fdc;
      }

      .cls-26 {
        fill: #358bc0;
      }

      .cls-27 {
        fill: #1f6484;
      }

      .cls-28 {
        fill: #3e3109;
      }

      .cls-29 {
        fill: #877443;
      }

      .cls-30 {
        fill: #6a5a26;
      }
    </style>
  </defs>
  <path class="cls-1" d="M0,0c115.99,0,231.97,0,347.96,0,0,115.99,0,231.97,0,347.96-115.99,0-231.97,0-347.96,0C0,231.97,0,115.99,0,0ZM242.04,197.05c.75-3.63,1.49-7.25,2.24-10.88,9.95-12.36,19.93-24.7,29.76-37.15.81-1.03.58-2.9.83-4.37,0,0-.11-.23-.11-.23,1.78-1.48,3.56-2.95,5.33-4.43,1.39-2.2,2.78-4.41,4.17-6.61,1.37-2.32,2.74-4.63,4.12-6.95,0,0,.21-.26.21-.26,8.57-16.13,17.28-32.19,25.62-48.45,2.54-4.96.39-7.69-5-8.08-4.66-.33-9.29-.99-13.92-1.63-13.84-1.9-26.56-.29-28.62,12.89-4.36-6.03-8.64-3.71-13.04-.58-3.31,2.36-6.8,4.46-10.21,6.68-.62-.44-1.25-.89-1.87-1.33-3.19-16.51-10.26-31.33-20.32-44.63-1.76-2.32-6.09-4.21-9-3.92-39.8,3.95-79.56,8.3-119.33,12.59-17.94,1.94-35.86,3.97-53.91,5.96.17,1.41.04,2.18.35,2.68,8.06,13.12,12.08,27.63,15.32,42.52.54,2.49,3.83,4.96,6.44,6.29,3.76,1.92,8.06,2.79,13.48,4.54-4.99,4.77-8.27,8.53-12.16,11.48-4.77,3.61-6.03,8.05-6.73,13.84-1.46,12.07-3.27,24.26-6.63,35.91-7.21,25.02-7.89,49.99-1.47,75.04,5.34,20.84,14.36,39.92,29.85,55.4.45,1.9.98,3.78,1.33,5.69.75,4.06,3.16,5.06,6.79,3.77,5.13-1.82,10.22-3.72,15.34-5.58,3.38-.32,6.75-.64,10.13-.96,1.04-.09,2.08-.18,3.13-.27,1.71-.28,3.43-.55,5.14-.83,1.94-.26,3.87-.52,5.81-.78,1.66-.24,3.33-.49,4.99-.73,1.51-.21,3.02-.43,4.52-.64,7.95-1.21,15.9-2.42,23.85-3.63,1.09-.09,2.19-.18,3.28-.27,1.68-.3,3.35-.61,5.03-.91,1.5-.16,3-.32,4.5-.48,1.25-.24,2.49-.49,3.74-.73,5.11-.7,10.22-1.4,15.32-2.1,1.67-.25,3.35-.49,5.02-.74,1.5-.21,3-.42,4.49-.62,2.05-.32,4.11-.65,6.16-.97,1.12-.12,2.23-.25,3.35-.37,4.8-.76,9.6-1.53,14.4-2.29,1.08-.09,2.15-.18,3.23-.27,1.69-.3,3.37-.61,5.06-.91,1.49-.15,2.97-.3,4.46-.45,1.7-.28,3.39-.57,5.09-.85,4.64-.75,9.29-1.5,13.93-2.25.23-.68.46-1.36.68-2.05-5.7-5.91-11.29-11.9-12.62-20.47-1.07-6.9-2.04-13.81-3.05-20.72-1.24-1.45-2.2-3.49-3.77-4.21-3.12-1.44-6.57-2.15-10.79-3.44,3.84-3.58,7.07-6.34,9.99-9.39,1.78-1.85,4.12-4,4.44-6.27,1-7.13,1.16-14.38,1.65-21.58Z"/>
  <path class="cls-17" d="M77.43,303.37c-15.49-15.48-24.52-34.57-29.85-55.4-6.42-25.05-5.74-50.03,1.47-75.04,3.36-11.65,5.17-23.84,6.63-35.91.7-5.78,1.96-10.23,6.73-13.84,3.9-2.95,7.18-6.71,12.16-11.48-5.42-1.75-9.72-2.62-13.48-4.54-2.61-1.33-5.89-3.8-6.44-6.29-3.24-14.89-7.26-29.4-15.32-42.52-.31-.5-.18-1.27-.35-2.68,18.05-2,35.97-4.03,53.91-5.96,39.77-4.29,79.53-8.64,119.33-12.59,2.91-.29,7.24,1.6,9,3.92,10.06,13.3,17.12,28.13,20.32,44.63-1.13.06-2.26.12-3.4.18-.27-.18-.56-.3-.87-.37-.68-.94-1.36-1.88-2.05-2.82-.09-.81-.18-1.63-.27-2.44-.79-2.83-1.57-5.66-2.36-8.49-1.4-2.66-2.8-5.32-4.21-7.98-.8-1.96-1.6-3.91-2.41-5.87-.54-1.22-1.08-2.45-1.62-3.68-.99-1.75-1.98-3.5-2.98-5.25-2.54-2.57-5.18-7.42-7.61-7.32-13.48.54-26.93,2.22-40.37,3.64-24.19,2.56-48.37,5.19-72.55,7.82-18.3,1.99-36.59,4.04-55.99,6.18,2.32,4.55,4.43,8.69,6.54,12.83.84,2.29,1.69,4.58,2.53,6.87.2,1.32.4,2.63.6,3.95.48,1.82.96,3.63,1.44,5.45.46,1.82.92,3.64,1.38,5.46-.81,8.83,5.21,10.24,11.89,10.92,4.55,1.32,9.1,2.63,13.66,3.95-2.54,3.08-5.08,6.16-7.62,9.24-2.61,2.32-5.22,4.65-7.83,6.97-1.87,1.79-3.74,3.57-5.6,5.36-.58,2.77-1.17,5.55-1.75,8.32-.19,2.24-.37,4.48-.56,6.73-.41,3.21-.81,6.41-1.22,9.62-.5,3.06-1.01,6.12-1.51,9.18-1.23,4.18-2.47,8.36-3.7,12.54-1.03,4.05-2.06,8.11-3.08,12.16-4.08,18.35-3.45,36.59,1.38,54.72.47,1.8.93,3.61,1.4,5.41.48,1.75.97,3.51,1.45,5.26l2.47,7.13c.51,1.31,1.03,2.61,1.54,3.92.96,2.19,1.92,4.39,2.88,6.58.47.9.95,1.81,1.42,2.71,1.3,2.25,2.61,4.51,3.91,6.76,3.14,4.64,6.29,9.28,9.43,13.92,1.39,1.39,2.77,2.77,4.16,4.16-.88,1.32-1.77,2.64-2.65,3.96Z"/>
  <path class="cls-28" d="M77.43,303.37c.88-1.32,1.77-2.64,2.65-3.97,1.46-4.61,2.92-9.21,4.38-13.81l-.05-.04c.83-1.41,1.66-2.82,2.48-4.22,1.53-2.22,3.07-4.45,4.6-6.67,1.35-2.27,2.69-4.54,4.04-6.81.78-1.39,1.56-2.78,2.33-4.18,1.32-1.81,2.65-3.61,3.97-5.42,1.33-2.26,2.66-4.52,3.99-6.78,1.41-1.82,2.81-3.64,4.22-5.46,1.87-2.7,3.75-5.4,5.62-8.1,3.1-4.55,6.21-9.1,9.31-13.65,1.91.5,3.81,1,5.72,1.5.1.76.2,1.53.31,2.29-.61,1.32-1.22,2.64-1.83,3.95-18.89,19.05-32.01,42.12-45.15,65.15-.33.58,1.02,2.11,1.58,3.2,0,3.73,1.27,5.44,4.73,2.61,1.72-1.41,3.32-3.1,4.55-4.94,8.69-13.07,17.08-26.35,25.95-39.3,4.65-6.79,10.08-13.05,15.15-19.55,6.87,1.82,13.64,4.57,20.62,5.26,12.5,1.23,23.62-3.45,33.73-10.62,1.97-1.37,3.94-2.75,6.46-4.5-7.33-6.37-14.4-12.5-21.47-18.64l.02-.02c7.17.42,14.34.91,21.52,1.21,3.37.14,7.71,1.21,9.97-.42,8.45-6.1,16.21-13.14,24.23-19.83-.36-.51-.72-1.02-1.08-1.53-3.47,1.54-6.95,3.08-10.42,4.63-5.24-.6-10.48-1.2-15.72-1.8,7.09-3.13,14.09-6.45,21.29-9.29,3.4-1.34,7.17-1.76,10.77-2.59-1.28,2.24-2.56,4.48-3.84,6.71.52.34,1.05.68,1.57,1.02,5.1-5.34,10.2-10.68,15.3-16.02,1.29-1.4,2.58-2.8,3.87-4.2.69-.9,1.38-1.8,2.06-2.7.32-.13.55-.36.68-.67.46-1.14.91-2.27,1.37-3.41l-.02.03c1.82-1.63,3.68-3.21,5.44-4.9,4.2-4.05,8.35-8.15,12.52-12.24-.25,1.48-.01,3.34-.83,4.37-9.83,12.45-19.82,24.79-29.76,37.15-6.73-.11-4.53,6.03-6.48,9.26-1.93,1.32-3.85,2.65-5.78,3.98-.45.45-.9.89-1.35,1.34-1.71,1.46-3.43,2.92-5.14,4.39-.48.43-.96.86-1.44,1.29-2.23,1.84-4.46,3.69-6.7,5.53-.49.42-.98.84-1.47,1.25-8,1.42-16.01,2.83-25.5,4.51,2.54,2.27,4.38,4.27,6.57,5.76,3.4,2.32,5.34,4.86,2.95,8.96-1.41,1.75-2.83,3.49-4.24,5.24-1.4.91-2.8,1.82-4.2,2.73-1.36.9-2.72,1.81-4.08,2.71-13.79,6.83-27.87,11.49-43.31,5.66-.86-.03-1.72-.06-2.57-.08-4.54-4.5-7.03-2.61-8.42,2.7,0,0,.04-.03.04-.03-.93,1.36-1.85,2.72-2.78,4.09l.03-.02c-1.43,1.75-2.86,3.51-4.29,5.26-5.36,7.8-10.73,15.6-16.09,23.41-4.29,6.49-8.57,12.98-13.2,19.98,1.9.29,2.96.45,4.02.62.41.4.81.81,1.22,1.21-.39.45-.78.89-1.18,1.34-5.11,1.86-10.21,3.76-15.33,5.58-3.63,1.29-6.04.29-6.79-3.77-.35-1.91-.88-3.8-1.33-5.69ZM84.73,306.56c-.08-.14-.13-.37-.24-.41-.14-.06-.34.04-.52.06.11.21.23.43.34.64l.42-.29Z"/>
  <path class="cls-28" d="M238.14,85.86c1.13-.06,2.26-.12,3.4-.18.62.45,1.25.89,1.87,1.33.93,1,1.86,2,2.79,3-7.39,5.28-14.78,10.57-22.16,15.85-6.28,4.55-12.56,9.11-18.84,13.66-3.57,2.35-7.14,4.7-10.71,7.05-6.41,5.35-12.82,10.71-19.22,16.06-3.61,3.19-7.21,6.37-10.82,9.56-4.44,4.65-8.65,9.56-13.39,13.89-5.43,4.98-7.89,10.5-5.3,17.71.34,1.63.68,3.27,1.02,4.9-2.29.53-4.7.77-6.84,1.66-2.3.96-5.4,2.05-6.27,3.95-1.74,3.78-2.2,8.15-3.19,12.28-.77.53-1.55,1.06-2.55,1.75-.19-2.54-.34-4.49-.48-6.43l1.44-7.55,1.69-5.43s-.05.06-.05.06c.47-.93.93-1.86,1.4-2.79,0,0-.04.07-.04.07,5.54-8.57,11.08-17.13,16.63-25.7.56-1.27,1.12-2.55,1.67-3.82.72-.13,1.44-.25,2.15-.38l-.05.03c.47-.47.94-.94,1.4-1.42l-.05.05c.47-.47.93-.94,1.4-1.41,0,0-.05.05-.05.05.47-.47.93-.94,1.4-1.41,0,0-.02.06-.02.06,4.49-3.82,9.11-7.5,13.42-11.52,2.45-2.28,4.39-5.12,6.56-7.7.21-.36.33-.74.37-1.15.93-.41,1.85-.83,2.78-1.24.9-.52,1.8-1.05,2.69-1.57,0,0-.04.05-.04.05.47-.46.95-.93,1.42-1.39,0,0-.05.06-.05.06,5.78-4.6,11.55-9.2,17.33-13.8.23-.36.44-.72.65-1.09,1.25-.57,2.5-1.15,3.75-1.72l1.86-1.91.07-.04c3.89-2.51,7.78-5.01,11.68-7.52.51-.35,1.03-.71,1.54-1.06,0,0-.03.11-.03.1,5.38-3.02,10.92-5.8,16.02-9.22,1.29-.86,1.21-3.78,1.75-5.75Z"/>
  <path class="cls-13" d="M246.2,90.02c-.93-1-1.86-2-2.79-3,3.41-2.22,6.9-4.32,10.21-6.68,4.4-3.13,8.67-5.44,13.04.58,2.07-13.18,14.79-14.79,28.62-12.89,4.63.64,9.27,1.29,13.92,1.63,5.39.38,7.55,3.12,5,8.08-8.33,16.25-17.05,32.31-25.62,48.45-.57-.46-1.15-.92-1.74-1.35,0,0-.25.3-.38.47.64.38,1.28.76,1.91,1.14-1.37,2.32-2.74,4.63-4.12,6.95-6.26-1.07.52-5-1.54-6.99,1.77-2.31,3.53-4.62,5.3-6.92,3.27-6.26,6.54-12.53,9.81-18.79,3.09-7.28,6.19-14.56,9.28-21.84-.38-1.31-.52-3.63-1.17-3.78-4.65-1.08-9.46-1.48-14.12-2.53-12.59-2.83-20.07,2.53-19.94,14.49-.62,1.74-1.23,3.49-1.85,5.23-6.56-9.16-14.01-10.61-22.58-2.64-.29.27-.83.28-1.26.41Z"/>
  <path class="cls-17" d="M102.06,305.91c-.41-.4-.81-.81-1.22-1.21,1.73-.49,3.43-1.18,5.2-1.44,33.63-4.94,67.26-9.87,100.9-14.73,14.18-2.05,28.38-3.92,42.46-5.86-3.43-7.13-6.7-13.94-9.97-20.75-.53-3.49-1.05-6.98-1.58-10.46-.43-.51-.86-1.02-1.28-1.53-.09-.86-.17-1.71-.26-2.57.08-1.34.15-2.68.23-4.03,1.33-.46,2.66-.92,3.99-1.37,1.01,6.91,1.98,13.82,3.05,20.72,1.33,8.58,6.92,14.57,12.62,20.47-.23.68-.46,1.36-.68,2.05-4.64.75-9.29,1.5-13.93,2.25-1.7.28-3.39.57-5.09.86-1.49.15-2.97.3-4.46.45-1.69.3-3.37.61-5.06.92-1.08.09-2.15.18-3.23.27-4.8.76-9.6,1.53-14.4,2.29-1.12.12-2.23.25-3.35.37-2.05.32-4.11.65-6.16.97-1.5.21-3,.42-4.49.62-1.67.24-3.35.49-5.02.74-5.11.7-10.22,1.4-15.33,2.09-1.25.24-2.49.49-3.74.73-1.5.16-3,.32-4.5.47-1.68.3-3.35.61-5.03.92-1.09.09-2.19.18-3.28.27-7.95,1.21-15.9,2.42-23.85,3.63-1.51.21-3.02.43-4.53.64-1.66.24-3.33.49-4.99.73-1.94.26-3.87.52-5.81.78-1.71.28-3.43.55-5.14.83-1.04.09-2.08.18-3.13.26-2.99-.13-5.97-.25-8.95-.38Z"/>
  <path class="cls-3" d="M282.73,126.4c2.06,1.99-4.72,5.93,1.54,6.99-1.39,2.2-2.78,4.41-4.17,6.61-3.63-.75-5.77.28-5.33,4.43,0,0,.11.23.11.23-4.17,4.08-8.32,8.18-12.52,12.23-1.76,1.69-3.62,3.27-5.44,4.9,2.29-4.11,4.58-8.22,6.87-12.32,3.19-4.07,6.39-8.14,9.58-12.22-.57-.61-1.13-1.23-1.7-1.84-8,4.83-16.01,9.65-23.98,14.51-4.19,2.55-8.31,5.21-12.47,7.81-2.7-.02-5.44-.36-8.08,0-4.54.63-7.3-.94-8.3-5.46,4.54-2.73,9.09-5.45,13.63-8.18,11.17-1.11,21.59-4.05,29.83-12.27,4.22-1.75,8.63-5.33,11.59,1.63,3.26-2.61,6.04-4.84,8.83-7.07Z"/>
  <path class="cls-18" d="M240.52,241.95c-1.33.46-2.66.92-3.99,1.37-.45-.09-.9-.19-1.35-.28-3.63-1.19-7.26-2.39-10.89-3.58-1.8-1-3.6-2.01-5.41-3.01.48-.87.96-1.74,1.44-2.61.47-.41.95-.81,1.42-1.22.47-.44.94-.87,1.41-1.31.48-.43.96-.87,1.43-1.3,1.84-1.76,3.68-3.53,5.52-5.29.83-.61,1.66-1.22,2.49-1.82.41-.36.81-.73,1.22-1.09.5-.48,1.01-.95,1.51-1.43.8-2.43,1.96-4.8,2.32-7.29.77-5.31,1.11-10.67,1.63-16.01.92-.01,1.84-.02,2.77-.03-.49,7.2-.65,14.45-1.65,21.58-.32,2.26-2.66,4.41-4.44,6.27-2.93,3.05-6.15,5.81-9.99,9.39,4.22,1.29,7.67,2,10.79,3.44,1.57.72,2.53,2.76,3.77,4.21Z"/>
  <path class="cls-18" d="M134.6,303.04c7.95-1.21,15.9-2.42,23.85-3.63-7.95,1.21-15.9,2.42-23.85,3.63Z"/>
  <path class="cls-13" d="M242.04,197.05c-.92.01-1.84.02-2.77.03-.49-.55-.99-1.1-1.48-1.65,1.96-3.23-.25-9.37,6.48-9.26-.75,3.63-1.49,7.25-2.24,10.88Z"/>
  <path class="cls-18" d="M209.34,292.22c4.8-.76,9.6-1.53,14.4-2.29-4.8.76-9.6,1.53-14.4,2.29Z"/>
  <path class="cls-18" d="M102.06,305.91c2.98.13,5.97.25,8.95.38-3.37.32-6.75.64-10.13.96.39-.45.78-.89,1.17-1.34Z"/>
  <path class="cls-28" d="M274.76,144.42c-.43-4.14,1.71-5.18,5.33-4.43-1.78,1.48-3.56,2.95-5.33,4.43Z"/>
  <path class="cls-18" d="M199.83,293.57c2.05-.32,4.11-.65,6.16-.97-2.05.32-4.11.65-6.16.97Z"/>
  <path class="cls-18" d="M226.97,289.66c1.69-.31,3.37-.61,5.06-.92-1.69.31-3.37.61-5.06.92Z"/>
  <path class="cls-18" d="M190.32,294.93c1.67-.25,3.34-.49,5.02-.74-1.67.25-3.34.49-5.02.74Z"/>
  <path class="cls-18" d="M161.74,299.14c1.67-.31,3.35-.61,5.03-.92-1.67.31-3.35.61-5.03.92Z"/>
  <path class="cls-18" d="M236.48,288.3c1.7-.29,3.39-.57,5.09-.86-1.69.29-3.39.57-5.09.86Z"/>
  <path class="cls-18" d="M125.09,304.41c1.66-.24,3.33-.49,4.99-.73-1.66.24-3.33.49-4.99.73Z"/>
  <path class="cls-18" d="M114.14,306.02c1.71-.28,3.43-.56,5.14-.83-1.71.28-3.43.56-5.14.83Z"/>
  <path class="cls-18" d="M171.26,297.75c1.25-.24,2.49-.49,3.74-.73-1.24.25-2.49.49-3.74.73Z"/>
  <path class="cls-28" d="M288.38,126.44c-.64-.38-1.28-.76-1.91-1.14.13-.16.38-.47.38-.47.59.43,1.16.89,1.74,1.35,0,0-.21.26-.21.26Z"/>
  <path class="cls-18" d="M255.5,285.19c.23-.68.45-1.36.68-2.05-.23.68-.45,1.36-.68,2.05Z"/>
  <path class="cls-7" d="M51.42,243.56c-4.84-18.13-5.46-36.36-1.38-54.72,2.43-.41,4.85-.89,7.3-1.23,19.12-2.7,38.2-5.87,57.4-7.73,5.41-.53,12.45-5.54,17.13,2.26,0,1.38.02,2.77.02,4.15,0,0,.04-.07.04-.07-.47.93-.93,1.86-1.4,2.79,0,0,.05-.06.05-.06-1.01,1.8-2.03,3.6-3.04,5.4-6.02,5.93-3.24,13.51-3.82,20.46-.02.45-.11.89-.26,1.32-.37,1.03-.98,2.03-1.07,3.09-.84,9.95-3.25,13.17-12.91,14.86-9.48,1.65-19.13,2.31-28.63,3.85-9.85,1.6-19.61,3.73-29.41,5.63Z"/>
  <path class="cls-7" d="M51.42,72.12c-2.11-4.14-4.22-8.28-6.54-12.83,19.4-2.14,37.69-4.19,55.99-6.18,24.18-2.63,48.36-5.26,72.55-7.82,13.44-1.42,26.89-3.1,40.37-3.64,2.44-.1,5.07,4.75,7.61,7.32-4.46.52-8.92.94-13.37,1.56-25.09,3.51-50.17,7.12-75.27,10.58-27.1,3.74-54.23,7.34-81.34,11.01Z"/>
  <path class="cls-26" d="M218.86,101.78c-3.89,2.51-7.78,5.01-11.68,7.52,1.17-2.47,2.34-4.93,4.08-8.62-3.57.17-5.94.08-8.25.44-10.19,1.56-20.34,3.41-30.54,4.87-19.67,2.8-39.35,5.55-59.06,8.03-12.66,1.59-25.4,2.65-38.1,3.95,2.54-3.08,5.08-6.16,7.62-9.24.54-.39,1.05-1.04,1.63-1.12,23.56-3.26,47.14-6.47,70.7-9.69,26.63-3.64,53.25-7.3,79.88-10.95-1.9,1.88-3.75,3.8-5.7,5.62-2.99,2.79-6.05,5.51-9.08,8.26,0,0,.03-.11.03-.11-.51.35-1.03.71-1.54,1.06Z"/>
  <path class="cls-11" d="M56,88.39c-.48-1.82-.96-3.63-1.44-5.45,13.98-1.82,27.96-3.64,41.95-5.46,18.87-2.45,37.75-4.78,56.6-7.35,17.74-2.42,35.47-4.91,53.16-7.7,6.65-1.05,13.16-3,19.73-4.54.8,1.96,1.6,3.91,2.4,5.87-1.68,1.39-3.23,3.77-5.07,4.03-24.89,3.45-49.85,6.47-74.75,9.88-24.67,3.37-49.28,7.23-73.96,10.5-6.11.81-12.41.18-18.62.21Z"/>
  <path class="cls-19" d="M232.6,71.75c.79,2.83,1.57,5.66,2.36,8.49-16.06,1.84-32.16,3.35-48.16,5.61-26.44,3.73-52.79,8.03-79.21,11.91-8.44,1.24-17.01,1.6-25.43,2.95-4.4.7-8.61,2.67-12.9,4.06-6.68-.69-12.7-2.09-11.89-10.92,2.48.73,5.06,2.32,7.42,2.04,15.33-1.84,30.6-4.13,45.9-6.18,14.87-1.99,29.76-3.81,44.64-5.78,19.3-2.56,38.61-5.07,57.88-7.89,6.53-.96,12.93-2.83,19.39-4.28Z"/>
  <path class="cls-12" d="M51.42,72.12c27.11-3.66,54.24-7.27,81.34-11.01,25.1-3.46,50.18-7.08,75.27-10.58,4.44-.62,8.91-1.05,13.37-1.56.99,1.75,1.98,3.5,2.98,5.26-6.7,1.41-13.35,3.18-20.12,4.15-15.95,2.27-31.97,4.09-47.94,6.21-18.19,2.42-36.37,4.92-54.54,7.47-15.95,2.25-31.88,4.62-47.82,6.94-.84-2.29-1.69-4.58-2.53-6.87Z"/>
  <path class="cls-5" d="M69.27,104.77c4.29-1.39,8.5-3.36,12.9-4.06,8.42-1.35,16.99-1.71,25.43-2.95,26.42-3.88,52.77-8.18,79.21-11.91,16-2.26,32.1-3.76,48.16-5.61.09.81.18,1.63.27,2.44-.02,1.01-.04,2.02-.06,3.03.01.42,0,.83-.03,1.25-26.63,3.65-53.25,7.31-79.88,10.95-23.57,3.23-47.14,6.43-70.7,9.69-.58.08-1.09.74-1.63,1.12-4.55-1.32-9.1-2.63-13.66-3.95Z"/>
  <path class="cls-21" d="M232.6,71.75c-6.46,1.45-12.86,3.32-19.39,4.28-19.26,2.83-38.57,5.33-57.88,7.89-14.87,1.98-29.77,3.8-44.64,5.78-15.3,2.04-30.58,4.34-45.9,6.18-2.36.28-4.94-1.31-7.42-2.04-.46-1.82-.92-3.64-1.38-5.45,6.21-.03,12.51.6,18.62-.21,24.68-3.27,49.29-7.12,73.96-10.5,24.9-3.41,49.85-6.43,74.75-9.88,1.84-.26,3.39-2.63,5.07-4.03,1.4,2.66,2.81,5.32,4.21,7.98Z"/>
  <path class="cls-11" d="M150.19,156.77c-.56,1.27-1.12,2.55-1.67,3.82-.58-.07-1.16-.14-1.73-.21,1.94-5.26-.68-7.29-5.41-6.66-20.83,2.76-41.61,5.87-62.44,8.62-7.32.96-14.73,1.23-22.1,1.81.5-3.06,1.01-6.12,1.51-9.18,2.42-.45,4.83-.99,7.26-1.32,26.36-3.61,52.7-7.51,79.13-10.5,4.91-.55,11.6-5.62,15.65,2.32-1.33,2.3-2.66,4.59-3.99,6.89,0,0,.02-.06.02-.06-.47.47-.93.94-1.4,1.41,0,0,.05-.05.05-.05-.47.47-.93.94-1.4,1.41,0,0,.05-.05.05-.05-.47.47-.94.94-1.4,1.42,0,0,.05-.03.05-.03-.72.13-1.44.25-2.15.38Z"/>
  <path class="cls-8" d="M56.82,164.14c7.37-.58,14.78-.85,22.1-1.81,20.83-2.74,41.61-5.86,62.44-8.62,4.73-.63,7.35,1.4,5.41,6.66-3.16,4.1-6.32,8.21-9.48,12.31.45-3.96-1-6.02-5.3-5.52-10.03,1.19-20.08,2.23-30.11,3.44-16.26,1.97-32.52,4.04-48.78,6.07,1.23-4.18,2.47-8.36,3.7-12.54Z"/>
  <path class="cls-21" d="M160.38,145.45c-4.05-7.94-10.74-2.87-15.65-2.32-26.44,2.99-52.77,6.89-79.13,10.5-2.43.33-4.84.88-7.26,1.32.41-3.21.81-6.41,1.22-9.62,7.11-.83,14.24-1.57,21.33-2.52,26.87-3.6,53.71-7.39,80.61-10.73,3.12-.39,6.55,1.62,9.83,2.52-3.65,3.61-7.3,7.23-10.95,10.84Z"/>
  <path class="cls-12" d="M53.12,176.68c16.26-2.03,32.51-4.1,48.78-6.07,10.03-1.22,20.08-2.26,30.11-3.44,4.3-.51,5.75,1.55,5.3,5.52-1.81,3.15-3.63,6.3-5.44,9.45-4.68-7.79-11.72-2.78-17.13-2.26-19.2,1.86-38.28,5.03-57.4,7.73-2.44.34-4.86.82-7.3,1.23,1.03-4.05,2.05-8.11,3.08-12.16Z"/>
  <path class="cls-5" d="M75.31,117.96c12.7-1.3,25.43-2.36,38.1-3.95,19.71-2.48,39.39-5.23,59.06-8.03,10.2-1.45,20.35-3.3,30.54-4.87,2.31-.35,4.69-.26,8.25-.44-1.75,3.69-2.92,6.15-4.08,8.62,0,0-.07.04-.07.03-.62.64-1.24,1.28-1.85,1.92-1.25.57-2.5,1.15-3.75,1.71-2.51-1.31-5.16-3.92-7.52-3.68-12.23,1.23-24.38,3.2-36.56,4.9-15.95,2.22-31.88,4.65-47.87,6.58-14,1.69-28.06,2.8-42.09,4.17,2.61-2.32,5.22-4.65,7.83-6.97Z"/>
  <path class="cls-19" d="M60.12,138.61c.58-2.77,1.17-5.55,1.76-8.32,4.26-.15,8.56.02,12.77-.51,11.32-1.42,22.6-3.16,33.91-4.71,18.84-2.59,37.64-5.49,56.54-7.56,9.22-1.01,18.62-.45,27.93-.6-1.55,1.75-3.12,3.49-4.65,5.26-1.63,1.89-3.23,3.8-4.84,5.71,0,0,.05-.06.05-.06-.49-.07-.99-.14-1.48-.21-2.29-1.3-4.71-3.91-6.86-3.71-16.48,1.56-32.93,3.5-49.34,5.65-21.95,2.87-43.86,6.03-65.78,9.07Z"/>
  <path class="cls-9" d="M60.12,138.61c21.93-3.04,43.83-6.2,65.78-9.07,16.42-2.15,32.87-4.09,49.34-5.65,2.15-.2,4.57,2.4,6.86,3.71.02.53.04,1.07.06,1.6,0,0,.04-.05.04-.05-.95-.02-1.89-.03-2.84-.05-.88.95-1.76,1.91-2.64,2.86-.04.41-.17.79-.37,1.15-1.68.5-3.36,1-5.04,1.49-3.28-.9-6.71-2.91-9.83-2.52-26.9,3.34-53.74,7.13-80.61,10.73-7.1.95-14.22,1.69-21.33,2.52.19-2.24.37-4.48.56-6.73Z"/>
  <path class="cls-8" d="M53.95,78.99c15.94-2.32,31.87-4.7,47.82-6.94,18.17-2.56,36.35-5.06,54.54-7.47,15.97-2.12,31.99-3.94,47.94-6.21,6.76-.96,13.41-2.74,20.12-4.15.54,1.23,1.08,2.46,1.62,3.68-6.57,1.53-13.08,3.49-19.73,4.53-17.68,2.78-35.42,5.28-53.16,7.7-18.85,2.57-37.74,4.9-56.6,7.35-13.98,1.81-27.96,3.64-41.95,5.46-.2-1.32-.4-2.63-.6-3.95Z"/>
  <path class="cls-14" d="M193.02,116.9c-9.32.15-18.71-.41-27.93.6-18.9,2.07-37.7,4.97-56.54,7.56-11.3,1.56-22.58,3.3-33.91,4.71-4.21.53-8.51.36-12.77.51,1.87-1.79,3.73-3.57,5.6-5.36,14.03-1.37,28.1-2.49,42.09-4.17,15.99-1.93,31.91-4.35,47.87-6.58,12.18-1.7,24.33-3.67,36.56-4.9,2.36-.24,5.01,2.37,7.52,3.68-.21.39-.43.75-.66,1.11-2.61.94-5.22,1.89-7.83,2.83Z"/>
  <path class="cls-12" d="M51.42,243.56c9.8-1.9,19.56-4.03,29.41-5.63,9.5-1.54,19.15-2.2,28.63-3.85,9.66-1.69,12.07-4.91,12.91-14.86.09-1.05.7-2.06,1.07-3.09.51,2.71,1.02,5.42,1.53,8.13-3.1,4.55-6.21,9.1-9.31,13.65-13.6,2.25-27.21,4.44-40.79,6.79-7.38,1.28-14.71,2.84-22.06,4.28-.47-1.8-.93-3.61-1.4-5.41Z"/>
  <path class="cls-8" d="M52.82,248.97c7.35-1.44,14.68-3,22.06-4.28,13.58-2.35,27.19-4.53,40.79-6.79-1.87,2.7-3.75,5.4-5.62,8.1-11.34,1.44-22.7,2.76-34.01,4.38-7.29,1.05-14.51,2.54-21.77,3.84-.48-1.75-.97-3.51-1.45-5.26Z"/>
  <path class="cls-11" d="M54.27,254.23c7.25-1.3,14.48-2.79,21.77-3.84,11.31-1.62,22.67-2.94,34.01-4.38-1.41,1.82-2.81,3.64-4.22,5.46-7.56,1.42-15.13,2.75-22.66,4.28-8.82,1.78-17.62,3.73-26.42,5.61l-2.47-7.13Z"/>
  <path class="cls-21" d="M56.74,261.36c8.81-1.88,17.6-3.83,26.42-5.61,7.53-1.52,15.11-2.86,22.66-4.28-1.33,2.26-2.66,4.52-3.99,6.78-4.1.91-8.16,2.06-12.29,2.68-10.4,1.57-20.84,2.91-31.26,4.35-.51-1.31-1.03-2.61-1.54-3.92Z"/>
  <path class="cls-9" d="M58.28,265.28c10.42-1.43,20.86-2.77,31.26-4.35,4.14-.63,8.2-1.77,12.29-2.68-1.32,1.81-2.65,3.61-3.97,5.42-7.97,1.69-15.96,3.34-23.92,5.1-4.28.94-8.52,2.06-12.78,3.1-.96-2.19-1.92-4.39-2.88-6.58Z"/>
  <path class="cls-5" d="M95.53,267.84c-1.35,2.27-2.69,4.54-4.04,6.81-7.61,4.93-15.97,7.07-25,6.68-1.3-2.25-2.61-4.51-3.91-6.76,11.45.02,22.71-.86,32.95-6.73Z"/>
  <path class="cls-10" d="M66.49,281.33c9.03.38,17.39-1.75,25-6.68-1.53,2.22-3.07,4.45-4.6,6.67-.83,1.41-1.66,2.82-2.48,4.22,0,0,.05.04.05.04-2.85,3.22-5.69,6.44-8.54,9.66-3.14-4.64-6.29-9.28-9.43-13.92Z"/>
  <path class="cls-14" d="M95.53,267.84c-10.24,5.87-21.5,6.75-32.95,6.73-.47-.9-.94-1.81-1.42-2.71,4.26-1.04,8.5-2.15,12.78-3.1,7.96-1.75,15.94-3.4,23.92-5.1-.78,1.39-1.56,2.78-2.33,4.17Z"/>
  <path class="cls-20" d="M235.14,86.95c.03-.42.04-.83.03-1.25.7-.07,1.41-.14,2.11-.21.31.06.6.19.87.37-.55,1.97-.46,4.89-1.75,5.75-5.11,3.42-10.65,6.2-16.02,9.22,3.03-2.75,6.09-5.47,9.08-8.26,1.95-1.82,3.8-3.74,5.7-5.62Z"/>
  <path class="cls-25" d="M75.92,295.25c2.85-3.22,5.69-6.44,8.54-9.66-1.46,4.6-2.92,9.21-4.38,13.82-1.39-1.38-2.77-2.77-4.16-4.15Z"/>
  <path class="cls-26" d="M237.28,85.49c-.7.07-1.41.14-2.11.21.02-1.01.04-2.02.06-3.02.68.94,1.36,1.88,2.05,2.82Z"/>
  <path class="cls-2" d="M135.98,239.19c-5.08,6.5-10.5,12.76-15.15,19.55-8.87,12.95-17.26,26.22-25.95,39.3-1.23,1.85-2.83,3.54-4.55,4.94-3.46,2.83-4.73,1.11-4.73-2.62,13.59-22.48,26.48-45.45,44.43-64.96.43-.47-.54-2.23-.86-3.39.61-1.32,1.22-2.64,1.83-3.95,1.96-.96,4.45-1.44,5.8-2.94,17.56-19.44,34.13-39.85,52.64-58.34,15.45-15.43,33.12-28.66,49.8-42.86,2.34-1.86,4.68-3.72,7.02-5.58.37-.73.73-1.46,1.09-2.19.24-.2.47-.43.68-.69.66-.15,1.31-.31,1.97-.46,1.39.15,2.78.29,4.17.44-.16.9-.33,1.79-.49,2.69-3.19,2.7-6.37,5.4-9.56,8.11-4.85,4.06-9.69,8.13-14.54,12.19-6.85,5.93-13.7,11.85-20.55,17.77-4.96,4.55-9.92,9.1-14.88,13.65-7.19,7.71-14.38,15.42-21.58,23.13-2.92,3.26-5.99,6.42-8.65,9.88-.51.66.52,2.52.84,3.83,7.68,6.24,15.31,12.55,23.06,18.69,2.68,2.12,4.23,4.03.94,6.8-1.24.53-2.57.92-3.71,1.62-14.14,8.74-28.69,11.83-44.34,3.84-1.04-.53-3.12.98-4.72,1.54Z"/>
  <path class="cls-25" d="M239.42,261.92c3.27,6.81,6.55,13.62,9.97,20.75-14.08,1.94-28.28,3.82-42.46,5.86-33.64,4.86-67.27,9.78-100.9,14.73-1.77.26-3.47.95-5.2,1.44-1.06-.16-2.11-.32-4.02-.62,4.63-7,8.91-13.49,13.2-19.98,2.27-.96,4.55-1.91,6.82-2.87,1.41.87,2.92,2.63,4.2,2.47,20.64-2.6,41.26-5.36,61.86-8.27,17.06-2.42,34.06-5.22,51.13-7.55,3.65-.5,5.38-1.77,5.22-5.42l.18-.53Z"/>
  <path class="cls-23" d="M239.25,123.92c-16.69,14.2-34.35,27.42-49.8,42.86-18.51,18.48-35.08,38.89-52.64,58.34-1.36,1.5-3.84,1.99-5.8,2.94-.1-.77-.2-1.53-.31-2.3,4.73-5.97,9.46-11.93,14.19-17.9,4.87-5.82,9.75-11.64,14.62-17.46,2.64-3.19,5.29-6.37,7.93-9.56,7.37-7.23,14.74-14.46,22.11-21.68,5.48-5,10.96-9.99,16.45-14.99,6.76-5.43,13.53-10.87,20.29-16.3,5.51-3.41,11.03-6.81,16.54-10.22.18.23.36.45.54.67-1.37,1.86-2.75,3.72-4.12,5.58Z"/>
  <path class="cls-13" d="M263.79,149.47c-2.29,4.11-4.58,8.22-6.87,12.32,0,0,.02-.03.02-.03-.46,1.14-.91,2.27-1.37,3.41-.14.32-.36.54-.68.67-1.19.29-2.37.58-3.56.88-.44.11-.85.29-1.24.54-.45.43-.91.85-1.36,1.28-.51.83-1.02,1.67-1.53,2.5-3.76,3.33-7.52,6.66-11.29,10-3.6.83-7.37,1.25-10.77,2.59-7.2,2.84-14.21,6.17-21.29,9.29-9.04.93-18.08,1.85-27.12,2.78.85-1.98,1.13-4.8,2.63-5.8,7.07-4.69,14.47-8.89,21.75-13.26,1.26,1.43,2.42,3.96,3.8,4.08,4.98.46,10.07.42,15.06-.01,10.79-.94,18.5-6.6,23.33-16.24,1.76-1.99,3.35-4.15,5.31-5.92,4.44-4.01,7.5-10.46,15.18-9.08Z"/>
  <path class="cls-16" d="M176.73,195.69c9.04-.92,18.08-1.85,27.12-2.78,5.24.6,10.48,1.2,15.71,1.8-3.78,7.06-8.82,12.21-17.57,12.14-12.41-.1-24.82-.11-37.23-.16-.32-1.31-1.36-3.16-.84-3.83,2.67-3.46,5.73-6.62,8.65-9.88,1.39.9,2.77,1.81,4.16,2.71Z"/>
  <path class="cls-15" d="M164.76,206.69c12.41.05,24.82.06,37.23.16,8.75.07,13.79-5.08,17.57-12.14,3.48-1.54,6.96-3.08,10.43-4.62.36.51.72,1.02,1.08,1.53-8.02,6.69-15.79,13.73-24.23,19.83-2.26,1.63-6.6.56-9.97.42-7.18-.3-14.35-.79-21.52-1.21-.19-.1-.39-.19-.58-.29.19.1.37.21.56.31,7.07,6.14,14.14,12.27,21.47,18.64-2.52,1.76-4.49,3.13-6.46,4.5-.53-.55-1.05-1.09-1.58-1.64,3.29-2.77,1.74-4.68-.94-6.8-7.76-6.14-15.39-12.45-23.06-18.69Z"/>
  <path class="cls-6" d="M129.18,232.01c.32,1.16,1.29,2.92.86,3.39-17.96,19.51-30.84,42.48-44.43,64.96-.56-1.09-1.91-2.62-1.58-3.2,13.14-23.04,26.27-46.1,45.15-65.15Z"/>
  <path class="cls-19" d="M141.53,248.7c.86.03,1.72.06,2.57.08,2.05,1.34,3.94,3.35,6.17,3.85,3.23.72,6.71.33,10.08.41-.79,1.44-1.33,3.88-2.42,4.15-8.99,2.26-17.95,5.81-27.46,2.41-.03-1.39-.05-2.78-.08-4.17,0,0-.03.02-.03.02.93-1.36,1.85-2.72,2.78-4.09,0,0-.04.03-.04.03,2.81-.9,5.62-1.8,8.42-2.7Z"/>
  <path class="cls-2" d="M144.89,207.86c-4.73,5.97-9.46,11.93-14.19,17.9-1.91-.5-3.81-1-5.72-1.5-.51-2.71-1.02-5.42-1.53-8.13.15-.43.24-.87.26-1.32,1.25-4.3,2.49-8.59,3.74-12.89.15,1.94.29,3.89.48,6.43,1-.69,1.77-1.22,2.55-1.75,4.8.42,9.61.84,14.41,1.26Z"/>
  <path class="cls-11" d="M220.32,233.85c-.48.87-.96,1.74-1.44,2.61-6.33,7.21-17.93,8.63-23,2.82-.06-.53-.12-1.06-.18-1.6,1.41-1.75,2.83-3.49,4.24-5.24.87,0,1.75.01,2.62.02,2.53.88,5.02,2.36,7.59,2.5,3.24.18,6.54-.73,9.81-1.17l.36.05Z"/>
  <path class="cls-30" d="M188.76,232.19c.53.55,1.05,1.09,1.58,1.64-10.11,7.17-21.23,11.85-33.73,10.62-6.98-.69-13.75-3.44-20.62-5.26,1.6-.56,3.68-2.07,4.72-1.54,15.65,7.99,30.2,4.91,44.34-3.84,1.14-.7,2.47-1.09,3.71-1.62Z"/>
  <path class="cls-4" d="M202.56,232.47c-.87,0-1.75-.01-2.62-.02,2.39-4.1.46-6.64-2.94-8.96-2.19-1.49-4.02-3.5-6.57-5.76,9.49-1.68,17.5-3.1,25.5-4.51,0,0,.33.31.33.3-1,1.74-2,3.49-3,5.23h-15.04c1.97,3.65,3.2,5.92,4.43,8.2,0,.91,0,1.82,0,2.73-.03.93-.06,1.86-.09,2.8Z"/>
  <path class="cls-20" d="M160.35,253.04c-3.37-.08-6.85.3-10.08-.41-2.23-.49-4.13-2.51-6.17-3.85,15.45,5.84,29.52,1.18,43.31-5.66,0,0,.29.31.29.31-.04.86-.08,1.73-.13,2.59-4.55,2.24-9.09,4.47-13.64,6.71-4.53.11-9.06.21-13.59.32Z"/>
  <path class="cls-20" d="M116.84,281.23c-2.27.96-4.55,1.91-6.82,2.87,5.36-7.8,10.73-15.6,16.09-23.4.17.16.33.31.5.47-.04,1.29-.08,2.58-.12,3.87-.93,1.37-1.86,2.73-2.79,4.1-1.37,2.24-2.74,4.49-4.11,6.73-.92,1.79-1.83,3.58-2.75,5.36Z"/>
  <path class="cls-4" d="M237.79,195.43c.49.55.99,1.1,1.48,1.65-.52,5.34-.87,10.71-1.63,16.01-.36,2.49-1.52,4.86-2.32,7.29-.19-.19-.38-.39-.57-.57.52-5.72,1.05-11.44,1.57-17.16-1.3-.94-2.59-1.88-3.89-2.82l-.43-.42c1.93-1.32,3.85-2.65,5.78-3.97Z"/>
  <path class="cls-29" d="M235.91,181.03c3.76-3.33,7.52-6.66,11.29-9.99.58.57,1.16,1.14,1.75,1.7-5.1,5.34-10.2,10.68-15.3,16.02-.52-.34-1.05-.68-1.57-1.02,1.28-2.24,2.56-4.48,3.84-6.71Z"/>
  <path class="cls-20" d="M141.53,248.7c-2.81.9-5.62,1.8-8.42,2.7,1.39-5.31,3.88-7.21,8.42-2.7Z"/>
  <path class="cls-4" d="M217.4,211.96c2.23-1.84,4.46-3.69,6.7-5.53,0,0,.34.31.34.31-2.28,1.82-4.56,3.64-6.83,5.47l-.2-.24Z"/>
  <path class="cls-3" d="M248.95,172.74c-.58-.57-1.16-1.13-1.75-1.7.51-.83,1.02-1.67,1.53-2.5.45-.43.91-.85,1.36-1.28.39-.24.8-.42,1.24-.53.5.61.99,1.21,1.49,1.82-1.29,1.4-2.58,2.8-3.87,4.2Z"/>
  <path class="cls-20" d="M130.4,255.44c.03,1.39.05,2.78.08,4.17-1.29.52-2.57,1.04-3.86,1.56-.17-.16-.33-.31-.5-.47,1.43-1.75,2.86-3.51,4.29-5.26Z"/>
  <path class="cls-4" d="M225.53,205.14c1.71-1.46,3.43-2.92,5.14-4.39,0,0,.42.43.42.43.01.46.03.93.04,1.39l-5.34,2.87-.26-.31Z"/>
  <path class="cls-20" d="M187.41,243.13c1.36-.9,2.72-1.81,4.08-2.71,0,0,.26.29.26.29-1.35.91-2.7,1.82-4.05,2.74,0,0-.29-.31-.29-.31Z"/>
  <path class="cls-20" d="M133.15,251.37c-.93,1.36-1.85,2.72-2.78,4.09.93-1.36,1.85-2.72,2.78-4.09Z"/>
  <path class="cls-25" d="M84.4,285.55c.83-1.41,1.66-2.82,2.48-4.22-.83,1.41-1.66,2.82-2.48,4.22Z"/>
  <path class="cls-20" d="M195.7,237.68c.06.53.12,1.06.18,1.6-1.37.47-2.75.94-4.12,1.42,0,0-.26-.28-.26-.29,1.4-.91,2.8-1.82,4.2-2.73Z"/>
  <path class="cls-3" d="M255.57,165.17c.46-1.14.91-2.27,1.37-3.41-.46,1.14-.91,2.27-1.37,3.41Z"/>
  <path class="cls-29" d="M252.82,168.54c-.5-.6-.99-1.21-1.49-1.82,1.18-.3,2.37-.59,3.55-.88-.69.9-1.38,1.8-2.06,2.7Z"/>
  <path class="cls-2" d="M84.73,306.56c-.14.1-.28.19-.42.29-.11-.21-.23-.43-.34-.64.18-.03.38-.12.52-.06.12.05.17.27.24.41Z"/>
  <path class="cls-4" d="M215.93,213.21c.49-.42.98-.84,1.47-1.25,0,0,.2.24.2.24-.45.44-.89.88-1.34,1.32l-.33-.31Z"/>
  <path class="cls-4" d="M230.67,200.75c.45-.45.9-.89,1.35-1.34,0,0,.42.41.42.41-.45.45-.9.9-1.36,1.35l-.42-.43Z"/>
  <path class="cls-4" d="M224.09,206.42c.48-.43.96-.86,1.44-1.29,0,0,.26.3.26.3-.45.43-.9.86-1.35,1.29l-.34-.31Z"/>
  <path class="cls-22" d="M205.19,119.53c6.28-4.55,12.56-9.11,18.85-13.66,6.42-2.27,12.84-4.54,19.26-6.8.92.52,1.84,1.04,2.77,1.56,0,.46-.02.91-.03,1.37-4.99,2.71-9.98,5.42-14.97,8.13-8.13,5.89-16.26,11.78-24.39,17.67-.91.94-1.82,1.87-2.73,2.81-.92,1.32-1.85,2.64-2.77,3.96-2.75,2.7-5.5,5.4-8.25,8.1-2.26-.44-4.52-.87-6.78-1.31,2.31-2.7,4.62-5.4,6.92-8.1,4.04-4.57,8.08-9.15,12.12-13.72Z"/>
  <path class="cls-16" d="M144.89,207.86c-4.8-.42-9.61-.84-14.41-1.26.99-4.13,1.45-8.5,3.19-12.28.87-1.9,3.97-2.99,6.27-3.95,2.14-.89,4.55-1.13,6.84-1.66,0,0,.66-.02.66-.02,0,0,.66.03.66.03,3.8.56,7.61,1.12,11.41,1.68-4.87,5.82-9.75,11.64-14.62,17.45Z"/>
  <path class="cls-3" d="M243.3,99.07c-6.42,2.27-12.84,4.54-19.26,6.8,7.39-5.29,14.77-10.57,22.16-15.85.43-.13.96-.14,1.26-.41,8.57-7.98,16.02-6.53,22.58,2.64,0,0,.52.21.52.21-.05.52-.11,1.03-.16,1.55-.8.81-1.6,1.61-2.4,2.42-.99.47-1.99.94-2.98,1.41,0,0,0-.02,0-.02-.44-.02-.88,0-1.32.06-1.37,0-2.74,0-4.11.01.03-1.39.05-2.78.08-4.17-1.83-3.77-3.7-3.73-5.59-.05-3.59,1.8-7.18,3.6-10.77,5.41Z"/>
  <path class="cls-13" d="M145.75,183.81c-2.59-7.21-.13-12.73,5.3-17.71,4.73-4.34,8.94-9.24,13.39-13.89.94,2.32,1.89,4.63,2.83,6.95-7.17,8.22-14.35,16.44-21.52,24.65Z"/>
  <path class="cls-29" d="M145.75,183.81c7.17-8.22,14.35-16.44,21.52-24.66,3.12-1.9,6.24-3.79,9.37-5.69.04.55.07,1.09.1,1.63-.43,1.32-.87,2.64-1.3,3.97-5.52,6.65-11.05,13.3-16.57,19.95-3.59,3.23-7.18,6.47-10.76,9.7,0,0-.66-.03-.66-.03,0,0-.66.02-.66.02-.34-1.64-.68-3.27-1.02-4.9Z"/>
  <path class="cls-30" d="M193.07,133.26c-2.31,2.7-4.62,5.4-6.92,8.1-2.7,2.71-5.4,5.43-8.1,8.14-.93-2.28-1.86-4.57-2.79-6.85,6.41-5.35,12.82-10.71,19.22-16.07-.47,2.22-.94,4.45-1.42,6.67Z"/>
  <path class="cls-24" d="M175.26,142.65c.93,2.28,1.86,4.57,2.79,6.85-.47,1.32-.94,2.65-1.41,3.97-3.12,1.9-6.24,3.79-9.36,5.69-.94-2.32-1.89-4.63-2.83-6.95,3.61-3.19,7.21-6.37,10.82-9.56Z"/>
  <path class="cls-4" d="M171.33,134.61c1.68-.5,3.36-1,5.04-1.49-2.17,2.59-4.11,5.42-6.56,7.7-4.31,4.02-8.93,7.7-13.42,11.52,1.33-2.3,2.66-4.59,3.99-6.89,3.65-3.61,7.3-7.23,10.95-10.84Z"/>
  <path class="cls-4" d="M131.86,182.14c1.81-3.15,3.63-6.3,5.44-9.45,3.16-4.1,6.32-8.2,9.48-12.31.58.07,1.16.14,1.73.21-5.54,8.57-11.08,17.13-16.63,25.7,0-1.38-.02-2.77-.02-4.15Z"/>
  <path class="cls-20" d="M193.02,116.9c2.61-.95,5.22-1.89,7.83-2.83-5.77,4.6-11.55,9.2-17.32,13.8,1.61-1.9,3.21-3.82,4.84-5.71,1.53-1.77,3.1-3.51,4.65-5.26Z"/>
  <path class="cls-29" d="M193.07,133.26c.47-2.22.94-4.45,1.42-6.67,3.57-2.35,7.14-4.7,10.71-7.05-4.04,4.57-8.08,9.15-12.12,13.72Z"/>
  <path class="cls-27" d="M127.45,201.92c-1.25,4.3-2.49,8.59-3.74,12.89.59-6.95-2.2-14.53,3.83-20.46,0,0,.68.02.68.02h.67c-.48,2.52-.96,5.03-1.44,7.55Z"/>
  <path class="cls-4" d="M128.89,194.37h-.67s-.67-.02-.68-.02c1.01-1.8,2.02-3.6,3.04-5.4-.56,1.81-1.13,3.62-1.69,5.43Z"/>
  <path class="cls-19" d="M176.74,131.97c.88-.95,1.76-1.91,2.64-2.86.05.54.1,1.08.14,1.62-.93.41-1.85.83-2.78,1.24Z"/>
  <path class="cls-20" d="M179.52,130.73c-.05-.54-.1-1.08-.14-1.62.95.01,1.89.03,2.84.05-.9.52-1.8,1.05-2.69,1.57Z"/>
  <path class="cls-4" d="M130.53,189.01c.47-.93.93-1.86,1.4-2.79-.47.93-.93,1.86-1.4,2.79Z"/>
  <path class="cls-20" d="M205.26,111.25c.62-.64,1.23-1.29,1.85-1.92-.61.65-1.23,1.28-1.85,1.92Z"/>
  <path class="cls-20" d="M182.16,129.2c-.02-.53-.04-1.06-.06-1.6.49.07.98.14,1.48.21-.47.46-.95.93-1.42,1.39Z"/>
  <path class="cls-4" d="M152.29,156.42c.47-.47.94-.94,1.4-1.42-.47.47-.94.94-1.4,1.42Z"/>
  <path class="cls-20" d="M218.86,101.78c.51-.35,1.03-.71,1.54-1.06-.51.35-1.03.71-1.54,1.06Z"/>
  <path class="cls-4" d="M153.65,155.05c.47-.47.93-.94,1.4-1.41-.47.47-.93.94-1.4,1.41Z"/>
  <path class="cls-4" d="M155,153.69c.47-.47.93-.94,1.4-1.41-.47.47-.93.94-1.4,1.41Z"/>
  <path class="cls-4" d="M150.19,156.77c.72-.13,1.44-.25,2.15-.38-.72.13-1.44.25-2.15.38Z"/>
  <path class="cls-15" d="M244.11,126.24c3.19-2.7,6.37-5.4,9.57-8.11,10.59.04,21.17.08,31.75.12.87.41,1.73.81,2.6,1.22-1.77,2.31-3.53,4.62-5.3,6.92-2.78,2.23-5.57,4.46-8.83,7.07-2.95-6.96-7.36-3.38-11.59-1.63-1.23-1.33-2.28-3.53-3.72-3.82-4.75-.96-9.65-1.23-14.49-1.77Z"/>
  <path class="cls-29" d="M271.88,87.02c-.13-11.96,7.36-17.32,19.94-14.49,4.66,1.05,9.47,1.46,14.12,2.53.65.15.79,2.47,1.17,3.78-2.2,2.33-4.41,4.67-6.61,7-8.16-3.76-14.75-1.73-20.61,5.19,1.47-3.5,2.94-7.01,4.41-10.51l-1.29-.72c-1.44,1.93-2.89,3.86-4.33,5.79-2.26.47-4.53.95-6.79,1.42Z"/>
  <path class="cls-6" d="M300.51,85.84c2.2-2.33,4.41-4.67,6.61-7-3.09,7.28-6.19,14.56-9.28,21.84-.54-.5-1.07-1-1.61-1.51,1.43-4.45,2.85-8.89,4.28-13.34Z"/>
  <path class="cls-22" d="M271.88,87.02c2.26-.47,4.53-.95,6.79-1.42-1.39,3.1-2.77,6.2-4.16,9.3-.46.99-.92,1.98-1.37,2.97l.06-.06c-.92,1.16-1.85,2.33-2.77,3.49l-.49.11s-.09.5-.09.5c-1.6.01-3.2.02-4.81.03,0-1.37-.02-2.74-.02-4.12,0,0,0,.02,0,.02.99-.47,1.99-.94,2.98-1.41.8-.81,1.6-1.61,2.41-2.42.05-.52.11-1.03.16-1.55,0,0-.52-.21-.52-.21.61-1.74,1.23-3.49,1.84-5.23Z"/>
  <path class="cls-22" d="M296.23,99.17c.54.5,1.07,1,1.61,1.51-3.27,6.26-6.54,12.53-9.81,18.79-.87-.41-1.74-.81-2.6-1.22,2.28-4.53,4.55-9.05,6.83-13.58,1.32-1.83,2.65-3.67,3.97-5.5Z"/>
  <path class="cls-26" d="M119.59,275.86c1.37-2.24,2.74-4.49,4.11-6.73-.24,4.71,2.8,4.26,5.89,3.73,4.63-.8,9.23-1.74,13.88-2.35,13.74-1.81,27.51-3.46,41.26-5.21,14.65-1.87,29.25-4.31,43.95-5.45,6.34-.49,8.68-2.35,7.81-8.4h0c.45,0,.9,0,1.34,0,.53,3.49,1.05,6.98,1.58,10.46,0,0-.18.53-.18.53-11.48,1.76-22.94,3.65-34.44,5.26-23.01,3.21-46.03,6.45-69.09,9.23-5.27.64-11.04,3.37-16.12-1.07Z"/>
  <path class="cls-14" d="M126.61,261.17c1.29-.52,2.57-1.04,3.86-1.56,9.5,3.4,18.46-.15,27.46-2.41,1.09-.27,1.63-2.72,2.42-4.15,4.53-.1,9.06-.21,13.59-.31,1.97.93,4.07,2.89,5.88,2.65,18.47-2.46,36.89-5.28,55.32-8,.38,0,.77,0,1.15-.02.09.86.17,1.71.26,2.57-.02.51-.04,1.02-.06,1.52,0,0,0,0,0,0-11.49,1.81-22.96,3.78-34.48,5.41-16.54,2.33-33.1,4.59-49.69,6.51-8.56.99-17.21,1.14-25.82,1.68.04-1.29.08-2.58.12-3.87Z"/>
  <path class="cls-5" d="M236.3,247.35c-.38.02-.77.02-1.15.02,0-.9-.02-1.8-.03-2.7.02-.54.04-1.08.06-1.62.45.09.9.18,1.35.28-.08,1.34-.15,2.69-.23,4.03Z"/>
  <path class="cls-5" d="M236.5,251.45c.02-.51.04-1.01.06-1.52.43.51.86,1.02,1.28,1.53-.45,0-.9,0-1.34,0Z"/>
  <path class="cls-30" d="M244.11,126.24c4.84.54,9.74.81,14.49,1.77,1.44.29,2.49,2.49,3.72,3.82-8.25,8.22-18.66,11.16-29.84,12.27-.97-1.89-1.94-3.78-2.91-5.67,4.85-4.06,9.69-8.13,14.54-12.19Z"/>
  <path class="cls-30" d="M263.79,149.47c-7.68-1.38-10.74,5.07-15.18,9.08-1.96,1.77-3.55,3.93-5.31,5.92-5.44-.02-10.89-.03-16.33-.05,2.75-2.23,5.5-4.46,8.26-6.69,4.15-2.61,8.28-5.26,12.47-7.81,7.98-4.87,15.99-9.68,23.98-14.51.57.61,1.13,1.23,1.7,1.84-3.19,4.07-6.39,8.14-9.58,12.22Z"/>
  <path class="cls-29" d="M235.22,157.73c-2.75,2.23-5.5,4.46-8.26,6.69-3.57-.05-7.15-.11-10.72-.17-.56-.82-1.12-1.65-1.68-2.47,1.43-3.17,2.86-6.34,4.29-9.5.99,4.52,3.76,6.08,8.3,5.46,2.64-.37,5.38-.03,8.08,0Z"/>
  <path class="cls-24" d="M218.85,152.28c-1.43,3.17-2.86,6.34-4.29,9.5-1.85-1.86-3.69-3.72-5.54-5.58,6.85-5.92,13.7-11.85,20.55-17.77.97,1.89,1.94,3.78,2.91,5.67-4.54,2.73-9.09,5.45-13.63,8.18Z"/>
  <path class="cls-9" d="M191.76,240.7c1.37-.47,2.75-.95,4.12-1.42,5.07,5.82,16.67,4.39,23-2.82,1.8,1,3.6,2,5.41,3.01,0,.82,0,1.65-.01,2.47-7.17,1.82-14.27,3.96-21.52,5.33-5.03.96-10.51,3.63-15.17-1.25.04-.86.08-1.73.13-2.59,1.35-.91,2.7-1.82,4.06-2.74Z"/>
  <path class="cls-14" d="M224.27,241.94c0-.82,0-1.65.01-2.47,3.63,1.19,7.26,2.39,10.89,3.58-.02.54-.04,1.08-.06,1.62-3.61-.91-7.23-1.82-10.84-2.73Z"/>
  <path class="cls-4" d="M230.1,224.73c-1.84,1.76-3.68,3.53-5.52,5.29,0,0-.46-.43-.46-.43.07-1.32.13-2.64.19-3.95,1.73-.52,3.46-1.04,5.2-1.56.2.21.4.43.59.65Z"/>
  <path class="cls-27" d="M233.81,221.81c-.41.36-.81.73-1.22,1.09-.98-.04-1.95-.07-2.92-.11,0-.87,0-1.75,0-2.62,1.27-.07,2.55-.14,3.82-.22.1.62.21,1.24.31,1.86Z"/>
  <path class="cls-4" d="M229.67,222.79c.97.04,1.95.07,2.92.11-.83.61-1.66,1.21-2.49,1.82-.19-.22-.38-.44-.58-.65.07-.42.12-.85.15-1.28Z"/>
  <path class="cls-4" d="M233.81,221.81c-.1-.62-.21-1.24-.31-1.85.43.02.84-.03,1.25-.15.19.19.38.38.57.57-.5.48-1.01.95-1.51,1.43Z"/>
  <path class="cls-4" d="M224.59,230.02c-.48.43-.96.87-1.43,1.3,0,0-.33-.35-.33-.35.44-.46.87-.92,1.31-1.38l.46.43Z"/>
  <path class="cls-4" d="M223.15,231.33c-.47.44-.94.87-1.41,1.31,0,0-.27-.29-.27-.29l1.35-1.37.33.35Z"/>
  <path class="cls-4" d="M221.74,232.64c-.47.41-.95.81-1.42,1.22,0,0-.36-.05-.36-.05.51-.49,1.01-.97,1.51-1.46l.27.29Z"/>
  <path class="cls-29" d="M292.26,104.68c-2.28,4.53-4.55,9.05-6.83,13.58-10.58-.04-21.17-.08-31.75-.12.16-.9.32-1.8.49-2.69,0,0-.06.08-.06.08,1.84-1.35,3.68-2.7,5.52-4.05,3.41-3.19,6.82-6.39,10.23-9.58l.09-.5s.49-.11.49-.11c.48-.22.95-.45,1.43-.67,2.3.89,4.52,2.18,6.9,2.59,4.45.76,8.99,1,13.5,1.46Z"/>
  <path class="cls-13" d="M209.02,156.21c1.85,1.86,3.7,3.72,5.54,5.58.56.82,1.12,1.65,1.68,2.47-1.82,7.12-8.2,7.8-13.7,9.74l-8.4-4.14c4.96-4.55,9.92-9.1,14.88-13.65Z"/>
  <path class="cls-28" d="M194.14,169.86c2.8,1.38,5.6,2.76,8.4,4.14-.48.88-.96,1.76-1.44,2.64-7.28,4.37-14.68,8.57-21.75,13.26-1.5,1-1.79,3.82-2.63,5.8-1.39-.9-2.77-1.81-4.16-2.71,7.19-7.71,14.38-15.42,21.57-23.13Z"/>
  <path class="cls-22" d="M254.16,115.44c-1.39-.15-2.78-.29-4.17-.44,0-.76,0-1.53.01-2.29,0,0,.04.07.04.07.46-.91.91-1.82,1.37-2.74,0,0-.02,0-.02,0,2.55-.93,5.11-1.86,7.66-2.79-.38.88-.76,1.76-1.14,2.64-1.27,1.87-2.54,3.74-3.82,5.61,0,0,.06-.08.06-.08Z"/>
  <path class="cls-22" d="M239.25,123.92c1.37-1.86,2.75-3.72,4.12-5.58.96,0,1.93,0,2.89,0-2.34,1.86-4.68,3.72-7.02,5.58Z"/>
  <path class="cls-23" d="M246.27,118.33c-.96,0-1.93,0-2.89,0-.18-.22-.36-.45-.54-.67.92-.85,1.83-1.71,2.75-2.56.59.35,1.19.7,1.78,1.04-.37.73-.73,1.46-1.1,2.19Z"/>
  <path class="cls-23" d="M250,112.71c0,.76,0,1.52-.01,2.29-.66.16-1.31.31-1.97.46-.37-.55-.73-1.1-1.1-1.65.11-.41.19-.82.24-1.24.94.04,1.89.09,2.83.13Z"/>
  <path class="cls-23" d="M248.03,115.46c-.2.26-.43.48-.68.69-.58-.35-1.17-.7-1.77-1.04.45-.43.9-.86,1.34-1.29.37.55.73,1.1,1.1,1.65Z"/>
  <path class="cls-10" d="M119.59,275.86c5.08,4.44,10.85,1.7,16.12,1.07,23.07-2.78,46.08-6.02,69.09-9.23,11.5-1.6,22.96-3.5,34.44-5.26.16,3.65-1.57,4.93-5.22,5.43-17.07,2.33-34.07,5.14-51.13,7.55-20.6,2.92-41.22,5.67-61.86,8.27-1.27.16-2.79-1.6-4.2-2.47.92-1.79,1.83-3.58,2.75-5.37Z"/>
  <path class="cls-15" d="M246.93,113.81c-.45.43-.89.86-1.34,1.29-.92.85-1.83,1.71-2.75,2.56-5.52,3.4-11.03,6.81-16.55,10.21-6.54-.03-13.07-.05-19.61-.08,8.13-5.89,16.26-11.78,24.39-17.67,1.73.9,3.41,2.39,5.21,2.57,3.6.34,7.26-.04,10.9-.12-.05.42-.13.83-.24,1.24Z"/>
  <path class="cls-13" d="M158.86,179.03c5.52-6.65,11.05-13.3,16.57-19.95,4.71.03,9.41.06,14.12.09-7.37,7.23-14.74,14.46-22.11,21.68-2.86-.61-5.72-1.21-8.58-1.82Z"/>
  <path class="cls-30" d="M206.68,127.8c6.53.03,13.07.05,19.61.08-6.76,5.43-13.52,10.87-20.29,16.3-4.32-.03-8.64-.06-12.96-.09-.04-.48-.08-.95-.12-1.42,2.75-2.7,5.5-5.4,8.25-8.1.92-1.32,1.85-2.64,2.77-3.96.91-.94,1.82-1.87,2.73-2.81Z"/>
  <path class="cls-24" d="M193.04,144.09c4.32.03,8.64.06,12.96.09-5.48,4.99-10.97,9.99-16.45,14.98-4.7-.03-9.41-.06-14.12-.09.44-1.32.87-2.64,1.31-3.97,2.74-1.84,5.49-3.69,8.23-5.53,1.79-1.3,3.58-2.61,5.38-3.91.9-.52,1.8-1.05,2.69-1.57Z"/>
  <path class="cls-28" d="M158.86,179.03c2.86.61,5.72,1.21,8.58,1.82-2.64,3.19-5.29,6.37-7.93,9.56-3.8-.56-7.61-1.12-11.41-1.68,3.59-3.23,7.18-6.47,10.76-9.7Z"/>
  <path class="cls-24" d="M201.11,176.64c.48-.88.96-1.76,1.44-2.64,5.5-1.94,11.88-2.62,13.7-9.74,3.58.05,7.15.11,10.73.16,5.44.02,10.89.03,16.33.05-4.83,9.65-12.54,15.31-23.33,16.24-4.99.43-10.08.47-15.06.01-1.38-.13-2.54-2.66-3.8-4.08Z"/>
  <path class="cls-29" d="M250.09,167.26c-.45.43-.91.85-1.36,1.28.45-.43.91-.85,1.36-1.28Z"/>
  <path class="cls-28" d="M175.33,210.69c-.19-.1-.37-.21-.56-.31.19.1.38.19.58.29,0,0-.02.02-.02.02Z"/>
  <path class="cls-8" d="M221.47,232.35c-.5.49-1,.97-1.51,1.46-3.28.44-6.58,1.35-9.81,1.17-2.57-.14-5.06-1.62-7.59-2.5.03-.93.06-1.86.09-2.79.42-.89.84-1.79,1.25-2.69,6.81-.45,13.61-.9,20.42-1.35-.06,1.32-.13,2.64-.19,3.95-.44.46-.87.92-1.31,1.38-.45.46-.9.91-1.35,1.37Z"/>
  <path class="cls-7" d="M234.75,219.81c-.41.12-.82.17-1.25.15-1.28.07-2.55.14-3.83.21-5.47-.52-11.42,4.5-16.42-1.42,1-1.75,2-3.49,3-5.23.45-.44.89-.88,1.34-1.32,2.28-1.82,4.56-3.64,6.83-5.46.45-.43.9-.86,1.36-1.29,1.78-.95,3.56-1.91,5.34-2.87,1.73.03,3.47.05,5.2.08-.52,5.72-1.05,11.44-1.57,17.16Z"/>
  <path class="cls-12" d="M213.25,218.75c5,5.92,10.95.91,16.42,1.42,0,.88,0,1.75-.01,2.62-.03.43-.08.86-.15,1.28-1.73.52-3.47,1.04-5.2,1.56-6.8.45-13.61.9-20.42,1.35-.42-.02-.84-.03-1.26-.04-1.23-2.27-2.46-4.54-4.43-8.2h15.04Z"/>
  <path class="cls-11" d="M202.65,226.95c.42.01.84.02,1.26.04-.42.9-.84,1.79-1.25,2.69,0-.91,0-1.82,0-2.73Z"/>
  <path class="cls-19" d="M224.27,241.94c3.61.91,7.23,1.82,10.84,2.73,0,.9.02,1.8.03,2.7-18.43,2.72-36.85,5.54-55.32,8-1.81.24-3.91-1.71-5.88-2.65,4.55-2.24,9.09-4.47,13.64-6.71,4.67,4.88,10.15,2.21,15.17,1.25,7.25-1.38,14.35-3.52,21.52-5.33Z"/>
  <path class="cls-5" d="M126.49,265.03c8.61-.53,17.26-.69,25.82-1.68,16.59-1.91,33.15-4.18,49.69-6.51,11.52-1.62,22.99-3.59,34.48-5.41.87,6.06-1.47,7.91-7.81,8.4-14.7,1.13-29.3,3.58-43.95,5.45-13.75,1.76-27.52,3.41-41.26,5.21-4.65.61-9.26,1.56-13.88,2.35-3.09.53-6.12.98-5.89-3.73.93-1.37,1.86-2.73,2.79-4.1Z"/>
  <path class="cls-27" d="M236.32,202.65c-1.73-.03-3.47-.05-5.2-.08-.01-.46-.03-.93-.04-1.39.45-.45.9-.9,1.36-1.35,1.3.94,2.59,1.88,3.89,2.82Z"/>
  <path class="cls-29" d="M247.17,112.58c-3.64.08-7.3.46-10.9.12-1.8-.17-3.48-1.67-5.21-2.57,4.99-2.71,9.98-5.42,14.97-8.13,2.7,1.31,5.41,2.62,8.11,3.93-.92,1.38-1.84,2.75-2.76,4.13,0,0,.02,0,.02,0-.46.91-.91,1.82-1.37,2.74,0,0-.04-.07-.04-.07-.94-.05-1.89-.09-2.83-.14Z"/>
  <path class="cls-3" d="M184.97,149.57c-2.74,1.84-5.49,3.69-8.23,5.53-.03-.54-.07-1.09-.1-1.63.47-1.32.94-2.65,1.41-3.97,2.7-2.71,5.4-5.43,8.1-8.14,2.26.44,4.52.88,6.78,1.31.04.47.08.95.12,1.42-.9.52-1.8,1.05-2.69,1.57-1.79,1.3-3.58,2.61-5.38,3.91Z"/>
  <path class="cls-6" d="M259.67,93.71c-.03,1.39-.05,2.78-.08,4.17-.02.37-.03.73-.03,1.1-4.5.55-9,1.09-13.49,1.64-.92-.52-1.84-1.04-2.77-1.56,3.59-1.8,7.18-3.61,10.77-5.41,1.86.02,3.73.03,5.59.05Z"/>
  <path class="cls-3" d="M246.06,100.63c4.5-.55,9-1.09,13.49-1.64.46.53.92,1.06,1.38,1.59-2.26,1.78-4.52,3.56-6.79,5.35-2.7-1.31-5.41-2.62-8.11-3.93,0-.46.02-.91.03-1.37Z"/>
  <path class="cls-15" d="M203.95,130.61c-.92,1.32-1.85,2.64-2.77,3.96.92-1.32,1.85-2.64,2.77-3.96Z"/>
  <path class="cls-23" d="M254.15,105.93c2.26-1.78,4.52-3.56,6.79-5.35.92-.9,1.84-1.8,2.76-2.7.44-.06.88-.08,1.32-.06,0,1.37.02,2.74.02,4.12-1.99,1.78-3.99,3.56-5.98,5.34-2.55.93-5.11,1.86-7.66,2.79.92-1.38,1.84-2.75,2.76-4.13Z"/>
  <path class="cls-22" d="M259.67,93.71c-1.86-.02-3.73-.03-5.59-.05,1.9-3.69,3.76-3.72,5.59.05Z"/>
  <path class="cls-22" d="M263.7,97.88c-.92.9-1.84,1.8-2.76,2.7-.46-.53-.92-1.06-1.38-1.59,0-.37.01-.74.03-1.1,1.37,0,2.74,0,4.11,0Z"/>
  <path class="cls-23" d="M267.99,96.42c-.99.47-1.99.94-2.98,1.41.99-.47,1.99-.94,2.98-1.41Z"/>
  <path class="cls-23" d="M270.56,92.46c-.05.51-.11,1.03-.16,1.55.05-.51.11-1.03.16-1.55Z"/>
  <path class="cls-3" d="M292.26,104.68c-4.5-.46-9.05-.7-13.5-1.46-2.38-.41-4.61-1.7-6.9-2.59.45-.94.9-1.88,1.35-2.82,0,0-.06.06-.06.06.46-.99.92-1.98,1.37-2.97,1.39-3.1,2.77-6.2,4.16-9.3,1.45-1.93,2.89-3.86,4.33-5.8l1.29.72c-1.47,3.5-2.94,7.01-4.41,10.51,5.86-6.92,12.45-8.95,20.61-5.19-1.42,4.45-2.85,8.89-4.28,13.34-1.32,1.83-2.65,3.67-3.97,5.5Z"/>
  <path class="cls-16" d="M259.05,107.27c1.99-1.78,3.99-3.56,5.98-5.34,1.6-.01,3.2-.02,4.81-.03-3.41,3.19-6.82,6.39-10.23,9.58-.57-.52-1.13-1.05-1.7-1.57l1.14-2.64Z"/>
  <path class="cls-16" d="M273.2,97.8c-.45.94-.9,1.88-1.35,2.82-.48.22-.95.45-1.43.67.92-1.16,1.85-2.33,2.77-3.49Z"/>
  <path class="cls-16" d="M274.51,94.9c-.46.99-.92,1.98-1.37,2.97.46-.99.92-1.98,1.37-2.97Z"/>
  <path class="cls-2" d="M257.91,109.9c.57.52,1.13,1.05,1.7,1.57-1.84,1.35-3.68,2.7-5.52,4.05,1.27-1.87,2.54-3.74,3.82-5.61Z"/>
  <path class="cls-23" d="M250.04,112.79c.46-.91.91-1.82,1.37-2.74-.46.91-.91,1.82-1.37,2.74Z"/>
  <path class="cls-30" d="M184.97,149.57c1.79-1.31,3.58-2.61,5.38-3.91-1.79,1.31-3.58,2.61-5.38,3.91Z"/>
</svg>