<?xml version="1.0" encoding="UTF-8"?>
<svg id="Layer_1" data-name="Layer 1" xmlns="http://www.w3.org/2000/svg" version="1.1" viewBox="0 0 348 348">
  <defs>
    <style>
      .cls-1 {
        fill: #201903;
      }

      .cls-1, .cls-2, .cls-3, .cls-4, .cls-5, .cls-6, .cls-7, .cls-8, .cls-9, .cls-10, .cls-11, .cls-12, .cls-13, .cls-14, .cls-15, .cls-16, .cls-17, .cls-18, .cls-19, .cls-20, .cls-21, .cls-22, .cls-23, .cls-24, .cls-25, .cls-26, .cls-27, .cls-28, .cls-29 {
        stroke-width: 0px;
      }

      .cls-2 {
        fill: #907d4b;
      }

      .cls-3 {
        fill: #447083;
      }

      .cls-4 {
        fill: #2f85b6;
      }

      .cls-5 {
        fill: #ba9b61;
      }

      .cls-6 {
        fill: #03557d;
      }

      .cls-7 {
        fill: #0e618b;
      }

      .cls-8 {
        fill: #1f73a3;
      }

      .cls-9 {
        fill: #3d93cb;
      }

      .cls-10 {
        fill: #146794;
      }

      .cls-11 {
        fill: #0a5c86;
      }

      .cls-12 {
        fill: #544311;
      }

      .cls-13 {
        fill: #297bab;
      }

      .cls-14 {
        fill: #776634;
      }

      .cls-15 {
        fill: #332701;
      }

      .cls-16 {
        fill: #1a1f35;
      }

      .cls-17 {
        fill: #373840;
      }

      .cls-18 {
        fill: #2378a9;
      }

      .cls-19 {
        fill: #548ba6;
      }

      .cls-20 {
        fill: #1a6d9d;
      }

      .cls-21 {
        fill: #a78e5a;
      }

      .cls-22 {
        fill: #c5a266;
      }

      .cls-23 {
        fill: #5f4e19;
      }

      .cls-24 {
        fill: #489fdc;
      }

      .cls-25 {
        fill: #358bc0;
      }

      .cls-26 {
        fill: #1f6484;
      }

      .cls-27 {
        fill: #3e3109;
      }

      .cls-28 {
        fill: #877443;
      }

      .cls-29 {
        fill: #6a5a26;
      }
    </style>
  </defs>
  <path class="cls-16" d="M77.4,303.4c-15.5-15.5-24.5-34.6-29.8-55.4-6.4-25.1-5.7-50,1.5-75,3.4-11.6,5.2-23.8,6.6-35.9.7-5.8,2-10.2,6.7-13.8,3.9-2.9,7.2-6.7,12.2-11.5-5.4-1.8-9.7-2.6-13.5-4.5-2.6-1.3-5.9-3.8-6.4-6.3-3.2-14.9-7.3-29.4-15.3-42.5-.3-.5-.2-1.3-.3-2.7,18-2,36-4,53.9-6,39.8-4.3,79.5-8.6,119.3-12.6,2.9-.3,7.2,1.6,9,3.9,10.1,13.3,17.1,28.1,20.3,44.6-1.1,0-2.3.1-3.4.2-.3-.2-.6-.3-.9-.4-.7-.9-1.4-1.9-2.1-2.8,0-.8-.2-1.6-.3-2.4-.8-2.8-1.6-5.7-2.4-8.5-1.4-2.7-2.8-5.3-4.2-8-.8-2-1.6-3.9-2.4-5.9-.5-1.2-1.1-2.5-1.6-3.7-1-1.8-2-3.5-3-5.2-2.5-2.6-5.2-7.4-7.6-7.3-13.5.5-26.9,2.2-40.4,3.6-24.2,2.6-48.4,5.2-72.6,7.8-18.3,2-36.6,4-56,6.2,2.3,4.5,4.4,8.7,6.5,12.8.8,2.3,1.7,4.6,2.5,6.9.2,1.3.4,2.6.6,3.9.5,1.8,1,3.6,1.4,5.4.5,1.8.9,3.6,1.4,5.5-.8,8.8,5.2,10.2,11.9,10.9,4.6,1.3,9.1,2.6,13.7,3.9-2.5,3.1-5.1,6.2-7.6,9.2-2.6,2.3-5.2,4.7-7.8,7-1.9,1.8-3.7,3.6-5.6,5.4-.6,2.8-1.2,5.6-1.8,8.3-.2,2.2-.4,4.5-.6,6.7-.4,3.2-.8,6.4-1.2,9.6-.5,3.1-1,6.1-1.5,9.2-1.2,4.2-2.5,8.4-3.7,12.5-1,4.1-2.1,8.1-3.1,12.2-4.1,18.4-3.5,36.6,1.4,54.7.5,1.8.9,3.6,1.4,5.4.5,1.8,1,3.5,1.5,5.3l2.5,7.1c.5,1.3,1,2.6,1.5,3.9,1,2.2,1.9,4.4,2.9,6.6.5.9,1,1.8,1.4,2.7,1.3,2.2,2.6,4.5,3.9,6.8,3.1,4.6,6.3,9.3,9.4,13.9,1.4,1.4,2.8,2.8,4.2,4.2-.9,1.3-1.8,2.6-2.7,4h0Z"/>
  <path class="cls-27" d="M77.4,303.4c.9-1.3,1.8-2.6,2.7-4,1.5-4.6,2.9-9.2,4.4-13.8h0c.8-1.5,1.7-2.9,2.5-4.3,1.5-2.2,3.1-4.5,4.6-6.7,1.3-2.3,2.7-4.5,4-6.8.8-1.4,1.6-2.8,2.3-4.2,1.3-1.8,2.7-3.6,4-5.4,1.3-2.3,2.7-4.5,4-6.8,1.4-1.8,2.8-3.6,4.2-5.5,1.9-2.7,3.8-5.4,5.6-8.1,3.1-4.6,6.2-9.1,9.3-13.6,1.9.5,3.8,1,5.7,1.5.1.8.2,1.5.3,2.3-.6,1.3-1.2,2.6-1.8,3.9-18.9,19.1-32,42.1-45.2,65.2-.3.6,1,2.1,1.6,3.2,0,3.7,1.3,5.4,4.7,2.6,1.7-1.4,3.3-3.1,4.6-4.9,8.7-13.1,17.1-26.4,25.9-39.3,4.7-6.8,10.1-13.1,15.1-19.6,6.9,1.8,13.6,4.6,20.6,5.3,12.5,1.2,23.6-3.4,33.7-10.6,2-1.4,3.9-2.8,6.5-4.5-7.3-6.4-14.4-12.5-21.5-18.6h0c7.2.4,14.3.9,21.5,1.2,3.4.1,7.7,1.2,10-.4,8.4-6.1,16.2-13.1,24.2-19.8-.4-.5-.7-1-1.1-1.5-3.5,1.5-6.9,3.1-10.4,4.6-5.2-.6-10.5-1.2-15.7-1.8,7.1-3.1,14.1-6.4,21.3-9.3,3.4-1.3,7.2-1.8,10.8-2.6-1.3,2.2-2.6,4.5-3.8,6.7.5.3,1.1.7,1.6,1,5.1-5.3,10.2-10.7,15.3-16,1.3-1.4,2.6-2.8,3.9-4.2.7-.9,1.4-1.8,2.1-2.7.3-.1.6-.4.7-.7.5-1.1.9-2.3,1.4-3.4h0c1.8-1.6,3.7-3.2,5.4-4.9,4.2-4.1,8.4-8.1,12.5-12.2-.2,1.5,0,3.3-.8,4.4-9.8,12.4-19.8,24.8-29.8,37.1-6.7-.1-4.5,6-6.5,9.3-1.9,1.3-3.9,2.6-5.8,4-.4.4-.9.9-1.4,1.3-1.7,1.5-3.4,2.9-5.1,4.4-.5.4-1,.9-1.4,1.3-2.2,1.8-4.5,3.7-6.7,5.5-.5.4-1,.8-1.5,1.2-8,1.4-16,2.8-25.5,4.5,2.5,2.3,4.4,4.3,6.6,5.8,3.4,2.3,5.3,4.9,2.9,9-1.4,1.8-2.8,3.5-4.2,5.2-1.4.9-2.8,1.8-4.2,2.7-1.4.9-2.7,1.8-4.1,2.7-13.8,6.8-27.9,11.5-43.3,5.7-.9,0-1.7,0-2.6,0-4.5-4.5-7-2.6-8.4,2.7h0c-.9,1.3-1.9,2.7-2.8,4.1h0c-1.4,1.7-2.9,3.5-4.3,5.2-5.4,7.8-10.7,15.6-16.1,23.4-4.3,6.5-8.6,13-13.2,20,1.9.3,3,.5,4,.6.4.4.8.8,1.2,1.2-.4.5-.8.9-1.2,1.3-5.1,1.9-10.2,3.8-15.3,5.6-3.6,1.3-6,.3-6.8-3.8-.3-1.9-.9-3.8-1.3-5.7h0ZM84.7,306.6c0-.1-.1-.4-.2-.4-.1,0-.3,0-.5,0,.1.2.2.4.3.6l.4-.3Z"/>
  <path class="cls-27" d="M238.1,85.9c1.1,0,2.3-.1,3.4-.2.6.4,1.2.9,1.9,1.3.9,1,1.9,2,2.8,3-7.4,5.3-14.8,10.6-22.2,15.8-6.3,4.6-12.6,9.1-18.8,13.7-3.6,2.3-7.1,4.7-10.7,7.1-6.4,5.4-12.8,10.7-19.2,16.1-3.6,3.2-7.2,6.4-10.8,9.6-4.4,4.6-8.6,9.6-13.4,13.9-5.4,5-7.9,10.5-5.3,17.7.3,1.6.7,3.3,1,4.9-2.3.5-4.7.8-6.8,1.7-2.3,1-5.4,2.1-6.3,3.9-1.7,3.8-2.2,8.1-3.2,12.3-.8.5-1.6,1.1-2.6,1.8-.2-2.5-.3-4.5-.5-6.4l1.4-7.6,1.7-5.4h0c.5-.9.9-1.8,1.4-2.7h0c5.5-8.5,11.1-17.1,16.6-25.6.6-1.3,1.1-2.6,1.7-3.8.7-.1,1.4-.2,2.1-.4h0c.5-.4.9-.9,1.4-1.4h0c.5-.4.9-.9,1.4-1.4h0c.5-.4.9-.9,1.4-1.4h0c4.5-3.8,9.1-7.4,13.4-11.5,2.4-2.3,4.4-5.1,6.6-7.7.2-.4.3-.7.4-1.1.9-.4,1.9-.8,2.8-1.2.9-.5,1.8-1.1,2.7-1.6h0c.5-.4.9-.9,1.4-1.3h0c5.8-4.5,11.6-9.1,17.3-13.7.2-.4.4-.7.6-1.1,1.2-.6,2.5-1.2,3.8-1.7l1.9-1.9h0c3.9-2.6,7.8-5.1,11.7-7.6.5-.3,1-.7,1.5-1.1,0,0,0,.1,0,0,5.4-3,10.9-5.8,16-9.2,1.3-.9,1.2-3.8,1.8-5.8h0Z"/>
  <path class="cls-12" d="M246.2,90c-.9-1-1.9-2-2.8-3,3.4-2.2,6.9-4.3,10.2-6.7,4.4-3.1,8.7-5.4,13,.6,2.1-13.2,14.8-14.8,28.6-12.9,4.6.6,9.3,1.3,13.9,1.6,5.4.4,7.5,3.1,5,8.1-8.3,16.2-17,32.3-25.6,48.5-.6-.5-1.1-.9-1.7-1.3,0,0-.2.3-.4.5.6.4,1.3.8,1.9,1.1-1.4,2.3-2.7,4.6-4.1,7-6.3-1.1.5-5-1.5-7,1.8-2.3,3.5-4.6,5.3-6.9,3.3-6.3,6.5-12.5,9.8-18.8,3.1-7.3,6.2-14.6,9.3-21.8-.4-1.3-.5-3.6-1.2-3.8-4.6-1.1-9.5-1.5-14.1-2.5-12.6-2.8-20.1,2.5-19.9,14.5-.6,1.7-1.2,3.5-1.9,5.2-6.6-9.2-14-10.6-22.6-2.6-.3.3-.8.3-1.3.4h0Z"/>
  <path class="cls-16" d="M102.1,305.9c-.4-.4-.8-.8-1.2-1.2,1.7-.5,3.4-1.2,5.2-1.4,33.6-4.9,67.3-9.9,100.9-14.7,14.2-2,28.4-3.9,42.5-5.9-3.4-7.1-6.7-13.9-10-20.8-.5-3.5-1.1-7-1.6-10.5-.4-.5-.9-1-1.3-1.5,0-.9-.2-1.7-.3-2.6,0-1.3.1-2.7.2-4,1.3-.5,2.7-.9,4-1.4,1,6.9,2,13.8,3.1,20.7,1.3,8.6,6.9,14.6,12.6,20.5-.2.7-.5,1.4-.7,2-4.6.8-9.3,1.5-13.9,2.2-1.7.3-3.4.6-5.1.9-1.5.1-3,.3-4.5.5-1.7.3-3.4.6-5.1.9-1.1,0-2.1.2-3.2.3-4.8.8-9.6,1.5-14.4,2.3-1.1.1-2.2.2-3.4.4-2.1.3-4.1.6-6.2,1-1.5.2-3,.4-4.5.6-1.7.2-3.4.5-5,.7-5.1.7-10.2,1.4-15.3,2.1-1.2.2-2.5.5-3.7.7-1.5.2-3,.3-4.5.5-1.7.3-3.4.6-5,.9-1.1,0-2.2.2-3.3.3-7.9,1.2-15.9,2.4-23.9,3.6-1.5.2-3,.4-4.5.6-1.7.2-3.3.5-5,.7-1.9.3-3.9.5-5.8.8-1.7.3-3.4.5-5.1.8-1,0-2.1.2-3.1.3-3-.1-6-.2-8.9-.4h0Z"/>
  <path class="cls-2" d="M282.7,126.4c2.1,2-4.7,5.9,1.5,7-1.4,2.2-2.8,4.4-4.2,6.6-3.6-.8-5.8.3-5.3,4.4v.2c-4.1,4.1-8.2,8.2-12.4,12.2-1.8,1.7-3.6,3.3-5.4,4.9,2.3-4.1,4.6-8.2,6.9-12.3,3.2-4.1,6.4-8.1,9.6-12.2-.6-.6-1.1-1.2-1.7-1.8-8,4.8-16,9.6-24,14.5-4.2,2.6-8.3,5.2-12.5,7.8-2.7,0-5.4-.4-8.1,0-4.5.6-7.3-.9-8.3-5.5,4.5-2.7,9.1-5.4,13.6-8.2,11.2-1.1,21.6-4.1,29.8-12.3,4.2-1.8,8.6-5.3,11.6,1.6,3.3-2.6,6-4.8,8.8-7.1h0Z"/>
  <path class="cls-17" d="M240.5,241.9c-1.3.5-2.7.9-4,1.4-.4,0-.9-.2-1.4-.3-3.6-1.2-7.3-2.4-10.9-3.6-1.8-1-3.6-2-5.4-3,.5-.9,1-1.7,1.4-2.6.5-.4.9-.8,1.4-1.2.5-.4.9-.9,1.4-1.3.5-.4,1-.9,1.4-1.3,1.8-1.8,3.7-3.5,5.5-5.3.8-.6,1.7-1.2,2.5-1.8.4-.4.8-.7,1.2-1.1.5-.5,1-.9,1.5-1.4.8-2.4,2-4.8,2.3-7.3.8-5.3,1.1-10.7,1.6-16,.9,0,1.8,0,2.8,0-.5,7.2-.6,14.4-1.6,21.6-.3,2.3-2.7,4.4-4.4,6.3-2.9,3.1-6.1,5.8-10,9.4,4.2,1.3,7.7,2,10.8,3.4,1.6.7,2.5,2.8,3.8,4.2h0Z"/>
  <path class="cls-17" d="M134.6,303c7.9-1.2,15.9-2.4,23.9-3.6-7.9,1.2-15.9,2.4-23.9,3.6Z"/>
  <path class="cls-12" d="M242,197.1c-.9,0-1.8,0-2.8,0-.5-.6-1-1.1-1.5-1.6,2-3.2-.2-9.4,6.5-9.3-.8,3.6-1.5,7.2-2.2,10.9h0Z"/>
  <path class="cls-17" d="M209.3,292.2c4.8-.8,9.6-1.5,14.4-2.3-4.8.8-9.6,1.5-14.4,2.3Z"/>
  <path class="cls-17" d="M102.1,305.9c3,.1,6,.2,8.9.4-3.4.3-6.8.6-10.1,1,.4-.5.8-.9,1.2-1.3h0Z"/>
  <path class="cls-27" d="M274.8,144.4c-.4-4.1,1.7-5.2,5.3-4.4-1.8,1.5-3.6,2.9-5.3,4.4Z"/>
  <path class="cls-17" d="M199.8,293.6c2.1-.3,4.1-.6,6.2-1-2.1.3-4.1.6-6.2,1Z"/>
  <path class="cls-17" d="M227,289.7c1.7-.3,3.4-.6,5.1-.9-1.7.3-3.4.6-5.1.9Z"/>
  <path class="cls-17" d="M190.3,294.9c1.7-.2,3.3-.5,5-.7-1.7.2-3.3.5-5,.7Z"/>
  <path class="cls-17" d="M161.7,299.1c1.7-.3,3.4-.6,5-.9-1.7.3-3.4.6-5,.9Z"/>
  <path class="cls-17" d="M236.5,288.3c1.7-.3,3.4-.6,5.1-.9-1.7.3-3.4.6-5.1.9Z"/>
  <path class="cls-17" d="M125.1,304.4c1.7-.2,3.3-.5,5-.7-1.7.2-3.3.5-5,.7Z"/>
  <path class="cls-17" d="M114.1,306c1.7-.3,3.4-.6,5.1-.8-1.7.3-3.4.6-5.1.8Z"/>
  <path class="cls-17" d="M171.3,297.8c1.2-.2,2.5-.5,3.7-.7-1.2.2-2.5.5-3.7.7Z"/>
  <path class="cls-27" d="M288.4,126.4c-.6-.4-1.3-.8-1.9-1.1.1-.2.4-.5.4-.5.6.4,1.2.9,1.7,1.3l-.2.3Z"/>
  <path class="cls-17" d="M255.5,285.2c.2-.7.4-1.4.7-2-.2.7-.4,1.4-.7,2Z"/>
  <path class="cls-6" d="M51.4,243.6c-4.8-18.1-5.5-36.4-1.4-54.7,2.4-.4,4.8-.9,7.3-1.2,19.1-2.7,38.2-5.9,57.4-7.7,5.4-.5,12.4-5.5,17.1,2.3,0,1.4,0,2.8,0,4.1h0c-.5.9-.9,1.8-1.4,2.7h0c-1,1.7-2,3.5-3,5.3-6,5.9-3.2,13.5-3.8,20.5,0,.4-.1.9-.3,1.3-.4,1-1,2-1.1,3.1-.8,9.9-3.2,13.2-12.9,14.9-9.5,1.6-19.1,2.3-28.6,3.9-9.8,1.6-19.6,3.7-29.4,5.6h0Z"/>
  <path class="cls-6" d="M51.4,72.1c-2.1-4.1-4.2-8.3-6.5-12.8,19.4-2.1,37.7-4.2,56-6.2,24.2-2.6,48.4-5.3,72.6-7.8,13.4-1.4,26.9-3.1,40.4-3.6,2.4,0,5.1,4.8,7.6,7.3-4.5.5-8.9.9-13.4,1.6-25.1,3.5-50.2,7.1-75.3,10.6-27.1,3.7-54.2,7.3-81.3,11h0Z"/>
  <path class="cls-25" d="M218.9,101.8c-3.9,2.5-7.8,5-11.7,7.5,1.2-2.5,2.3-4.9,4.1-8.6-3.6.2-5.9,0-8.2.4-10.2,1.6-20.3,3.4-30.5,4.9-19.7,2.8-39.4,5.6-59.1,8-12.7,1.6-25.4,2.7-38.1,3.9,2.5-3.1,5.1-6.2,7.6-9.2.5-.4,1.1-1,1.6-1.1,23.6-3.3,47.1-6.5,70.7-9.7,26.6-3.6,53.2-7.3,79.9-10.9-1.9,1.9-3.8,3.8-5.7,5.6-3,2.8-6.1,5.5-9.1,8.3h0c-.5.2-1,.6-1.5.9h0Z"/>
  <path class="cls-10" d="M56,88.4c-.5-1.8-1-3.6-1.4-5.4,14-1.8,28-3.6,42-5.5,18.9-2.4,37.8-4.8,56.6-7.3,17.7-2.4,35.5-4.9,53.2-7.7,6.6-1,13.2-3,19.7-4.5.8,2,1.6,3.9,2.4,5.9-1.7,1.4-3.2,3.8-5.1,4-24.9,3.4-49.9,6.5-74.8,9.9-24.7,3.4-49.3,7.2-74,10.5-6.1.8-12.4.2-18.6.2h0Z"/>
  <path class="cls-18" d="M232.6,71.8c.8,2.8,1.6,5.7,2.4,8.5-16.1,1.8-32.2,3.3-48.2,5.6-26.4,3.7-52.8,8-79.2,11.9-8.4,1.2-17,1.6-25.4,2.9-4.4.7-8.6,2.7-12.9,4.1-6.7-.7-12.7-2.1-11.9-10.9,2.5.7,5.1,2.3,7.4,2,15.3-1.8,30.6-4.1,45.9-6.2,14.9-2,29.8-3.8,44.6-5.8,19.3-2.6,38.6-5.1,57.9-7.9,6.5-1,12.9-2.8,19.4-4.3h0Z"/>
  <path class="cls-11" d="M51.4,72.1c27.1-3.7,54.2-7.3,81.3-11,25.1-3.5,50.2-7.1,75.3-10.6,4.4-.6,8.9-1,13.4-1.6,1,1.8,2,3.5,3,5.3-6.7,1.4-13.4,3.2-20.1,4.2-15.9,2.3-32,4.1-47.9,6.2-18.2,2.4-36.4,4.9-54.5,7.5-15.9,2.2-31.9,4.6-47.8,6.9-.8-2.3-1.7-4.6-2.5-6.9h0Z"/>
  <path class="cls-4" d="M69.3,104.8c4.3-1.4,8.5-3.4,12.9-4.1,8.4-1.3,17-1.7,25.4-2.9,26.4-3.9,52.8-8.2,79.2-11.9,16-2.3,32.1-3.8,48.2-5.6,0,.8.2,1.6.3,2.4,0,1,0,2,0,3,0,.4,0,.8,0,1.2-26.6,3.7-53.2,7.3-79.9,10.9-23.6,3.2-47.1,6.4-70.7,9.7-.6,0-1.1.7-1.6,1.1-4.6-1.3-9.1-2.6-13.7-3.9h0Z"/>
  <path class="cls-20" d="M232.6,71.8c-6.5,1.4-12.9,3.3-19.4,4.3-19.3,2.8-38.6,5.3-57.9,7.9-14.9,2-29.8,3.8-44.6,5.8-15.3,2-30.6,4.3-45.9,6.2-2.4.3-4.9-1.3-7.4-2-.5-1.8-.9-3.6-1.4-5.4,6.2,0,12.5.6,18.6-.2,24.7-3.3,49.3-7.1,74-10.5,24.9-3.4,49.9-6.4,74.8-9.9,1.8-.3,3.4-2.6,5.1-4,1.4,2.7,2.8,5.3,4.2,8h0Z"/>
  <path class="cls-10" d="M150.2,156.8c-.6,1.3-1.1,2.6-1.7,3.8-.6,0-1.2-.1-1.7-.2,1.9-5.3-.7-7.3-5.4-6.7-20.8,2.8-41.6,5.9-62.4,8.6-7.3,1-14.7,1.2-22.1,1.8.5-3.1,1-6.1,1.5-9.2,2.4-.4,4.8-1,7.3-1.3,26.4-3.6,52.7-7.5,79.1-10.5,4.9-.6,11.6-5.6,15.6,2.3-1.3,2.3-2.7,4.6-4,6.9h0c-.5.4-.9.9-1.4,1.4h0c-.5.4-.9.9-1.4,1.4h0c-.5.4-.9.9-1.4,1.4h0c-.7.1-1.4.2-2.1.4h0Z"/>
  <path class="cls-7" d="M56.8,164.1c7.4-.6,14.8-.9,22.1-1.8,20.8-2.7,41.6-5.9,62.4-8.6,4.7-.6,7.4,1.4,5.4,6.7-3.2,4.1-6.3,8.2-9.5,12.3.4-4-1-6-5.3-5.5-10,1.2-20.1,2.2-30.1,3.4-16.3,2-32.5,4-48.8,6.1,1.2-4.2,2.5-8.4,3.7-12.5h0Z"/>
  <path class="cls-20" d="M160.4,145.4c-4.1-7.9-10.7-2.9-15.6-2.3-26.4,3-52.8,6.9-79.1,10.5-2.4.3-4.8.9-7.3,1.3.4-3.2.8-6.4,1.2-9.6,7.1-.8,14.2-1.6,21.3-2.5,26.9-3.6,53.7-7.4,80.6-10.7,3.1-.4,6.6,1.6,9.8,2.5-3.6,3.6-7.3,7.2-10.9,10.8h0Z"/>
  <path class="cls-11" d="M53.1,176.7c16.3-2,32.5-4.1,48.8-6.1,10-1.2,20.1-2.3,30.1-3.4,4.3-.5,5.8,1.6,5.3,5.5-1.8,3.1-3.6,6.3-5.4,9.4-4.7-7.8-11.7-2.8-17.1-2.3-19.2,1.9-38.3,5-57.4,7.7-2.4.3-4.9.8-7.3,1.2,1-4.1,2-8.1,3.1-12.2h0Z"/>
  <path class="cls-4" d="M75.3,118c12.7-1.3,25.4-2.4,38.1-3.9,19.7-2.5,39.4-5.2,59.1-8,10.2-1.4,20.4-3.3,30.5-4.9,2.3-.3,4.7-.3,8.2-.4-1.8,3.7-2.9,6.2-4.1,8.6,0,0,0,0,0,0-.6.6-1.2,1.3-1.9,1.9-1.2.6-2.5,1.2-3.8,1.7-2.5-1.3-5.2-3.9-7.5-3.7-12.2,1.2-24.4,3.2-36.6,4.9-15.9,2.2-31.9,4.7-47.9,6.6-14,1.7-28.1,2.8-42.1,4.2,2.6-2.3,5.2-4.7,7.8-7h0Z"/>
  <path class="cls-18" d="M60.1,138.6c.6-2.8,1.2-5.6,1.8-8.3,4.3-.1,8.6,0,12.8-.5,11.3-1.4,22.6-3.2,33.9-4.7,18.8-2.6,37.6-5.5,56.5-7.6,9.2-1,18.6-.4,27.9-.6-1.6,1.8-3.1,3.5-4.6,5.3-1.6,1.9-3.2,3.8-4.8,5.7h0c-.5-.1-1-.2-1.5-.3-2.3-1.3-4.7-3.9-6.9-3.7-16.5,1.6-32.9,3.5-49.3,5.6-21.9,2.9-43.9,6-65.8,9.1h0Z"/>
  <path class="cls-8" d="M60.1,138.6c21.9-3,43.8-6.2,65.8-9.1,16.4-2.2,32.9-4.1,49.3-5.7,2.1-.2,4.6,2.4,6.9,3.7,0,.5,0,1.1,0,1.6h0c-.9,0-1.9,0-2.8-.1-.9.9-1.8,1.9-2.6,2.9,0,.4-.2.8-.4,1.1-1.7.5-3.4,1-5,1.5-3.3-.9-6.7-2.9-9.8-2.5-26.9,3.3-53.7,7.1-80.6,10.7-7.1.9-14.2,1.7-21.3,2.5.2-2.2.4-4.5.6-6.7h0Z"/>
  <path class="cls-7" d="M54,79c15.9-2.3,31.9-4.7,47.8-6.9,18.2-2.6,36.3-5.1,54.5-7.5,16-2.1,32-3.9,47.9-6.2,6.8-1,13.4-2.7,20.1-4.2.5,1.2,1.1,2.5,1.6,3.7-6.6,1.5-13.1,3.5-19.7,4.5-17.7,2.8-35.4,5.3-53.2,7.7-18.9,2.6-37.7,4.9-56.6,7.3-14,1.8-28,3.6-42,5.5-.2-1.3-.4-2.6-.6-3.9Z"/>
  <path class="cls-13" d="M193,116.9c-9.3.2-18.7-.4-27.9.6-18.9,2.1-37.7,5-56.5,7.6-11.3,1.6-22.6,3.3-33.9,4.7-4.2.5-8.5.4-12.8.5,1.9-1.8,3.7-3.6,5.6-5.4,14-1.4,28.1-2.5,42.1-4.2,16-1.9,31.9-4.3,47.9-6.6,12.2-1.7,24.3-3.7,36.6-4.9,2.4-.2,5,2.4,7.5,3.7-.2.4-.4.8-.7,1.1-2.6.9-5.2,1.9-7.8,2.8h0Z"/>
  <path class="cls-11" d="M51.4,243.6c9.8-1.9,19.6-4,29.4-5.6,9.5-1.5,19.2-2.2,28.6-3.9,9.7-1.7,12.1-4.9,12.9-14.9,0-1.1.7-2.1,1.1-3.1.5,2.7,1,5.4,1.5,8.1-3.1,4.6-6.2,9.1-9.3,13.6-13.6,2.2-27.2,4.4-40.8,6.8-7.4,1.3-14.7,2.8-22.1,4.3-.5-1.8-.9-3.6-1.4-5.4h0Z"/>
  <path class="cls-7" d="M52.8,249c7.3-1.4,14.7-3,22.1-4.3,13.6-2.4,27.2-4.5,40.8-6.8-1.9,2.7-3.8,5.4-5.6,8.1-11.3,1.4-22.7,2.8-34,4.4-7.3,1.1-14.5,2.5-21.8,3.8-.5-1.8-1-3.5-1.5-5.3h0Z"/>
  <path class="cls-10" d="M54.3,254.2c7.2-1.3,14.5-2.8,21.8-3.8,11.3-1.6,22.7-2.9,34-4.4-1.4,1.8-2.8,3.6-4.2,5.5-7.6,1.4-15.1,2.8-22.7,4.3-8.8,1.8-17.6,3.7-26.4,5.6l-2.5-7.1h0Z"/>
  <path class="cls-20" d="M56.7,261.4c8.8-1.9,17.6-3.8,26.4-5.6,7.5-1.5,15.1-2.9,22.7-4.3-1.3,2.3-2.7,4.5-4,6.8-4.1.9-8.2,2.1-12.3,2.7-10.4,1.6-20.8,2.9-31.3,4.4-.5-1.3-1-2.6-1.5-3.9Z"/>
  <path class="cls-8" d="M58.3,265.3c10.4-1.4,20.9-2.8,31.3-4.4,4.1-.6,8.2-1.8,12.3-2.7-1.3,1.8-2.7,3.6-4,5.4-8,1.7-16,3.3-23.9,5.1-4.3.9-8.5,2.1-12.8,3.1-1-2.2-1.9-4.4-2.9-6.6h0Z"/>
  <path class="cls-4" d="M95.5,267.8c-1.3,2.3-2.7,4.5-4,6.8-7.6,4.9-16,7.1-25,6.7-1.3-2.2-2.6-4.5-3.9-6.8,11.5,0,22.7-.9,33-6.7h0Z"/>
  <path class="cls-9" d="M66.5,281.3c9,.4,17.4-1.8,25-6.7-1.5,2.2-3.1,4.5-4.6,6.7-.8,1.4-1.7,2.8-2.5,4.2h0c-2.8,3.3-5.7,6.5-8.5,9.7-3.1-4.6-6.3-9.3-9.4-13.9h0Z"/>
  <path class="cls-13" d="M95.5,267.8c-10.2,5.9-21.5,6.8-33,6.7-.5-.9-.9-1.8-1.4-2.7,4.3-1,8.5-2.1,12.8-3.1,8-1.8,15.9-3.4,23.9-5.1-.8,1.4-1.6,2.8-2.3,4.2h0Z"/>
  <path class="cls-19" d="M235.1,86.9c0-.4,0-.8,0-1.2.7,0,1.4-.1,2.1-.2.3,0,.6.2.9.4-.6,2-.5,4.9-1.8,5.8-5.1,3.4-10.6,6.2-16,9.2,3-2.8,6.1-5.5,9.1-8.3,1.9-1.8,3.8-3.7,5.7-5.6h0Z"/>
  <path class="cls-24" d="M75.9,295.2c2.8-3.2,5.7-6.4,8.5-9.7-1.5,4.6-2.9,9.2-4.4,13.8-1.4-1.4-2.8-2.8-4.2-4.1h0Z"/>
  <path class="cls-25" d="M237.3,85.5c-.7,0-1.4.1-2.1.2,0-1,0-2,0-3,.7.9,1.4,1.9,2.1,2.8h0Z"/>
  <path class="cls-1" d="M136,239.2c-5.1,6.5-10.5,12.8-15.2,19.5-8.9,13-17.3,26.2-26,39.3-1.2,1.9-2.8,3.5-4.6,4.9-3.5,2.8-4.7,1.1-4.7-2.6,13.6-22.5,26.5-45.4,44.4-65,.4-.5-.5-2.2-.9-3.4.6-1.3,1.2-2.6,1.8-3.9,2-1,4.4-1.4,5.8-2.9,17.6-19.4,34.1-39.9,52.6-58.3,15.4-15.4,33.1-28.7,49.8-42.9,2.3-1.9,4.7-3.7,7-5.6.4-.7.7-1.5,1.1-2.2.2-.2.5-.4.7-.7.7-.2,1.3-.3,2-.5,1.4.2,2.8.3,4.2.4-.2.9-.3,1.8-.5,2.7-3.2,2.7-6.4,5.4-9.6,8.1-4.9,4.1-9.7,8.1-14.5,12.2-6.9,5.9-13.7,11.9-20.6,17.8-5,4.6-9.9,9.1-14.9,13.6-7.2,7.7-14.4,15.4-21.6,23.1-2.9,3.3-6,6.4-8.6,9.9-.5.7.5,2.5.8,3.8,7.7,6.2,15.3,12.6,23.1,18.7,2.7,2.1,4.2,4,.9,6.8-1.2.5-2.6.9-3.7,1.6-14.1,8.7-28.7,11.8-44.3,3.8-1-.5-3.1,1-4.7,1.5h0Z"/>
  <path class="cls-24" d="M239.4,261.9c3.3,6.8,6.6,13.6,10,20.8-14.1,1.9-28.3,3.8-42.5,5.9-33.6,4.9-67.3,9.8-100.9,14.7-1.8.3-3.5,1-5.2,1.4-1.1-.2-2.1-.3-4-.6,4.6-7,8.9-13.5,13.2-20,2.3-1,4.6-1.9,6.8-2.9,1.4.9,2.9,2.6,4.2,2.5,20.6-2.6,41.3-5.4,61.9-8.3,17.1-2.4,34.1-5.2,51.1-7.5,3.6-.5,5.4-1.8,5.2-5.4l.2-.5h0Z"/>
  <path class="cls-22" d="M239.2,123.9c-16.7,14.2-34.4,27.4-49.8,42.9-18.5,18.5-35.1,38.9-52.6,58.3-1.4,1.5-3.8,2-5.8,2.9-.1-.8-.2-1.5-.3-2.3,4.7-6,9.5-11.9,14.2-17.9,4.9-5.8,9.8-11.6,14.6-17.5,2.6-3.2,5.3-6.4,7.9-9.6,7.4-7.2,14.7-14.5,22.1-21.7,5.5-5,11-10,16.4-15,6.8-5.4,13.5-10.9,20.3-16.3,5.5-3.4,11-6.8,16.5-10.2.2.2.4.4.5.7-1.4,1.9-2.8,3.7-4.1,5.6h0Z"/>
  <path class="cls-12" d="M263.8,149.5c-2.3,4.1-4.6,8.2-6.9,12.3h0c-.5,1.1-.9,2.2-1.4,3.4-.1.3-.4.5-.7.7-1.2.3-2.4.6-3.6.9-.4.1-.9.3-1.2.5-.4.4-.9.9-1.4,1.3-.5.8-1,1.7-1.5,2.5-3.8,3.3-7.5,6.7-11.3,10-3.6.8-7.4,1.2-10.8,2.6-7.2,2.8-14.2,6.2-21.3,9.3-9,.9-18.1,1.9-27.1,2.8.9-2,1.1-4.8,2.6-5.8,7.1-4.7,14.5-8.9,21.8-13.3,1.3,1.4,2.4,4,3.8,4.1,5,.5,10.1.4,15.1,0,10.8-.9,18.5-6.6,23.3-16.2,1.8-2,3.4-4.1,5.3-5.9,4.4-4,7.5-10.5,15.2-9.1Z"/>
  <path class="cls-15" d="M176.7,195.7c9-.9,18.1-1.9,27.1-2.8,5.2.6,10.5,1.2,15.7,1.8-3.8,7.1-8.8,12.2-17.6,12.1-12.4-.1-24.8-.1-37.2-.2-.3-1.3-1.4-3.2-.8-3.8,2.7-3.5,5.7-6.6,8.6-9.9,1.4.9,2.8,1.8,4.2,2.7Z"/>
  <path class="cls-14" d="M164.8,206.7c12.4,0,24.8,0,37.2.2,8.8,0,13.8-5.1,17.6-12.1,3.5-1.5,7-3.1,10.4-4.6.4.5.7,1,1.1,1.5-8,6.7-15.8,13.7-24.2,19.8-2.3,1.6-6.6.6-10,.4-7.2-.3-14.4-.8-21.5-1.2-.2-.1-.4-.2-.6-.3.2.1.4.2.6.3,7.1,6.1,14.1,12.3,21.5,18.6-2.5,1.8-4.5,3.1-6.5,4.5-.5-.6-1.1-1.1-1.6-1.6,3.3-2.8,1.7-4.7-.9-6.8-7.8-6.1-15.4-12.4-23.1-18.7h0Z"/>
  <path class="cls-5" d="M129.2,232c.3,1.2,1.3,2.9.9,3.4-18,19.5-30.8,42.5-44.4,65-.6-1.1-1.9-2.6-1.6-3.2,13.1-23,26.3-46.1,45.2-65.1h0Z"/>
  <path class="cls-18" d="M141.5,248.7c.9,0,1.7,0,2.6,0,2.1,1.3,3.9,3.4,6.2,3.9,3.2.7,6.7.3,10.1.4-.8,1.4-1.3,3.9-2.4,4.1-9,2.3-17.9,5.8-27.5,2.4,0-1.4,0-2.8,0-4.2h0c.9-1.3,1.9-2.7,2.8-4.1h0c2.8-.9,5.6-1.8,8.4-2.7h0Z"/>
  <path class="cls-1" d="M144.9,207.9c-4.7,6-9.5,11.9-14.2,17.9-1.9-.5-3.8-1-5.7-1.5-.5-2.7-1-5.4-1.5-8.1.2-.4.2-.9.3-1.3,1.2-4.3,2.5-8.6,3.7-12.9.2,1.9.3,3.9.5,6.4,1-.7,1.8-1.2,2.5-1.8,4.8.4,9.6.8,14.4,1.3h0Z"/>
  <path class="cls-10" d="M220.3,233.9c-.5.9-1,1.7-1.4,2.6-6.3,7.2-17.9,8.6-23,2.8,0-.5-.1-1.1-.2-1.6,1.4-1.8,2.8-3.5,4.2-5.2.9,0,1.8,0,2.6,0,2.5.9,5,2.4,7.6,2.5,3.2.2,6.5-.7,9.8-1.2h.4Z"/>
  <path class="cls-29" d="M188.8,232.2c.5.6,1.1,1.1,1.6,1.6-10.1,7.2-21.2,11.9-33.7,10.6-7-.7-13.8-3.4-20.6-5.3,1.6-.6,3.7-2.1,4.7-1.5,15.6,8,30.2,4.9,44.3-3.8,1.1-.7,2.5-1.1,3.7-1.6h0Z"/>
  <path class="cls-3" d="M202.6,232.5c-.9,0-1.8,0-2.6,0,2.4-4.1.5-6.6-2.9-9-2.2-1.5-4-3.5-6.6-5.8,9.5-1.7,17.5-3.1,25.5-4.5,0,0,.3.3.3.3-1,1.7-2,3.5-3,5.2h-15c2,3.6,3.2,5.9,4.4,8.2v2.7c0,.9,0,1.9,0,2.8h0Z"/>
  <path class="cls-19" d="M160.4,253c-3.4,0-6.9.3-10.1-.4-2.2-.5-4.1-2.5-6.2-3.9,15.4,5.8,29.5,1.2,43.3-5.7l.3.3c0,.9,0,1.7-.1,2.6-4.6,2.2-9.1,4.5-13.6,6.7-4.5.1-9.1.2-13.6.3h0Z"/>
  <path class="cls-19" d="M116.8,281.2c-2.3,1-4.6,1.9-6.8,2.9,5.4-7.8,10.7-15.6,16.1-23.4.2.2.3.3.5.5,0,1.3,0,2.6-.1,3.9-.9,1.4-1.9,2.7-2.8,4.1-1.4,2.2-2.7,4.5-4.1,6.7-.9,1.8-1.8,3.6-2.8,5.4Z"/>
  <path class="cls-3" d="M237.8,195.4c.5.6,1,1.1,1.5,1.6-.5,5.3-.9,10.7-1.6,16-.4,2.5-1.5,4.9-2.3,7.3-.2-.2-.4-.4-.6-.6.5-5.7,1.1-11.4,1.6-17.2-1.3-.9-2.6-1.9-3.9-2.8l-.4-.4c1.9-1.3,3.9-2.6,5.8-4h0Z"/>
  <path class="cls-28" d="M235.9,181c3.8-3.3,7.5-6.7,11.3-10,.6.6,1.2,1.1,1.8,1.7-5.1,5.3-10.2,10.7-15.3,16-.5-.3-1.1-.7-1.6-1,1.3-2.2,2.6-4.5,3.8-6.7h0Z"/>
  <path class="cls-19" d="M141.5,248.7c-2.8.9-5.6,1.8-8.4,2.7,1.4-5.3,3.9-7.2,8.4-2.7Z"/>
  <path class="cls-3" d="M217.4,212c2.2-1.8,4.5-3.7,6.7-5.5l.3.3c-2.3,1.8-4.6,3.6-6.8,5.5l-.2-.2h0Z"/>
  <path class="cls-2" d="M248.9,172.7c-.6-.6-1.2-1.1-1.8-1.7.5-.8,1-1.7,1.5-2.5.4-.4.9-.9,1.4-1.3.4-.2.8-.4,1.2-.5.5.6,1,1.2,1.5,1.8-1.3,1.4-2.6,2.8-3.9,4.2h0Z"/>
  <path class="cls-19" d="M130.4,255.4c0,1.4,0,2.8,0,4.2-1.3.5-2.6,1-3.9,1.6-.2-.2-.3-.3-.5-.5,1.4-1.8,2.9-3.5,4.3-5.3h0Z"/>
  <path class="cls-3" d="M225.5,205.1c1.7-1.5,3.4-2.9,5.1-4.4l.4.4c0,.5,0,.9,0,1.4l-5.3,2.9-.3-.3h0Z"/>
  <path class="cls-19" d="M187.4,243.1c1.4-.9,2.7-1.8,4.1-2.7l.3.3c-1.4.9-2.7,1.8-4.1,2.7l-.3-.3h0Z"/>
  <path class="cls-19" d="M133.1,251.4c-.9,1.4-1.9,2.7-2.8,4.1.9-1.4,1.9-2.7,2.8-4.1Z"/>
  <path class="cls-24" d="M84.4,285.5c.8-1.4,1.7-2.8,2.5-4.2-.8,1.4-1.7,2.8-2.5,4.2Z"/>
  <path class="cls-19" d="M195.7,237.7c0,.5.1,1.1.2,1.6-1.4.5-2.8.9-4.1,1.4,0,0-.3-.3-.3-.3,1.4-.9,2.8-1.8,4.2-2.7h0Z"/>
  <path class="cls-2" d="M255.6,165.2c.5-1.1.9-2.3,1.4-3.4-.5,1.1-.9,2.3-1.4,3.4Z"/>
  <path class="cls-28" d="M252.8,168.5c-.5-.6-1-1.2-1.5-1.8,1.2-.3,2.4-.6,3.6-.9-.7.9-1.4,1.8-2.1,2.7h0Z"/>
  <path class="cls-1" d="M84.7,306.6c-.1.1-.3.2-.4.3-.1-.2-.2-.4-.3-.6.2,0,.4-.1.5,0,.1,0,.2.3.2.4Z"/>
  <path class="cls-3" d="M215.9,213.2c.5-.4,1-.8,1.5-1.2l.2.2c-.4.4-.9.9-1.3,1.3l-.3-.3h0Z"/>
  <path class="cls-3" d="M230.7,200.8c.4-.4.9-.9,1.4-1.3l.4.4c-.4.4-.9.9-1.4,1.4l-.4-.4h0Z"/>
  <path class="cls-3" d="M224.1,206.4c.5-.4,1-.9,1.4-1.3l.3.3c-.4.4-.9.9-1.4,1.3l-.3-.3h0Z"/>
  <path class="cls-21" d="M205.2,119.5c6.3-4.6,12.6-9.1,18.9-13.7,6.4-2.3,12.8-4.5,19.3-6.8.9.5,1.8,1,2.8,1.6,0,.5,0,.9,0,1.4-5,2.7-10,5.4-15,8.1-8.1,5.9-16.3,11.8-24.4,17.7-.9.9-1.8,1.9-2.7,2.8-.9,1.3-1.9,2.6-2.8,4-2.8,2.7-5.5,5.4-8.2,8.1-2.3-.4-4.5-.9-6.8-1.3,2.3-2.7,4.6-5.4,6.9-8.1,4-4.6,8.1-9.2,12.1-13.7h0Z"/>
  <path class="cls-15" d="M144.9,207.9c-4.8-.4-9.6-.8-14.4-1.3,1-4.1,1.4-8.5,3.2-12.3.9-1.9,4-3,6.3-3.9,2.1-.9,4.6-1.1,6.8-1.7h.7s.7,0,.7,0c3.8.6,7.6,1.1,11.4,1.7-4.9,5.8-9.8,11.6-14.6,17.4h0Z"/>
  <path class="cls-2" d="M243.3,99.1c-6.4,2.3-12.8,4.5-19.3,6.8,7.4-5.3,14.8-10.6,22.2-15.8.4-.1,1-.1,1.3-.4,8.6-8,16-6.5,22.6,2.6l.5.2c0,.5-.1,1-.2,1.6-.8.8-1.6,1.6-2.4,2.4-1,.5-2,.9-3,1.4h0c-.4,0-.9,0-1.3,0-1.4,0-2.7,0-4.1,0,0-1.4,0-2.8,0-4.2-1.8-3.8-3.7-3.7-5.6,0-3.6,1.8-7.2,3.6-10.8,5.4h0Z"/>
  <path class="cls-12" d="M145.8,183.8c-2.6-7.2-.1-12.7,5.3-17.7,4.7-4.3,8.9-9.2,13.4-13.9.9,2.3,1.9,4.6,2.8,6.9-7.2,8.2-14.4,16.4-21.5,24.6Z"/>
  <path class="cls-28" d="M145.8,183.8c7.2-8.2,14.4-16.4,21.5-24.7,3.1-1.9,6.2-3.8,9.4-5.7,0,.6,0,1.1.1,1.6-.4,1.3-.9,2.6-1.3,4-5.5,6.6-11.1,13.3-16.6,19.9-3.6,3.2-7.2,6.5-10.8,9.7h-.7s-.7,0-.7,0c-.3-1.6-.7-3.3-1-4.9h0Z"/>
  <path class="cls-29" d="M193.1,133.3c-2.3,2.7-4.6,5.4-6.9,8.1-2.7,2.7-5.4,5.4-8.1,8.1-.9-2.3-1.9-4.6-2.8-6.9,6.4-5.4,12.8-10.7,19.2-16.1-.5,2.2-.9,4.5-1.4,6.7h0Z"/>
  <path class="cls-23" d="M175.3,142.6c.9,2.3,1.9,4.6,2.8,6.9-.5,1.3-.9,2.6-1.4,4-3.1,1.9-6.2,3.8-9.4,5.7-.9-2.3-1.9-4.6-2.8-6.9,3.6-3.2,7.2-6.4,10.8-9.6h0Z"/>
  <path class="cls-3" d="M171.3,134.6c1.7-.5,3.4-1,5-1.5-2.2,2.6-4.1,5.4-6.6,7.7-4.3,4-8.9,7.7-13.4,11.5,1.3-2.3,2.7-4.6,4-6.9,3.6-3.6,7.3-7.2,10.9-10.8Z"/>
  <path class="cls-3" d="M131.9,182.1c1.8-3.1,3.6-6.3,5.4-9.4,3.2-4.1,6.3-8.2,9.5-12.3.6,0,1.2.1,1.7.2-5.5,8.6-11.1,17.1-16.6,25.7,0-1.4,0-2.8,0-4.1h0Z"/>
  <path class="cls-19" d="M193,116.9c2.6-.9,5.2-1.9,7.8-2.8-5.8,4.6-11.6,9.2-17.3,13.8,1.6-1.9,3.2-3.8,4.8-5.7,1.5-1.8,3.1-3.5,4.6-5.3h0Z"/>
  <path class="cls-28" d="M193.1,133.3c.5-2.2.9-4.4,1.4-6.7,3.6-2.3,7.1-4.7,10.7-7.1-4,4.6-8.1,9.1-12.1,13.7h0Z"/>
  <path class="cls-26" d="M127.4,201.9c-1.2,4.3-2.5,8.6-3.7,12.9.6-6.9-2.2-14.5,3.8-20.5h.7s.7,0,.7,0c-.5,2.5-1,5-1.4,7.6h0Z"/>
  <path class="cls-3" d="M128.9,194.4h-.7s-.7,0-.7,0c1-1.8,2-3.6,3-5.4-.6,1.8-1.1,3.6-1.7,5.4h0Z"/>
  <path class="cls-18" d="M176.7,132c.9-.9,1.8-1.9,2.6-2.9,0,.5.1,1.1.1,1.6-.9.4-1.9.8-2.8,1.2Z"/>
  <path class="cls-19" d="M179.5,130.7c0-.5-.1-1.1-.1-1.6.9,0,1.9,0,2.8,0-.9.5-1.8,1.1-2.7,1.6h0Z"/>
  <path class="cls-3" d="M130.5,189c.5-.9.9-1.9,1.4-2.8-.5.9-.9,1.9-1.4,2.8Z"/>
  <path class="cls-19" d="M205.3,111.2c.6-.6,1.2-1.3,1.9-1.9-.6.7-1.2,1.3-1.9,1.9Z"/>
  <path class="cls-19" d="M182.2,129.2c0-.5,0-1.1,0-1.6.5,0,1,.1,1.5.2-.5.5-.9.9-1.4,1.4Z"/>
  <path class="cls-3" d="M152.3,156.4c.5-.5.9-.9,1.4-1.4-.5.5-.9.9-1.4,1.4Z"/>
  <path class="cls-19" d="M218.9,101.8c.5-.3,1-.7,1.5-1.1-.5.3-1,.7-1.5,1.1Z"/>
  <path class="cls-3" d="M153.6,155.1c.5-.5.9-.9,1.4-1.4-.5.5-.9.9-1.4,1.4Z"/>
  <path class="cls-3" d="M155,153.7c.5-.5.9-.9,1.4-1.4-.5.5-.9.9-1.4,1.4Z"/>
  <path class="cls-3" d="M150.2,156.8c.7-.1,1.4-.2,2.1-.4-.7.1-1.4.2-2.1.4Z"/>
  <path class="cls-14" d="M244.1,126.2c3.2-2.7,6.4-5.4,9.6-8.1,10.6,0,21.2,0,31.8.1.9.4,1.7.8,2.6,1.2-1.8,2.3-3.5,4.6-5.3,6.9-2.8,2.2-5.6,4.5-8.8,7.1-3-7-7.4-3.4-11.6-1.6-1.2-1.3-2.3-3.5-3.7-3.8-4.8-1-9.6-1.2-14.5-1.8h0Z"/>
  <path class="cls-28" d="M271.9,87c-.1-12,7.4-17.3,19.9-14.5,4.7,1.1,9.5,1.5,14.1,2.5.6.2.8,2.5,1.2,3.8-2.2,2.3-4.4,4.7-6.6,7-8.2-3.8-14.8-1.7-20.6,5.2,1.5-3.5,2.9-7,4.4-10.5l-1.3-.7c-1.4,1.9-2.9,3.9-4.3,5.8-2.3.5-4.5.9-6.8,1.4h0Z"/>
  <path class="cls-5" d="M300.5,85.8c2.2-2.3,4.4-4.7,6.6-7-3.1,7.3-6.2,14.6-9.3,21.8-.5-.5-1.1-1-1.6-1.5,1.4-4.4,2.9-8.9,4.3-13.3h0Z"/>
  <path class="cls-21" d="M271.9,87c2.3-.5,4.5-.9,6.8-1.4-1.4,3.1-2.8,6.2-4.2,9.3-.5,1-.9,2-1.4,3h0c-.9,1.1-1.9,2.3-2.8,3.4h-.5c0,.1,0,.6,0,.6-1.6,0-3.2,0-4.8,0,0-1.4,0-2.7,0-4.1h0c1-.5,2-.9,3-1.4.8-.8,1.6-1.6,2.4-2.4,0-.5.1-1,.2-1.6l-.5-.2c.6-1.7,1.2-3.5,1.8-5.2h0Z"/>
  <path class="cls-21" d="M296.2,99.2c.5.5,1.1,1,1.6,1.5-3.3,6.3-6.5,12.5-9.8,18.8-.9-.4-1.7-.8-2.6-1.2,2.3-4.5,4.5-9.1,6.8-13.6,1.3-1.8,2.6-3.7,4-5.5h0Z"/>
  <path class="cls-25" d="M119.6,275.9c1.4-2.2,2.7-4.5,4.1-6.7-.2,4.7,2.8,4.3,5.9,3.7,4.6-.8,9.2-1.7,13.9-2.4,13.7-1.8,27.5-3.5,41.3-5.2,14.6-1.9,29.2-4.3,43.9-5.5,6.3-.5,8.7-2.4,7.8-8.4h1.3c.5,3.5,1.1,7,1.6,10.5l-.2.5c-11.5,1.8-22.9,3.6-34.4,5.3-23,3.2-46,6.5-69.1,9.2-5.3.6-11,3.4-16.1-1.1h0Z"/>
  <path class="cls-13" d="M126.6,261.2c1.3-.5,2.6-1,3.9-1.6,9.5,3.4,18.5-.1,27.5-2.4,1.1-.3,1.6-2.7,2.4-4.1,4.5-.1,9.1-.2,13.6-.3,2,.9,4.1,2.9,5.9,2.6,18.5-2.5,36.9-5.3,55.3-8,.4,0,.8,0,1.1,0,0,.9.2,1.7.3,2.6,0,.5,0,1,0,1.5h0c-11.5,1.8-23,3.8-34.5,5.4-16.5,2.3-33.1,4.6-49.7,6.5-8.6,1-17.2,1.1-25.8,1.7,0-1.3,0-2.6.1-3.9h0Z"/>
  <path class="cls-4" d="M236.3,247.4c-.4,0-.8,0-1.1,0,0-.9,0-1.8,0-2.7,0-.5,0-1.1,0-1.6.4,0,.9.2,1.4.3,0,1.3-.1,2.7-.2,4h0Z"/>
  <path class="cls-4" d="M236.5,251.4c0-.5,0-1,0-1.5.4.5.9,1,1.3,1.5h-1.3Z"/>
  <path class="cls-29" d="M244.1,126.2c4.8.5,9.7.8,14.5,1.8,1.4.3,2.5,2.5,3.7,3.8-8.2,8.2-18.7,11.2-29.8,12.3l-2.9-5.7c4.9-4.1,9.7-8.1,14.5-12.2Z"/>
  <path class="cls-29" d="M263.8,149.5c-7.7-1.4-10.7,5.1-15.2,9.1-2,1.8-3.6,3.9-5.3,5.9-5.4,0-10.9,0-16.3,0,2.8-2.2,5.5-4.5,8.3-6.7,4.1-2.6,8.3-5.3,12.5-7.8,8-4.9,16-9.7,24-14.5.6.6,1.1,1.2,1.7,1.8-3.2,4.1-6.4,8.1-9.6,12.2h0Z"/>
  <path class="cls-28" d="M235.2,157.7c-2.8,2.2-5.5,4.5-8.3,6.7-3.6,0-7.1-.1-10.7-.2-.6-.8-1.1-1.6-1.7-2.5,1.4-3.2,2.9-6.3,4.3-9.5,1,4.5,3.8,6.1,8.3,5.5,2.6-.4,5.4,0,8.1,0h0Z"/>
  <path class="cls-23" d="M218.9,152.3c-1.4,3.2-2.9,6.3-4.3,9.5-1.9-1.9-3.7-3.7-5.5-5.6,6.9-5.9,13.7-11.9,20.6-17.8l2.9,5.7c-4.5,2.7-9.1,5.4-13.6,8.2h0Z"/>
  <path class="cls-8" d="M191.8,240.7c1.4-.5,2.8-.9,4.1-1.4,5.1,5.8,16.7,4.4,23-2.8,1.8,1,3.6,2,5.4,3,0,.8,0,1.6,0,2.5-7.2,1.8-14.3,4-21.5,5.3-5,1-10.5,3.6-15.2-1.2,0-.9,0-1.7.1-2.6,1.4-.9,2.7-1.8,4.1-2.7h0Z"/>
  <path class="cls-13" d="M224.3,241.9c0-.8,0-1.6,0-2.5,3.6,1.2,7.3,2.4,10.9,3.6,0,.5,0,1.1,0,1.6-3.6-.9-7.2-1.8-10.8-2.7Z"/>
  <path class="cls-3" d="M230.1,224.7c-1.8,1.8-3.7,3.5-5.5,5.3l-.5-.4c0-1.3.1-2.6.2-3.9,1.7-.5,3.5-1,5.2-1.6.2.2.4.4.6.6h0Z"/>
  <path class="cls-26" d="M233.8,221.8c-.4.4-.8.7-1.2,1.1-1,0-1.9,0-2.9-.1v-2.6c1.3,0,2.6-.1,3.8-.2.1.6.2,1.2.3,1.9h0Z"/>
  <path class="cls-3" d="M229.7,222.8c1,0,1.9,0,2.9.1-.8.6-1.7,1.2-2.5,1.8-.2-.2-.4-.4-.6-.6,0-.4.1-.9.1-1.3h0Z"/>
  <path class="cls-3" d="M233.8,221.8c-.1-.6-.2-1.2-.3-1.9.4,0,.8,0,1.2-.1l.6.6c-.5.5-1,.9-1.5,1.4h0Z"/>
  <path class="cls-3" d="M224.6,230c-.5.4-1,.9-1.4,1.3l-.3-.4c.4-.5.9-.9,1.3-1.4l.5.4h0Z"/>
  <path class="cls-3" d="M223.1,231.3c-.5.4-.9.9-1.4,1.3l-.3-.3,1.4-1.4.3.4h0Z"/>
  <path class="cls-3" d="M221.7,232.6c-.5.4-.9.8-1.4,1.2h-.4c.5-.5,1-1,1.5-1.5l.3.3h0Z"/>
  <path class="cls-28" d="M292.3,104.7c-2.3,4.5-4.5,9.1-6.8,13.6-10.6,0-21.2,0-31.8-.1.2-.9.3-1.8.5-2.7h0c1.8-1.3,3.7-2.6,5.5-4,3.4-3.2,6.8-6.4,10.2-9.6v-.5c0,0,.6-.1.6-.1.5-.2,1-.4,1.4-.7,2.3.9,4.5,2.2,6.9,2.6,4.5.8,9,1,13.5,1.5h0Z"/>
  <path class="cls-12" d="M209,156.2c1.9,1.9,3.7,3.7,5.5,5.6.6.8,1.1,1.6,1.7,2.5-1.8,7.1-8.2,7.8-13.7,9.7l-8.4-4.1c5-4.6,9.9-9.1,14.9-13.6h0Z"/>
  <path class="cls-27" d="M194.1,169.9c2.8,1.4,5.6,2.8,8.4,4.1-.5.9-1,1.8-1.4,2.6-7.3,4.4-14.7,8.6-21.8,13.3-1.5,1-1.8,3.8-2.6,5.8-1.4-.9-2.8-1.8-4.2-2.7,7.2-7.7,14.4-15.4,21.6-23.1h0Z"/>
  <path class="cls-21" d="M254.2,115.4c-1.4-.2-2.8-.3-4.2-.4,0-.8,0-1.5,0-2.3h0c.5-.8.9-1.8,1.4-2.7h0c2.6-.9,5.1-1.9,7.7-2.8-.4.9-.8,1.8-1.1,2.6-1.3,1.9-2.5,3.7-3.8,5.6h0c0,0,0,0,0,0Z"/>
  <path class="cls-21" d="M239.2,123.9c1.4-1.9,2.8-3.7,4.1-5.6h2.9c-2.3,1.9-4.7,3.7-7,5.6h0Z"/>
  <path class="cls-22" d="M246.3,118.3h-2.9c-.2-.2-.4-.4-.5-.7.9-.8,1.8-1.7,2.8-2.6.6.3,1.2.7,1.8,1-.4.7-.7,1.5-1.1,2.2Z"/>
  <path class="cls-22" d="M250,112.7c0,.8,0,1.5,0,2.3-.7.2-1.3.3-2,.5-.4-.6-.7-1.1-1.1-1.7.1-.4.2-.8.2-1.2.9,0,1.9,0,2.8.1h0Z"/>
  <path class="cls-22" d="M248,115.5c-.2.3-.4.5-.7.7-.6-.3-1.2-.7-1.8-1,.4-.4.9-.9,1.3-1.3.4.6.7,1.1,1.1,1.7h0Z"/>
  <path class="cls-9" d="M119.6,275.9c5.1,4.4,10.9,1.7,16.1,1.1,23.1-2.8,46.1-6,69.1-9.2,11.5-1.6,23-3.5,34.4-5.3.2,3.6-1.6,4.9-5.2,5.4-17.1,2.3-34.1,5.1-51.1,7.5-20.6,2.9-41.2,5.7-61.9,8.3-1.3.2-2.8-1.6-4.2-2.5.9-1.8,1.8-3.6,2.8-5.4h0Z"/>
  <path class="cls-14" d="M246.9,113.8c-.4.4-.9.9-1.3,1.3-.9.8-1.8,1.7-2.8,2.6-5.5,3.4-11,6.8-16.6,10.2-6.5,0-13.1,0-19.6,0,8.1-5.9,16.3-11.8,24.4-17.7,1.7.9,3.4,2.4,5.2,2.6,3.6.3,7.3,0,10.9-.1,0,.4-.1.8-.2,1.2h0Z"/>
  <path class="cls-12" d="M158.9,179c5.5-6.6,11.1-13.3,16.6-19.9,4.7,0,9.4,0,14.1,0-7.4,7.2-14.7,14.5-22.1,21.7-2.9-.6-5.7-1.2-8.6-1.8h0Z"/>
  <path class="cls-29" d="M206.7,127.8c6.5,0,13.1,0,19.6,0-6.8,5.4-13.5,10.9-20.3,16.3-4.3,0-8.6,0-13,0,0-.5,0-.9-.1-1.4,2.8-2.7,5.5-5.4,8.2-8.1.9-1.3,1.9-2.6,2.8-4,.9-.9,1.8-1.9,2.7-2.8h0Z"/>
  <path class="cls-23" d="M193,144.1c4.3,0,8.6,0,13,0-5.5,5-11,10-16.4,15-4.7,0-9.4,0-14.1,0,.4-1.3.9-2.6,1.3-4,2.7-1.8,5.5-3.7,8.2-5.5,1.8-1.3,3.6-2.6,5.4-3.9.9-.5,1.8-1.1,2.7-1.6h0Z"/>
  <path class="cls-27" d="M158.9,179c2.9.6,5.7,1.2,8.6,1.8-2.6,3.2-5.3,6.4-7.9,9.6-3.8-.6-7.6-1.1-11.4-1.7,3.6-3.2,7.2-6.5,10.8-9.7h0Z"/>
  <path class="cls-23" d="M201.1,176.6c.5-.9,1-1.8,1.4-2.6,5.5-1.9,11.9-2.6,13.7-9.7,3.6,0,7.1.1,10.7.2,5.4,0,10.9,0,16.3,0-4.8,9.6-12.5,15.3-23.3,16.2-5,.4-10.1.5-15.1,0-1.4-.1-2.5-2.7-3.8-4.1h0Z"/>
  <path class="cls-28" d="M250.1,167.3c-.4.4-.9.9-1.4,1.3.4-.4.9-.9,1.4-1.3Z"/>
  <path class="cls-27" d="M175.3,210.7c-.2-.1-.4-.2-.6-.3.2.1.4.2.6.3h0Z"/>
  <path class="cls-7" d="M221.5,232.4c-.5.5-1,1-1.5,1.5-3.3.4-6.6,1.4-9.8,1.2-2.6-.1-5.1-1.6-7.6-2.5,0-.9,0-1.9,0-2.8.4-.9.8-1.8,1.2-2.7,6.8-.4,13.6-.9,20.4-1.4,0,1.3-.1,2.6-.2,3.9-.4.5-.9.9-1.3,1.4-.4.5-.9.9-1.4,1.4Z"/>
  <path class="cls-6" d="M234.8,219.8c-.4.1-.8.2-1.2.1-1.3,0-2.6.1-3.8.2-5.5-.5-11.4,4.5-16.4-1.4,1-1.8,2-3.5,3-5.2.4-.4.9-.9,1.3-1.3,2.3-1.8,4.6-3.6,6.8-5.5.4-.4.9-.9,1.4-1.3,1.8-.9,3.6-1.9,5.3-2.9,1.7,0,3.5,0,5.2,0-.5,5.7-1.1,11.4-1.6,17.2h0Z"/>
  <path class="cls-11" d="M213.2,218.8c5,5.9,10.9.9,16.4,1.4,0,.9,0,1.8,0,2.6,0,.4,0,.9-.1,1.3-1.7.5-3.5,1-5.2,1.6-6.8.4-13.6.9-20.4,1.4-.4,0-.8,0-1.3,0-1.2-2.3-2.5-4.5-4.4-8.2h15Z"/>
  <path class="cls-10" d="M202.6,226.9c.4,0,.8,0,1.3,0-.4.9-.8,1.8-1.2,2.7v-2.7h0Z"/>
  <path class="cls-18" d="M224.3,241.9c3.6.9,7.2,1.8,10.8,2.7,0,.9,0,1.8,0,2.7-18.4,2.7-36.8,5.5-55.3,8-1.8.2-3.9-1.7-5.9-2.6,4.6-2.2,9.1-4.5,13.6-6.7,4.7,4.9,10.1,2.2,15.2,1.2,7.2-1.4,14.4-3.5,21.5-5.3h0Z"/>
  <path class="cls-4" d="M126.5,265c8.6-.5,17.3-.7,25.8-1.7,16.6-1.9,33.1-4.2,49.7-6.5,11.5-1.6,23-3.6,34.5-5.4.9,6.1-1.5,7.9-7.8,8.4-14.7,1.1-29.3,3.6-43.9,5.5-13.8,1.8-27.5,3.4-41.3,5.2-4.6.6-9.3,1.6-13.9,2.4-3.1.5-6.1,1-5.9-3.7.9-1.4,1.9-2.7,2.8-4.1h0Z"/>
  <path class="cls-26" d="M236.3,202.6c-1.7,0-3.5,0-5.2,0,0-.5,0-.9,0-1.4.4-.4.9-.9,1.4-1.4,1.3.9,2.6,1.9,3.9,2.8h0Z"/>
  <path class="cls-28" d="M247.2,112.6c-3.6,0-7.3.5-10.9.1-1.8-.2-3.5-1.7-5.2-2.6,5-2.7,10-5.4,15-8.1,2.7,1.3,5.4,2.6,8.1,3.9-.9,1.4-1.8,2.8-2.8,4.1h0c-.5.9-.9,1.8-1.4,2.7h0c-.9-.1-1.9-.2-2.8-.2h0Z"/>
  <path class="cls-2" d="M185,149.6c-2.7,1.8-5.5,3.7-8.2,5.5,0-.5,0-1.1-.1-1.6.5-1.3.9-2.6,1.4-4,2.7-2.7,5.4-5.4,8.1-8.1,2.3.4,4.5.9,6.8,1.3,0,.5,0,.9.1,1.4-.9.5-1.8,1.1-2.7,1.6-1.8,1.3-3.6,2.6-5.4,3.9h0Z"/>
  <path class="cls-5" d="M259.7,93.7c0,1.4,0,2.8,0,4.2,0,.4,0,.7,0,1.1-4.5.6-9,1.1-13.5,1.6-.9-.5-1.8-1-2.8-1.6,3.6-1.8,7.2-3.6,10.8-5.4,1.9,0,3.7,0,5.6,0h0Z"/>
  <path class="cls-2" d="M246.1,100.6c4.5-.6,9-1.1,13.5-1.6.5.5.9,1.1,1.4,1.6-2.3,1.8-4.5,3.6-6.8,5.3-2.7-1.3-5.4-2.6-8.1-3.9,0-.5,0-.9,0-1.4Z"/>
  <path class="cls-14" d="M203.9,130.6c-.9,1.3-1.9,2.6-2.8,4,.9-1.3,1.9-2.6,2.8-4Z"/>
  <path class="cls-22" d="M254.1,105.9c2.3-1.8,4.5-3.6,6.8-5.3.9-.9,1.8-1.8,2.8-2.7.4,0,.9,0,1.3,0,0,1.4,0,2.7,0,4.1-2,1.8-4,3.6-6,5.3-2.5.9-5.1,1.9-7.7,2.8.9-1.4,1.8-2.8,2.8-4.1h0Z"/>
  <path class="cls-21" d="M259.7,93.7c-1.9,0-3.7,0-5.6,0,1.9-3.7,3.8-3.7,5.6,0Z"/>
  <path class="cls-21" d="M263.7,97.9c-.9.9-1.8,1.8-2.8,2.7-.5-.5-.9-1.1-1.4-1.6,0-.4,0-.7,0-1.1h4.1Z"/>
  <path class="cls-22" d="M268,96.4c-1,.5-2,.9-3,1.4,1-.5,2-.9,3-1.4Z"/>
  <path class="cls-22" d="M270.6,92.5c0,.5-.1,1-.2,1.6,0-.5.1-1,.2-1.6Z"/>
  <path class="cls-2" d="M292.3,104.7c-4.5-.5-9-.7-13.5-1.5-2.4-.4-4.6-1.7-6.9-2.6.5-.9.9-1.9,1.4-2.8h0c.5-.9.9-1.9,1.4-2.9,1.4-3.1,2.8-6.2,4.2-9.3,1.5-1.9,2.9-3.9,4.3-5.8l1.3.7c-1.5,3.5-2.9,7-4.4,10.5,5.9-6.9,12.5-8.9,20.6-5.2-1.4,4.4-2.9,8.9-4.3,13.3-1.3,1.8-2.6,3.7-4,5.5h0Z"/>
  <path class="cls-15" d="M259,107.3c2-1.8,4-3.6,6-5.3,1.6,0,3.2,0,4.8,0-3.4,3.2-6.8,6.4-10.2,9.6-.6-.5-1.1-1.1-1.7-1.6l1.1-2.6Z"/>
  <path class="cls-15" d="M273.2,97.8c-.5.9-.9,1.9-1.4,2.8-.5.2-1,.4-1.4.7.9-1.2,1.9-2.3,2.8-3.5h0Z"/>
  <path class="cls-15" d="M274.5,94.9c-.5,1-.9,2-1.4,3,.5-1,.9-2,1.4-3Z"/>
  <path class="cls-1" d="M257.9,109.9c.6.5,1.1,1.1,1.7,1.6-1.8,1.3-3.7,2.7-5.5,4.1,1.3-1.9,2.5-3.7,3.8-5.6h0Z"/>
  <path class="cls-22" d="M250,112.8c.5-.9.9-1.8,1.4-2.7-.5.9-.9,1.8-1.4,2.7Z"/>
  <path class="cls-29" d="M185,149.6c1.8-1.3,3.6-2.6,5.4-3.9-1.8,1.3-3.6,2.6-5.4,3.9Z"/>
</svg>