<?xml version="1.0" encoding="UTF-8"?>
<svg id="Layer_1" data-name="Layer 1" xmlns="http://www.w3.org/2000/svg" viewBox="0 0 299.78 299.78">
  <defs>
    <style>
      .cls-1 {
        fill: #fcfcfc;
      }

      .cls-1, .cls-2, .cls-3, .cls-4, .cls-5, .cls-6, .cls-7, .cls-8, .cls-9, .cls-10, .cls-11, .cls-12, .cls-13, .cls-14, .cls-15, .cls-16, .cls-17, .cls-18, .cls-19, .cls-20, .cls-21, .cls-22, .cls-23, .cls-24, .cls-25, .cls-26, .cls-27, .cls-28, .cls-29, .cls-30 {
        stroke-width: 0px;
      }

      .cls-2 {
        fill: #5e4d18;
      }

      .cls-3 {
        fill: #201803;
      }

      .cls-4 {
        fill: #927e4c;
      }

      .cls-5 {
        fill: #03557d;
      }

      .cls-6 {
        fill: #322601;
      }

      .cls-7 {
        fill: #c4a266;
      }

      .cls-8 {
        fill: #0e618b;
      }

      .cls-9 {
        fill: #1f73a3;
      }

      .cls-10 {
        fill: #2d83b5;
      }

      .cls-11 {
        fill: #3d93cb;
      }

      .cls-12 {
        fill: #146794;
      }

      .cls-13 {
        fill: #433509;
      }

      .cls-14 {
        fill: #806f3d;
      }

      .cls-15 {
        fill: #297bab;
      }

      .cls-16 {
        fill: #1b70a0;
      }

      .cls-17 {
        fill: #776634;
      }

      .cls-18 {
        fill: #1a1f35;
      }

      .cls-19 {
        fill: #2378a9;
      }

      .cls-20 {
        fill: #548ba6;
      }

      .cls-21 {
        fill: #a9905b;
      }

      .cls-22 {
        fill: #897644;
      }

      .cls-23 {
        fill: #3d6979;
      }

      .cls-24 {
        fill: #489fdc;
      }

      .cls-25 {
        fill: #358bc0;
      }

      .cls-26 {
        fill: #1f6484;
      }

      .cls-27 {
        fill: #6a5926;
      }

      .cls-28 {
        fill: #0b5d87;
      }

      .cls-29 {
        fill: #534311;
      }

      .cls-30 {
        fill: #3d3009;
      }
    </style>
  </defs>
  <path class="cls-1" d="M0,0c99.93,0,199.86,0,299.78,0,0,99.93,0,199.86,0,299.78-99.93,0-199.86,0-299.78,0C0,199.86,0,99.93,0,0ZM244.98,112.99c.35-.08.49-.31.42-.69.7-1.27,1.41-2.53,2.11-3.8l.66-.97c7.22-13.67,14.57-27.27,21.58-41.04,2.11-4.16.13-6.42-4.59-6.72-3.99-.25-8-.68-11.91-1.47-12.42-2.5-21.1,1.12-24.62,11.06-3.35-4.89-6.88-3.26-10.55-.68-3,2.12-6.16,4.02-9.25,6.01-.51-.39-1.02-.78-1.54-1.17-2.73-14.17-8.8-26.89-17.44-38.3-1.51-1.99-5.23-3.61-7.73-3.36-34.16,3.39-68.28,7.12-102.4,10.81-15.39,1.66-30.78,3.4-46.26,5.12.14,1.21.03,1.87.3,2.3,6.92,11.26,10.37,23.71,13.15,36.49.46,2.14,3.29,4.26,5.52,5.4,3.23,1.65,6.92,2.39,11.57,3.89-4.28,4.1-7.09,7.32-10.44,9.85-4.09,3.09-5.18,6.91-5.78,11.87-1.25,10.36-2.8,20.82-5.69,30.81-6.19,21.47-6.78,42.9-1.27,64.4,4.58,17.88,12.31,34.26,25.61,47.54.3.37.61.74.91,1.11.56,3.5-.73,8.8,5.77,7.07,4.52-1.2,8.83-3.22,13.23-4.87,3.67-.2,7.37-.13,11-.63,36.64-5.12,73.28-10.28,109.9-15.58,4.13-.6,8.13-2.07,12.19-3.14,0-.58.01-1.17.02-1.75-1.59-.79-3.18-1.59-4.77-2.38-.5-1.05-.99-2.11-1.49-3.16-1.73-6.42-4.46-12.76-4.95-19.27-.68-8.97-2.78-15.56-13.12-16.15-.15,0-.27-.6-.55-1.24,2.58-2.4,5.34-4.78,7.86-7.4,1.52-1.58,3.51-3.42,3.79-5.35.86-6.1,1-12.29,1.43-18.45.66-3.12,1.33-6.24,1.99-9.36,8.54-10.61,17.11-21.19,25.55-31.88.69-.88.48-2.48.69-3.74,0,0-.06-.21-.06-.21,1.46-1.27,2.93-2.53,4.39-3.8.28-.72.56-1.44.85-2.16l-.03-.04c1.32-1.65,2.64-3.3,3.96-4.95Z"/>
  <path class="cls-18" d="M66.44,260.34c-13.3-13.28-21.04-29.66-25.62-47.54-5.51-21.5-4.92-42.93,1.27-64.4,2.88-10,4.44-20.46,5.69-30.81.6-4.96,1.68-8.78,5.78-11.87,3.34-2.53,6.16-5.75,10.44-9.85-4.65-1.5-8.34-2.25-11.57-3.89-2.24-1.14-5.06-3.26-5.52-5.4-2.78-12.78-6.23-25.23-13.15-36.49-.26-.43-.15-1.09-.3-2.3,15.49-1.72,30.87-3.46,46.26-5.12,34.13-3.68,68.25-7.42,102.4-10.81,2.5-.25,6.22,1.37,7.73,3.36,8.64,11.41,14.7,24.13,17.44,38.3-.97.05-1.94.1-2.91.15-.23-.15-.48-.25-.74-.31-.58-.81-1.17-1.62-1.75-2.42-.08-.7-.15-1.39-.23-2.09-.68-2.42-1.36-4.84-2.04-7.26-1.2-2.28-2.41-4.57-3.61-6.85-.78-1.55-1.55-3.1-2.33-4.64-.37-1.19-.75-2.37-1.12-3.56-.85-1.5-1.7-3-2.55-4.5-2.18-2.21-4.48-6.42-6.52-6.3-15.04.93-30.03,2.68-45.03,4.26-17.11,1.8-34.21,3.7-51.31,5.56-15.9,1.73-31.79,3.46-48.64,5.3,2.01,3.94,3.82,7.49,5.64,11.03.72,1.96,1.45,3.93,2.17,5.89.17,1.13.34,2.26.51,3.4.42,1.56.83,3.12,1.25,4.69l1.18,4.66c-.73,7.6,4.47,8.78,10.19,9.39,3.55.89,7.09,1.79,10.64,2.68-.03,1.11.38,2.58-.17,3.28-1.55,1.95-3.5,3.59-5.29,5.35-2.24,1.99-4.48,3.98-6.71,5.98-1.6,1.53-3.2,3.07-4.81,4.6-.5,2.38-1,4.76-1.51,7.14-.07,1.95-.15,3.9-.22,5.85l-.45,8.29c-.72,2.59-1.44,5.18-2.15,7.77-1.06,3.59-2.11,7.18-3.17,10.77-.88,3.48-1.76,6.96-2.65,10.43-3.51,15.75-2.97,31.4,1.18,46.95.4,1.55.8,3.1,1.2,4.65.41,1.51.83,3.01,1.24,4.52.71,2.03,1.42,4.07,2.13,6.1.44,1.12.89,2.25,1.33,3.37.82,1.89,1.64,3.77,2.46,5.66.4.78.81,1.55,1.21,2.33,1.12,1.93,2.24,3.87,3.35,5.8,2.7,3.98,5.4,7.97,8.1,11.95,1.19,1.19,2.38,2.38,3.57,3.57-.76,1.13-1.52,2.26-2.28,3.38Z"/>
  <path class="cls-24" d="M213.2,237.01c.5,1.05.99,2.11,1.49,3.16-.77.85-1.43,2.26-2.33,2.44-3.73.76-7.54,1.13-11.31,1.68-19.86,2.88-39.72,5.7-59.57,8.68-18.32,2.75-36.62,5.67-54.92,8.51-.91-.14-1.81-.28-3.44-.53,3.97-6.01,7.64-11.57,11.31-17.14,1.95-.82,3.91-1.64,5.86-2.46,1.58.63,3.19,1.85,4.72,1.76,4.02-.24,8-1.13,12.01-1.64,13.19-1.68,26.4-3.14,39.57-4.98,14.68-2.06,29.3-4.61,43.99-6.57,3.49-.47,4.82-1.84,4.97-5.01.78,1.86,1.32,3.89,2.41,5.54,1.53,2.33,3.48,4.38,5.25,6.55Z"/>
  <path class="cls-30" d="M204.37,73.68c.97-.05,1.94-.1,2.91-.15.51.39,1.02.78,1.54,1.17.41,1.16.83,2.32,1.24,3.48-5.92,4.24-11.83,8.48-17.75,12.72-1.13.79-2.25,1.58-3.38,2.37-2.76,1.92-5.52,3.85-8.28,5.77-1.11.83-2.22,1.66-3.33,2.49-3.47,2.37-6.94,4.75-10.41,7.12-5.51,4.59-11.01,9.18-16.52,13.78-3.09,2.73-6.18,5.47-9.28,8.2-5.36,5.95-10.84,11.8-16.03,17.91-2.23,2.62-2.56,5.6.98,7.79-.12.75-.24,1.49-.36,2.24-.37,1.24-.74,2.48-1.11,3.72.86-.4,1.72-.8,2.58-1.19,1.9-1.61,3.81-3.22,5.71-4.83,3.07.52,6.14,1.04,9.22,1.56-2.81,3.07-5.61,6.15-8.42,9.22-5.87-.31-12.05-1.81-17.47-.4-2.44.64-3.36,7.08-5.02,10.87-.19.44-.75.71-1.34,1.25-.16-2.01-.3-3.73-.44-5.45.88-3.71,1.76-7.42,2.64-11.13,0,0-.02.03-.02.03.39-.79.79-1.58,1.18-2.37,0,0-.02.03-.02.03,4.76-7.34,9.52-14.68,14.28-22.02,1.07-1.2,2.14-2.39,3.2-3.59.4-.43.81-.85,1.21-1.28,0,0-.09.09-.09.09.42-.42.83-.84,1.25-1.26,0,0-.09.09-.09.09.42-.42.83-.84,1.25-1.26,0,0-.07.09-.07.09.85-.43,1.81-.73,2.52-1.32,11.29-9.43,22.57-18.88,33.79-28.41.88-.75,1.28-2.05,1.91-3.1.2-.31.39-.63.57-.96,1.08-.5,2.15-1,3.23-1.5l1.35-.89c.35-.28.7-.55,1.05-.83,3.08-2.12,6.16-4.25,9.23-6.37.44-.3.89-.61,1.33-.91,0,0-.03.09-.03.09,4.62-2.59,9.38-4.98,13.76-7.92,1.1-.74,1.03-3.24,1.49-4.94Z"/>
  <path class="cls-18" d="M86.56,261.48c18.31-2.84,36.6-5.76,54.92-8.51,19.84-2.98,39.71-5.8,59.57-8.68,3.77-.55,7.58-.92,11.31-1.68.91-.18,1.56-1.59,2.33-2.44,1.59.79,3.18,1.59,4.77,2.38,0,.58-.01,1.17-.02,1.75-4.06,1.07-8.06,2.54-12.19,3.14-36.62,5.3-73.26,10.46-109.9,15.58-3.62.51-7.33.44-11,.63.07-.73.14-1.45.2-2.18Z"/>
  <path class="cls-29" d="M210.06,78.18c-.41-1.16-.83-2.32-1.24-3.48,3.09-2,6.25-3.89,9.25-6.01,3.66-2.59,7.2-4.22,10.55.68,3.52-9.93,12.2-13.56,24.62-11.06,3.91.79,7.92,1.22,11.91,1.47,4.71.3,6.7,2.56,4.59,6.72-7,13.78-14.36,27.38-21.58,41.04-.67.09-1.35.18-2.02.27.45.23.91.46,1.36.7-.7,1.27-1.41,2.53-2.11,3.8-.61,0-1.21,0-1.82-.01-.39-.14-.79-.29-1.18-.43.08-1.13.16-2.26.24-3.39,1.52-1.98,3.03-3.97,4.55-5.95.54-.99,1.15-1.95,1.62-2.97,4.96-10.63,9.91-21.26,14.86-31.89,2.07-2.51.99-3.2-1.75-3.4-2.98-.21-5.93-.95-8.92-1.15-4.16-.28-8.5-1.04-12.48-.21-7.16,1.51-7.99,3.65-5.9,10.72-.91,1.84-1.82,3.69-2.73,5.53-3.05-2.6-6.03-7.16-9.17-7.27-3.6-.12-7.32,3.72-11.01,5.8-.49.28-1.1.34-1.65.5Z"/>
  <path class="cls-13" d="M235.88,124.16c-.21,1.27,0,2.86-.69,3.74-8.44,10.69-17.01,21.27-25.55,31.88-5.78-.11-3.88,5.17-5.56,7.93-1.66,1.13-3.33,2.27-4.99,3.4-.38.38-.77.77-1.16,1.15-1.48,1.25-2.96,2.49-4.43,3.74-.41.37-.82.73-1.24,1.1-1.91,1.58-3.83,3.17-5.74,4.75-.42.36-.84.72-1.26,1.08-5.91.83-11.82,1.63-17.72,2.53-1.23.19-2.4.78-3.6,1.19l-1.81,3.53c-3.89-3.11-7.79-6.23-11.68-9.34l.05-.05c6.34.37,12.71.43,19,1.2,7.93.97,13.05-2.86,17.24-8.85,3.85-3.47,7.7-6.93,11.54-10.39.19-.2.39-.4.59-.6,4.92-4.64,9.83-9.28,14.75-13.92,1.46-1.57,2.93-3.15,4.39-4.72.22-.3.39-.63.52-.98.73-1.16,1.46-2.32,2.19-3.48,1.49-1.49,2.97-3,4.47-4.47,3.56-3.48,7.13-6.94,10.69-10.41Z"/>
  <path class="cls-13" d="M86.56,261.48c-.07.73-.14,1.45-.2,2.18-4.4,1.65-8.71,3.67-13.23,4.87-6.5,1.73-5.21-3.57-5.77-7.07,1.65-.06,3.31-.11,4.96-.17.34.59.68,1.19,1.02,1.78,2.71-2.43,6.02-4.44,8.03-7.35,7.65-11.08,14.73-22.56,22.35-33.67,3.99-5.82,8.65-11.19,13.01-16.77,1.54.76,3.07,1.51,4.61,2.27-.39,1.52-.79,3.04-1.18,4.56-3.94-2.11-5.03.62-6.01,3.54-.82,1.13-1.64,2.26-2.46,3.39-5.75,8.26-11.51,16.52-17.26,24.78-3.67,5.56-7.34,11.13-11.31,17.14,1.63.25,2.53.39,3.44.53Z"/>
  <path class="cls-30" d="M72.32,261.28c-1.65.06-3.31.11-4.96.17-.3-.37-.61-.74-.91-1.11.76-1.13,1.52-2.26,2.28-3.39,1.25-3.95,2.51-7.91,3.76-11.86,0,0-.05-.04-.05-.04.71-1.21,1.42-2.42,2.13-3.63,1.32-1.91,2.64-3.82,3.96-5.73,1.15-1.95,2.3-3.89,3.46-5.84.67-1.2,1.33-2.39,2-3.59,1.13-1.55,2.26-3.1,3.4-4.65,1.14-1.94,2.28-3.87,3.42-5.81,1.21-1.57,2.42-3.13,3.63-4.7,1.61-2.32,3.22-4.64,4.82-6.95,2.66-3.91,5.33-7.81,7.99-11.72,1.65.43,3.3.86,4.96,1.3.23.91.47,1.82.7,2.73-.69.89-1.37,1.77-2.06,2.65-16.15,16.37-27.44,36.12-38.7,55.87-.29.5.84,1.81,1.3,2.74-.38,1.18-.76,2.36-1.14,3.54Z"/>
  <path class="cls-18" d="M213.2,237.01c-1.77-2.17-3.72-4.22-5.25-6.55-1.09-1.66-1.63-3.68-2.41-5.54,0,0,.03-.03.03-.03-.49-3.03-.97-6.05-1.46-9.08-.77-2.68-1.54-5.35-2.31-8.03-3.12-.77-6.23-1.55-9.35-2.32-1.51-.86-3.02-1.72-4.53-2.58.42-.68.84-1.36,1.26-2.04.43-.35.85-.69,1.28-1.04.4-.38.79-.76,1.19-1.14.4-.38.81-.75,1.21-1.12,1.57-1.51,3.15-3.02,4.72-4.53,1.5-1.24,3.01-2.48,4.52-3.71.67-2.09,1.64-4.14,1.95-6.29.65-4.54.97-9.14,1.42-13.71.73-.05,1.46-.09,2.19-.14-.42,6.16-.57,12.36-1.43,18.45-.27,1.93-2.27,3.77-3.79,5.35-2.51,2.62-5.28,4.99-7.86,7.4.27.64.39,1.23.55,1.24,10.34.59,12.44,7.19,13.12,16.15.49,6.51,3.22,12.86,4.95,19.27Z"/>
  <path class="cls-4" d="M235.88,124.16c-3.56,3.47-7.14,6.93-10.69,10.41-1.51,1.47-2.98,2.98-4.47,4.47-.22-.2-.44-.4-.66-.6,2.11-3.39,4.21-6.78,6.31-10.17,2.76-3.86,5.52-7.71,8.29-11.57,2.66-2.74,5.33-5.48,7.99-8.21-.08,1.13-.16,2.26-.24,3.39-.46,2.03-.91,4.06-1.37,6.09,0,0,.03.04.03.04-.67.1-1.34.2-2,.29-1.08,1.89-2.16,3.77-3.23,5.66l.06.21Z"/>
  <path class="cls-29" d="M207.65,169.14c-.73.05-1.46.09-2.19.14-.46-.52-.92-1.05-1.38-1.57,1.69-2.76-.21-8.04,5.56-7.93-.66,3.12-1.33,6.24-1.99,9.36Z"/>
  <path class="cls-13" d="M235.81,123.94c1.08-1.89,2.16-3.77,3.23-5.66.39.62.77,1.24,1.16,1.86-1.46,1.27-2.93,2.53-4.39,3.8Z"/>
  <path class="cls-29" d="M241.02,117.95c.46-2.03.92-4.06,1.37-6.09.39.14.79.29,1.16.43.46.23.94.47,1.42.71-1.32,1.65-2.64,3.3-3.96,4.95Z"/>
  <path class="cls-4" d="M244.98,112.99c-.48-.24-.96-.47-1.42-.71.62,0,1.23.01,1.84.01.07.38-.06.61-.42.69Z"/>
  <path class="cls-13" d="M247.5,108.51c-.45-.23-.91-.46-1.36-.7.67-.09,1.34-.18,2.02-.27-.22.32-.44.65-.66.97Z"/>
  <path class="cls-29" d="M240.21,120.14c-.39-.62-.77-1.23-1.16-1.86.67-.1,1.34-.2,2.01-.3-.28.72-.56,1.44-.85,2.16Z"/>
  <path class="cls-5" d="M44.13,209.02c-4.15-15.56-4.69-31.2-1.18-46.95,2.47-.36,4.93-.75,7.4-1.09,16.16-2.25,32.29-4.74,48.49-6.56,4.68-.52,10.27-3.95,14.31,1.9.02,1.18.04,2.36.06,3.54,0,0,.02-.03.02-.03-.39.79-.79,1.58-1.18,2.37,0,0,.02-.03.02-.03-6.86,6.08-5.96,14.19-5.82,22.11-.42,1.21-1.12,2.4-1.2,3.64-.61,8.73-2.65,11.51-11.34,13.06-8.09,1.44-16.34,1.92-24.45,3.22-8.41,1.35-16.74,3.19-25.11,4.82Z"/>
  <path class="cls-5" d="M44.14,61.89c-1.81-3.55-3.63-7.1-5.64-11.03,16.85-1.84,32.75-3.57,48.64-5.3,17.1-1.86,34.2-3.76,51.31-5.56,15-1.58,29.99-3.33,45.03-4.26,2.03-.13,4.34,4.09,6.52,6.29-17.88,2.71-35.75,5.52-53.65,8.09-15.81,2.27-31.65,4.34-47.5,6.36-14.89,1.9-29.81,3.61-44.71,5.41Z"/>
  <path class="cls-25" d="M187.82,87.35c-3.08,2.12-6.16,4.25-9.23,6.37.7-2.1,1.39-4.2,2.32-7-2.58,0-4.63-.25-6.59.04-8.76,1.32-17.47,2.94-26.23,4.19-16.9,2.41-33.8,4.77-50.73,6.89-10.88,1.37-21.81,2.28-32.73,3.39,1.79-1.76,3.74-3.4,5.29-5.35.55-.7.14-2.16.18-3.28,43.91-6,87.81-11.99,131.71-17.99-1.62,1.61-3.21,3.27-4.88,4.83-2.57,2.4-5.19,4.73-7.79,7.09,0,0,.03-.09.03-.09-.44.3-.89.61-1.33.91Z"/>
  <path class="cls-19" d="M59.44,89.92c-5.72-.61-10.92-1.78-10.19-9.39,2.13.63,4.34,2,6.36,1.76,13.15-1.57,26.26-3.53,39.39-5.3,12.95-1.75,25.9-3.43,38.85-5.14,16.38-2.17,32.77-4.23,49.11-6.59,5.61-.81,11.1-2.41,16.65-3.66.68,2.42,1.36,4.84,2.03,7.26-13.78,1.58-27.6,2.88-41.33,4.82-22.69,3.2-45.31,6.89-67.99,10.22-7.24,1.06-14.6,1.38-21.82,2.53-3.78.6-7.39,2.29-11.07,3.49Z"/>
  <path class="cls-12" d="M193.67,50.1c.78,1.55,1.55,3.1,2.33,4.64-1.45,1.19-2.76,3.18-4.37,3.44-10.82,1.78-21.7,3.26-32.57,4.71-32.83,4.36-65.66,8.71-98.51,12.9-4.1.52-8.32.07-12.49.07-.42-1.56-.83-3.12-1.25-4.69,4.99-.46,10.01-.74,14.97-1.43,18.49-2.56,36.95-5.4,55.46-7.88,21.76-2.91,43.56-5.47,65.31-8.42,3.79-.51,7.41-2.21,11.11-3.36Z"/>
  <path class="cls-10" d="M59.44,89.92c3.68-1.2,7.29-2.89,11.07-3.49,7.22-1.16,14.58-1.47,21.82-2.53,22.67-3.33,45.3-7.02,67.99-10.22,13.73-1.94,27.55-3.23,41.33-4.82.08.7.15,1.39.23,2.09-.02.87-.04,1.74-.06,2.6,0,.36,0,.71-.02,1.06-43.9,5.99-87.8,11.99-131.71,17.99-3.55-.89-7.1-1.79-10.64-2.68Z"/>
  <path class="cls-28" d="M44.14,61.89c14.91-1.8,29.82-3.51,44.71-5.41,15.85-2.02,31.69-4.09,47.5-6.36,17.9-2.57,35.77-5.38,53.65-8.09.85,1.5,1.7,3,2.55,4.51-2.11.82-4.15,2.07-6.33,2.38-20.16,2.84-40.34,5.5-60.52,8.25-13.7,1.87-27.38,3.85-41.09,5.69-12.76,1.71-25.54,3.29-38.31,4.93l-2.17-5.89Z"/>
  <path class="cls-16" d="M48.07,75.87c4.17,0,8.39.45,12.49-.07,32.85-4.19,65.68-8.54,98.51-12.9,10.88-1.44,21.75-2.93,32.57-4.71,1.6-.26,2.92-2.25,4.37-3.44,1.2,2.28,2.41,4.57,3.61,6.85-5.54,1.24-11.04,2.84-16.65,3.65-16.35,2.37-32.74,4.42-49.11,6.59-12.95,1.72-25.91,3.39-38.85,5.14-13.13,1.77-26.24,3.73-39.39,5.3-2.02.24-4.24-1.13-6.36-1.76-.39-1.55-.79-3.11-1.18-4.66Z"/>
  <path class="cls-12" d="M130.69,134.25c-1.07,1.2-2.14,2.39-3.21,3.59-.51-.07-1.02-.13-1.52-.2,1.68-4.51-.57-6.26-4.63-5.72-17.88,2.36-35.72,5.04-53.59,7.39-6.28.83-12.64,1.05-18.97,1.55.72-2.59,1.44-5.18,2.16-7.77,4.15-.81,8.28-1.81,12.46-2.39,22.45-3.13,44.91-6.13,67.36-9.23,3.18-.44,5.82-.19,6.93,3.39-1.17,1.95-2.35,3.91-3.52,5.87,0,0,.07-.09.07-.09-.42.42-.83.84-1.25,1.26,0,0,.09-.09.09-.09-.42.42-.83.84-1.25,1.26,0,0,.09-.09.09-.09-.4.43-.81.85-1.21,1.28Z"/>
  <path class="cls-8" d="M48.77,140.86c6.32-.5,12.69-.73,18.97-1.55,17.88-2.35,35.72-5.03,53.59-7.39,4.06-.54,6.31,1.21,4.63,5.72-2.71,3.51-5.42,7.03-8.13,10.54.41-3.43-.88-5.16-4.55-4.72-11.28,1.37-22.57,2.7-33.85,4.06-11.28,1.36-22.56,2.74-33.83,4.11,1.06-3.59,2.11-7.18,3.17-10.77Z"/>
  <path class="cls-16" d="M137.67,124.86c-1.11-3.58-3.74-3.83-6.93-3.39-22.45,3.11-44.92,6.11-67.36,9.23-4.18.58-8.31,1.58-12.46,2.39.15-2.76.3-5.53.45-8.29,5.9-.76,11.79-1.5,17.69-2.29,22.62-3.07,45.22-6.3,67.88-9.07,3.25-.4,6.77,1.34,10.16,2.09-3.14,3.11-6.28,6.22-9.42,9.33Z"/>
  <path class="cls-28" d="M45.59,151.63c11.28-1.37,22.56-2.75,33.83-4.11,11.28-1.36,22.57-2.68,33.85-4.06,3.67-.45,4.96,1.29,4.55,4.71-1.56,2.71-3.12,5.42-4.68,8.13-4.03-5.85-9.63-2.42-14.31-1.9-16.21,1.82-32.33,4.32-48.49,6.56-2.47.34-4.93.73-7.4,1.09.88-3.48,1.76-6.96,2.65-10.44Z"/>
  <path class="cls-10" d="M64.62,101.23c10.91-1.11,21.85-2.03,32.73-3.39,16.93-2.12,33.84-4.48,50.73-6.89,8.76-1.25,17.48-2.87,26.23-4.19,1.97-.3,4.01-.04,6.59-.04-.93,2.8-1.62,4.9-2.32,7-.35.28-.7.55-1.05.83-.45.3-.9.59-1.35.89-1.08.5-2.15,1-3.23,1.49-2.17-1.12-4.45-3.34-6.48-3.14-10.49,1.06-20.92,2.75-31.38,4.2-13.69,1.91-27.36,3.99-41.08,5.64-12.01,1.45-24.08,2.4-36.12,3.58l6.72-5.98Z"/>
  <path class="cls-19" d="M51.59,118.96c.5-2.38,1-4.76,1.51-7.14,3.66-.13,7.34.01,10.96-.44,9.72-1.22,19.4-2.71,29.1-4.05,16.17-2.23,32.31-4.71,48.52-6.49,7.91-.87,15.98-.39,23.97-.52-3.51,3.1-7.01,6.19-10.52,9.29.27-4.09-2.71-3.69-5.13-3.42-13.96,1.56-27.92,3.11-41.85,4.94-18.87,2.48-37.71,5.2-56.56,7.82Z"/>
  <path class="cls-9" d="M51.59,118.96c18.85-2.62,37.69-5.35,56.56-7.82,13.93-1.83,27.89-3.38,41.85-4.94,2.42-.27,5.4-.66,5.13,3.42-2.68,1.97-5.36,3.94-8.04,5.91-3.39-.75-6.91-2.49-10.16-2.09-22.66,2.78-45.26,6.01-67.88,9.07-5.89.8-11.79,1.53-17.69,2.29.07-1.95.15-3.9.22-5.85Z"/>
  <path class="cls-8" d="M46.31,67.78c12.77-1.64,25.55-3.22,38.31-4.93,13.7-1.84,27.39-3.82,41.09-5.69,20.17-2.75,40.36-5.41,60.52-8.25,2.18-.31,4.22-1.56,6.33-2.38.37,1.19.75,2.37,1.12,3.56-3.7,1.15-7.33,2.84-11.11,3.36-21.75,2.95-43.56,5.5-65.31,8.42-18.51,2.48-36.96,5.31-55.46,7.88-4.96.69-9.98.96-14.97,1.43-.17-1.13-.34-2.26-.51-3.4Z"/>
  <path class="cls-15" d="M165.65,100.33c-8,.13-16.06-.35-23.97.52-16.22,1.78-32.36,4.26-48.52,6.49-9.7,1.34-19.38,2.83-29.1,4.05-3.61.45-7.3.31-10.96.44,1.6-1.53,3.2-3.07,4.8-4.6,12.04-1.17,24.11-2.13,36.12-3.58,13.72-1.65,27.39-3.74,41.08-5.64,10.45-1.46,20.88-3.14,31.38-4.2,2.03-.21,4.31,2.02,6.48,3.14-.18.34-.37.66-.58.97-2.24.81-4.48,1.62-6.72,2.43Z"/>
  <path class="cls-28" d="M44.13,209.02c8.37-1.63,16.7-3.47,25.11-4.82,8.11-1.31,16.37-1.79,24.45-3.22,8.69-1.54,10.73-4.33,11.34-13.06.09-1.23.79-2.43,1.2-3.64.27-.01.54-.04.82-.08.07,2.75.14,5.5.21,8.25-2.66,3.91-5.33,7.81-7.99,11.72-11.67,1.93-23.35,3.81-35,5.83-6.33,1.1-12.62,2.44-18.93,3.67-.4-1.55-.8-3.1-1.2-4.65Z"/>
  <path class="cls-8" d="M45.33,213.67c6.31-1.23,12.6-2.57,18.93-3.67,11.65-2.02,23.33-3.89,35-5.83-1.61,2.32-3.22,4.64-4.82,6.95-9.73,1.24-19.48,2.37-29.19,3.76-6.26.9-12.46,2.18-18.68,3.3-.41-1.51-.83-3.01-1.24-4.52Z"/>
  <path class="cls-12" d="M46.57,218.18c6.23-1.11,12.43-2.4,18.68-3.3,9.71-1.39,19.46-2.52,29.19-3.76-1.21,1.57-2.42,3.13-3.63,4.7-6.48,1.22-12.97,2.36-19.44,3.66-7.57,1.53-15.12,3.19-22.67,4.8-.71-2.03-1.42-4.07-2.13-6.1Z"/>
  <path class="cls-16" d="M48.7,224.28c7.56-1.6,15.1-3.27,22.67-4.8,6.46-1.3,12.96-2.45,19.44-3.66-1.14,1.94-2.28,3.87-3.42,5.81-3.51.78-6.99,1.77-10.54,2.3-8.92,1.35-17.87,2.49-26.81,3.72-.44-1.12-.89-2.25-1.33-3.37Z"/>
  <path class="cls-9" d="M50.03,227.65c8.94-1.23,17.89-2.37,26.81-3.72,3.55-.54,7.03-1.52,10.54-2.3-1.13,1.55-2.27,3.1-3.4,4.65-6.84,1.45-13.69,2.87-20.53,4.37-3.67.81-7.32,1.77-10.97,2.66-.82-1.89-1.64-3.77-2.46-5.66Z"/>
  <path class="cls-10" d="M81.99,229.87c-1.15,1.95-2.3,3.89-3.46,5.84-6.55,4.21-13.72,6.07-21.48,5.73-1.12-1.93-2.24-3.87-3.35-5.8,9.83.03,19.49-.74,28.29-5.77Z"/>
  <path class="cls-11" d="M57.05,241.44c7.76.34,14.93-1.52,21.48-5.73-1.32,1.91-2.64,3.82-3.96,5.73-.71,1.21-1.42,2.42-2.13,3.63,0,0,.05.04.05.04-2.44,2.76-4.89,5.53-7.33,8.29-2.7-3.98-5.4-7.97-8.1-11.95Z"/>
  <path class="cls-15" d="M81.99,229.87c-8.8,5.03-18.46,5.79-28.29,5.77-.4-.78-.81-1.55-1.21-2.33,3.66-.89,7.3-1.85,10.97-2.66,6.83-1.5,13.68-2.92,20.53-4.37-.67,1.2-1.33,2.39-2,3.59Z"/>
  <path class="cls-20" d="M201.79,74.61c.03-.35.03-.71.02-1.06.6-.06,1.21-.12,1.81-.18.27.05.51.16.74.31-.46,1.7-.39,4.2-1.49,4.94-4.39,2.94-9.14,5.32-13.76,7.92,2.6-2.36,5.22-4.69,7.79-7.09,1.67-1.56,3.26-3.21,4.88-4.83Z"/>
  <path class="cls-24" d="M65.16,253.39c2.44-2.76,4.89-5.53,7.33-8.29-1.25,3.95-2.5,7.9-3.76,11.86-1.19-1.19-2.38-2.38-3.57-3.57Z"/>
  <path class="cls-25" d="M203.63,73.37c-.6.06-1.21.12-1.81.18.02-.87.04-1.73.06-2.6.58.81,1.17,1.62,1.75,2.42Z"/>
  <path class="cls-11" d="M205.55,224.91c-.16,3.17-1.49,4.54-4.97,5.01-14.69,1.96-29.31,4.51-43.99,6.57-13.16,1.84-26.38,3.31-39.57,4.98-4.01.51-7.99,1.39-12.01,1.64-1.53.09-3.14-1.13-4.72-1.76.78-1.53,1.56-3.07,2.35-4.6,2.33.61,4.77,1.98,6.99,1.69,14.87-1.91,29.7-4.19,44.54-6.31,17.13-2.44,34.27-4.83,51.41-7.25l-.03.03Z"/>
  <path class="cls-20" d="M102.64,236.74c-.78,1.54-1.56,3.07-2.35,4.6-1.95.82-3.91,1.64-5.86,2.46,5.75-8.26,11.51-16.52,17.26-24.78,0,0,.42.38.42.38-.04,1.13-.09,2.25-.13,3.38-.38.4-.77.79-1.15,1.19-1.55,2.33-3.11,4.66-4.66,6.98-1.17,1.93-2.35,3.85-3.52,5.78Z"/>
  <path class="cls-7" d="M112.92,196.48c-.23-.91-.47-1.82-.7-2.73,7.16-8.91,14.32-17.81,21.48-26.72,2.81-3.07,5.61-6.15,8.41-9.22,8.48-8.58,16.97-17.15,25.45-25.73,4.17-3.55,8.35-7.11,12.53-10.66,3.39-2.7,6.79-5.4,10.18-8.1,4.41-3.48,8.82-6.96,13.22-10.45.99-.08,1.97-.16,2.96-.24-.31,1.26-.61,2.52-.92,3.78l-.25-.16.25.17c-1.19.76-2.38,1.52-3.57,2.27-.29.49-.46,1.14-.88,1.45-32.29,24.01-60,52.6-84.65,84.28-.77.99-2.32,1.38-3.51,2.04Z"/>
  <path class="cls-29" d="M167.56,132.08c-8.49,8.58-16.97,17.15-25.46,25.73-3.07-.52-6.14-1.04-9.21-1.56,3.22-4.31,6.45-8.62,9.67-12.93-.56-.49-1.12-.98-1.68-1.46-5.92,3.71-10.24,9.23-14.81,14.46-3.54-2.19-3.21-5.17-.98-7.79,5.18-6.1,10.67-11.96,16.03-17.91,1.54,1.84,3.09,3.67,4.63,5.51-1.22,1.29-2.44,2.58-3.66,3.87.42.55.84,1.09,1.26,1.64,2.41-1.7,4.83-3.41,7.24-5.11,1.92-1.54,3.83-3.08,5.75-4.62,1.16-1.14,2.32-2.27,3.48-3.41,2.58,1.2,5.16,2.4,7.74,3.59Z"/>
  <path class="cls-4" d="M210.06,78.18c.55-.16,1.16-.22,1.65-.5,3.69-2.08,7.41-5.93,11.01-5.8,3.14.11,6.12,4.67,9.17,7.27,2.07-1.11,4.14-2.22,6.22-3.32,1.07.85,2.15,1.69,3.42,2.7,3.77-7.74,10.18-5.07,16.26-3.87-1.94,4.28-3.87,8.56-5.81,12.84-6.22-.37-12.45-.75-18.67-1.12,1.01-1.35,2.03-2.7,3.66-4.87-1.83.63-2.82.97-3.81,1.32-3.05.79-6.1,1.59-9.15,2.38-.19-6.95-1.68-8.22-7.11-5.61-3.53,1.7-6.7,4.16-10.26,5.77-4.66,2.11-9.54,3.71-14.33,5.53,5.92-4.24,11.83-8.48,17.75-12.72Z"/>
  <path class="cls-6" d="M133.69,167.03c-7.16,8.91-14.32,17.81-21.48,26.72-1.65-.43-3.3-.86-4.95-1.3-.07-2.75-.14-5.5-.2-8.25.79-3.63,1.58-7.27,2.37-10.91.14,1.72.28,3.43.44,5.45.59-.54,1.15-.82,1.34-1.25,1.66-3.78,2.58-10.23,5.02-10.87,5.42-1.41,11.6.09,17.47.4Z"/>
  <path class="cls-21" d="M192.31,90.9c4.79-1.82,9.67-3.42,14.33-5.53,3.56-1.61,6.73-4.08,10.26-5.77,5.43-2.61,6.92-1.34,7.11,5.61,0,0,0-.02,0-.02-5.07,1.14-10.14,2.29-15.21,3.43-3.5,1.94-7,3.89-10.51,5.83-4.66,3.12-9.32,6.25-13.98,9.37-4.82,2.96-9.78,5.78-11.66,11.66-1.57,1.94-3.15,3.87-4.72,5.81-.76.39-1.53.79-2.29,1.18-1.95-.39-3.9-.77-5.86-1.16,1.98-2.31,3.96-4.63,5.94-6.94,3.87-4.28,7.74-8.57,11.62-12.85,1.11-.83,2.22-1.66,3.33-2.49,4.03-.1,7.35-1.22,8.28-5.77,1.13-.79,2.25-1.58,3.38-2.37Z"/>
  <path class="cls-20" d="M165.65,100.33c2.24-.81,4.48-1.63,6.72-2.43-.62,1.05-1.03,2.36-1.91,3.1-11.22,9.52-22.5,18.97-33.79,28.41-.71.59-1.68.89-2.52,1.32,1.17-1.95,2.35-3.91,3.52-5.86,3.14-3.11,6.28-6.22,9.42-9.33,2.68-1.97,5.36-3.94,8.04-5.91,3.51-3.1,7.01-6.2,10.52-9.29Z"/>
  <path class="cls-27" d="M165.71,114.37c-1.98,2.31-3.96,4.63-5.94,6.94-2.32,2.33-4.64,4.66-6.97,6.99-.8-1.96-1.6-3.93-2.41-5.89,5.51-4.59,11.01-9.18,16.52-13.78-.4,1.91-.8,3.82-1.2,5.73Z"/>
  <path class="cls-14" d="M126.08,156.32c4.57-5.23,8.89-10.75,14.81-14.46.56.49,1.12.98,1.68,1.46-3.22,4.31-6.45,8.62-9.67,12.93-1.9,1.61-3.81,3.22-5.71,4.83-.49-.84-.98-1.68-1.46-2.52.12-.75.24-1.49.36-2.24Z"/>
  <path class="cls-2" d="M150.4,122.42c.8,1.96,1.6,3.93,2.41,5.89-1.59,1.96-3.18,3.93-4.77,5.89-.76.64-1.52,1.28-2.28,1.93-1.54-1.83-3.09-3.67-4.63-5.5,3.09-2.73,6.18-5.47,9.28-8.2Z"/>
  <path class="cls-23" d="M113.14,156.31c1.56-2.71,3.12-5.42,4.68-8.13,2.71-3.51,5.42-7.03,8.13-10.54.51.06,1.01.13,1.52.2-4.76,7.34-9.52,14.68-14.28,22.02-.02-1.18-.04-2.36-.06-3.54Z"/>
  <path class="cls-23" d="M109.42,173.3c-.79,3.64-1.58,7.27-2.37,10.91-.27.04-.54.06-.82.07-.14-7.92-1.03-16.03,5.82-22.11-.88,3.71-1.76,7.42-2.64,11.13Z"/>
  <path class="cls-22" d="M165.71,114.37c.4-1.91.8-3.82,1.2-5.73,3.47-2.37,6.94-4.75,10.41-7.12-3.87,4.28-7.74,8.57-11.62,12.85Z"/>
  <path class="cls-22" d="M188.94,93.26c-.93,4.55-4.25,5.67-8.28,5.77,2.76-1.92,5.52-3.85,8.28-5.77Z"/>
  <path class="cls-29" d="M125.72,158.56c.49.84.98,1.68,1.46,2.52-.86.4-1.72.8-2.58,1.2.37-1.24.74-2.48,1.11-3.72Z"/>
  <path class="cls-23" d="M112.04,162.2c.39-.79.79-1.58,1.18-2.37-.39.79-.79,1.58-1.18,2.37Z"/>
  <path class="cls-20" d="M187.82,87.35c.44-.3.88-.61,1.33-.91-.44.3-.88.61-1.33.91Z"/>
  <path class="cls-25" d="M176.18,95.44c.45-.3.9-.59,1.35-.89-.45.3-.9.59-1.35.89Z"/>
  <path class="cls-20" d="M130.69,134.25c.4-.43.81-.85,1.21-1.28-.4.43-.81.85-1.21,1.28Z"/>
  <path class="cls-20" d="M131.81,133.07c.42-.42.83-.84,1.25-1.26-.42.42-.83.84-1.25,1.26Z"/>
  <path class="cls-20" d="M132.97,131.89c.42-.42.83-.84,1.25-1.26-.42.42-.83.84-1.25,1.26Z"/>
  <path class="cls-17" d="M242.64,108.47c-2.66,2.74-5.33,5.48-7.99,8.21-.48-.05-.96-.09-1.43-.14-.33-1.78-.66-3.56-.98-5.34-1.88.59-3.82,1.04-5.62,1.82-1.37.59-2.56,1.6-3.84,2.42.47-3.48-.97-4.64-4.53-4.77-3.18-.12-6.31-1.43-9.46-2.22,2.96-2.37,5.92-4.74,8.89-7.11,9.08.05,18.17.09,27.25.14.75.34,1.51.68,2.26,1.02-1.52,1.98-3.03,3.97-4.55,5.95Z"/>
  <path class="cls-22" d="M257.79,74.65c-6.08-1.2-12.49-3.88-16.26,3.87-1.27-1-2.34-1.85-3.42-2.7-1.16-.73-2.32-1.47-3.49-2.2-2.1-7.07-1.27-9.21,5.9-10.72,3.97-.84,8.32-.07,12.48.21,2.98.2,5.93.94,8.92,1.15,2.74.19,3.82.89,1.75,3.4-1.96,2.33-3.92,4.66-5.87,6.99Z"/>
  <path class="cls-21" d="M257.79,74.65c1.96-2.33,3.92-4.66,5.87-6.99-4.95,10.63-9.89,21.27-14.86,31.89-.48,1.02-1.08,1.98-1.62,2.97-.75-.34-1.51-.68-2.26-1.03,1.18-2.34,2.36-4.67,3.54-7.01,1.17-2.33,2.34-4.67,3.52-7,1.94-4.28,3.87-8.56,5.81-12.84Z"/>
  <path class="cls-7" d="M234.62,73.62c1.16.73,2.32,1.47,3.49,2.2-2.07,1.11-4.14,2.22-6.21,3.32.91-1.84,1.82-3.69,2.73-5.53Z"/>
  <path class="cls-30" d="M120.15,212.1c.39-1.52.79-3.04,1.18-4.56,15.16,4.8,29.16,2.42,42.02-6.86,1.77-1.28,3.54-2.56,5.5-3.98-2.44-2.37-4.59-4.45-6.73-6.53.6-1.18,1.21-2.35,1.82-3.53,1.85,1.86,3.52,3.96,5.6,5.51,2.73,2.04,3.8,4.22,2.03,7.35-1.2,1.49-2.41,2.98-3.61,4.46-1.19.82-2.37,1.64-3.56,2.46l.05-.05c-1.18.79-2.36,1.58-3.54,2.38,0,0,.03-.04.03-.04-11.9,5.65-23.99,9.85-37.27,4.78-.73-.02-1.47-.05-2.2-.07-.44-.44-.87-.89-1.31-1.33Z"/>
  <path class="cls-17" d="M162.13,190.17c2.14,2.08,4.29,4.16,6.73,6.53-1.96,1.42-3.73,2.7-5.5,3.98-.46-.47-.91-.95-1.36-1.42,2.24-1.92,2.12-3.56-.28-5.39-6.6-5.04-13.1-10.23-19.63-15.35,1.81-.38,3.61-1.04,5.42-1.08,6.18-.12,12.37-.19,18.54.04,7.4.27,14.81.96,19.61-6.54.31-.49,1.4-.47,2.13-.69-.35.96-.69,1.93-1.04,2.89-4.18,5.98-9.3,9.82-17.23,8.84-6.29-.77-12.66-.83-19-1.2-.18-.08-.35-.15-.53-.23.16.1.32.19.47.29,3.89,3.11,7.79,6.23,11.68,9.34Z"/>
  <path class="cls-30" d="M198.87,162.13c-.2.2-.4.4-.59.6-3.29,1.78-6.57,3.57-9.86,5.35-3.8-.04-7.61.14-11.38-.22-1.52-.14-2.94-1.44-4.4-2.22,7.4-3.11,14.79-6.22,22.19-9.33,2.11.07,4.21.15,6.32.22-.76,1.87-1.52,3.73-2.28,5.6Z"/>
  <path class="cls-23" d="M171.57,199.51c1.77-3.13.71-5.31-2.03-7.35-2.08-1.55-3.75-3.66-5.6-5.51,1.2-.41,2.37-1,3.6-1.19,5.9-.9,11.81-1.7,17.72-2.53,0,0,.37.34.37.34-.86,1.49-1.72,2.98-2.58,4.48h-12.92c1.67,3.11,2.72,5.05,3.77,7,0,.79,0,1.57,0,2.36-.03.78-.06,1.57-.09,2.35-.75.01-1.5.03-2.25.04Z"/>
  <path class="cls-23" d="M204.08,167.71c.46.52.92,1.04,1.38,1.57-.45,4.58-.76,9.17-1.42,13.71-.31,2.14-1.28,4.19-1.95,6.29-.21-.22-.43-.43-.64-.65.46-4.9.91-9.8,1.37-14.69-1.11-.81-2.22-1.62-3.33-2.43l-.4-.39c1.66-1.13,3.33-2.27,4.99-3.4Z"/>
  <path class="cls-22" d="M198.87,162.13c.76-1.87,1.52-3.73,2.27-5.6,3.46-2.91,6.92-5.82,10.38-8.73.7.14,1.39.27,2.09.41-4.92,4.64-9.83,9.28-14.75,13.92Z"/>
  <path class="cls-14" d="M188.42,168.08c3.29-1.78,6.57-3.57,9.86-5.35-3.85,3.46-7.7,6.93-11.54,10.39.35-.96.69-1.92,1.04-2.89.22-.72.43-1.44.64-2.16Z"/>
  <path class="cls-4" d="M213.62,148.21c-.7-.14-1.39-.27-2.08-.41,1.05-1.44,2.08-2.88,3.12-4.32,1.12,0,2.23,0,3.35.01-1.46,1.57-2.93,3.15-4.39,4.72Z"/>
  <path class="cls-23" d="M186.52,181.85c1.91-1.58,3.83-3.17,5.74-4.75,0,0,.38.35.38.35-1.96,1.57-3.91,3.14-5.87,4.71l-.26-.31Z"/>
  <path class="cls-4" d="M220.71,139.03c-.73,1.16-1.46,2.32-2.19,3.48-.9-.07-1.8-.13-2.7-.2,1.41-1.3,2.82-2.59,4.22-3.89.22.2.44.41.66.61Z"/>
  <path class="cls-23" d="M193.5,176c1.48-1.25,2.96-2.49,4.43-3.74,0,0,.39.4.39.4,0,.4,0,.79.01,1.19l-4.53,2.51-.31-.35Z"/>
  <path class="cls-22" d="M215.82,142.32c.9.07,1.8.13,2.7.2-.12.35-.3.68-.52.98-1.12,0-2.23,0-3.35-.01,0-.38.03-.76.1-1.14h.53s.53-.03.53-.03Z"/>
  <path class="cls-23" d="M192.26,177.1c.41-.37.83-.73,1.24-1.1,0,0,.31.35.3.35-.39.37-.77.73-1.16,1.1l-.38-.35Z"/>
  <path class="cls-23" d="M197.93,172.26c.39-.38.77-.77,1.16-1.15,0,0,.4.39.4.39-.39.39-.77.77-1.16,1.16,0,0-.39-.4-.39-.4Z"/>
  <path class="cls-23" d="M185.26,182.93c.42-.36.84-.72,1.26-1.08,0,0,.26.31.26.3-.38.37-.76.75-1.14,1.12l-.37-.34Z"/>
  <path class="cls-3" d="M142.08,178.51c6.54,5.13,13.03,10.31,19.63,15.35,2.4,1.84,2.52,3.47.28,5.39-1.06.46-2.21.79-3.18,1.4-12.13,7.5-24.62,10.15-38.04,3.3-.89-.45-2.67.84-4.04,1.32-4.36,5.57-9.02,10.94-13.01,16.77-7.62,11.11-14.69,22.59-22.35,33.67-2.01,2.91-5.32,4.93-8.03,7.35-.34-.59-.68-1.19-1.02-1.78.38-1.18.76-2.36,1.14-3.54,11.62-19.28,22.69-38.93,38.04-55.67.39-.43-.4-1.93-.64-2.94.68-.88,1.37-1.77,2.06-2.65,1.19-.67,2.74-1.05,3.51-2.04,24.65-31.69,52.36-60.28,84.65-84.28.42-.31.6-.96.88-1.45,1.19-.76,2.38-1.52,3.57-2.27l-.25-.17s.25.16.25.16c1.73-1.31,3.47-2.63,5.2-3.94,1.3-1.11,2.59-2.23,3.88-3.34,1.18,0,2.36,0,3.54,0-.16.74-.32,1.48-.48,2.22-2.96,2.37-5.92,4.74-8.89,7.11-9.29,7.83-18.58,15.67-27.87,23.5-4.76,4.6-9.52,9.2-14.28,13.8-5.41,5.84-10.82,11.68-16.22,17.52-1.15,1.17-2.3,2.34-3.44,3.51-3.12,3.46-6.25,6.93-9.99,11.09,2.52.31,3.81.47,5.1.63Z"/>
  <path class="cls-27" d="M116.73,205.27c1.37-.48,3.15-1.77,4.04-1.32,13.43,6.85,25.91,4.21,38.04-3.3.98-.6,2.12-.94,3.18-1.4.45.47.91.95,1.36,1.42-12.87,9.28-26.86,11.66-42.02,6.86-1.54-.76-3.07-1.51-4.61-2.27Z"/>
  <path class="cls-20" d="M120.15,212.1c.44.44.87.89,1.31,1.33-2.34.83-4.67,1.67-7.01,2.5l-.31-.29c.98-2.92,2.07-5.65,6.01-3.54Z"/>
  <path class="cls-20" d="M111.69,219.03c.82-1.13,1.64-2.26,2.46-3.39,0,0,.31.29.31.29-.78,1.16-1.57,2.32-2.35,3.48l-.42-.38Z"/>
  <path class="cls-7" d="M110.85,199.13c.24,1,1.03,2.51.64,2.94-15.35,16.74-26.42,36.39-38.04,55.67-.47-.93-1.59-2.24-1.3-2.74,11.26-19.75,22.55-39.5,38.7-55.87Z"/>
  <path class="cls-24" d="M72.44,245.06c.71-1.21,1.42-2.42,2.13-3.63-.71,1.21-1.42,2.42-2.13,3.63Z"/>
  <path class="cls-10" d="M106.16,230.97c1.55-2.33,3.11-4.66,4.66-6.98-.36,3.4.69,5.06,4.55,4.51,27.23-3.92,54.49-7.64,81.7-11.72,1.76-.26,3.16-2.93,4.73-4.47,0-.77-.02-1.55-.02-2.32,0-.74.02-1.47.03-2.21.77,2.68,1.54,5.35,2.31,8.03-1.01,6.26-5.05,7.81-10.73,7.03-1.52-.21-3.12-.17-4.64.05-26.04,3.78-52.07,7.59-78.1,11.42-2.65.39-4.74.14-4.49-3.33Z"/>
  <path class="cls-25" d="M106.16,230.97c-.25,3.47,1.84,3.72,4.49,3.33,26.03-3.82,52.06-7.64,78.1-11.42,1.52-.22,3.12-.26,4.64-.05,5.67.79,9.72-.76,10.73-7.03.49,3.03.97,6.06,1.46,9.08-17.14,2.41-34.28,4.8-51.41,7.24-14.85,2.12-29.67,4.4-44.54,6.31-2.22.28-4.65-1.09-6.99-1.69,1.17-1.93,2.35-3.85,3.52-5.78Z"/>
  <path class="cls-9" d="M187.93,202.87c1.51.86,3.02,1.72,4.53,2.58,0,.73,0,1.46.01,2.18-9.36,1.87-18.7,3.82-28.1,5.49-.98.17-2.26-1.29-3.39-1.99-.02-.81-.03-1.61-.05-2.42,0,0-.03.04-.03.04,1.18-.79,2.36-1.58,3.54-2.38,0,0-.05.05-.05.05,1.24-.37,2.48-.75,3.72-1.12,1.25,1.12,2.73,3.39,3.71,3.19,5.58-1.14,12.34.71,16.1-5.63Z"/>
  <path class="cls-12" d="M187.93,202.87c-3.76,6.34-10.52,4.48-16.1,5.63-.98.2-2.46-2.06-3.71-3.19-.06-.44-.11-.89-.16-1.33,1.2-1.49,2.41-2.98,3.61-4.46.75-.01,1.5-.03,2.25-.04,2.17.77,4.3,2.05,6.51,2.18,2.79.16,5.62-.63,8.44-1.01l.42.19c-.42.68-.84,1.36-1.26,2.04Z"/>
  <path class="cls-15" d="M192.47,207.63c0-.73,0-1.46-.01-2.18,3.11.78,6.23,1.55,9.35,2.32,0,.74-.02,1.47-.03,2.21-3.1-.78-6.2-1.56-9.3-2.35Z"/>
  <path class="cls-23" d="M197.58,192.99c-1.57,1.51-3.15,3.02-4.72,4.53-.17-.17-.34-.33-.52-.48.06-1.13.11-2.26.17-3.39l4.47-1.34c.2.23.41.46.61.69Z"/>
  <path class="cls-23" d="M202.1,189.28c-1.51,1.24-3.01,2.47-4.52,3.71-.2-.23-.4-.46-.6-.68.06-.35.11-.71.15-1.07.79-.81,1.58-1.63,2.37-2.44.65-.06,1.3-.12,1.95-.18.22.22.43.43.64.65Z"/>
  <path class="cls-23" d="M190.47,199.79c-.43.35-.85.69-1.28,1.04,0,0-.42-.19-.42-.19.43-.42.86-.83,1.29-1.25l.41.4Z"/>
  <path class="cls-23" d="M191.66,198.65c-.4.38-.8.76-1.19,1.14,0,0-.4-.4-.4-.4.39-.39.77-.78,1.16-1.18.15.14.29.29.44.43Z"/>
  <path class="cls-23" d="M192.86,197.52c-.4.37-.81.75-1.21,1.12-.14-.14-.29-.29-.44-.43.37-.39.75-.79,1.12-1.18.18.16.35.32.52.48Z"/>
  <path class="cls-27" d="M233.21,116.55c.48.05.95.09,1.43.14-2.76,3.86-5.52,7.71-8.28,11.57-2.73.97-5.94,1.35-8.07,3.06-3.53,2.82-6.36,6.51-9.48,9.83-4.67-.02-9.35-.03-14.02-.05,12.81-8.18,25.62-16.37,38.43-24.55Z"/>
  <path class="cls-29" d="M208.8,141.15c3.12-3.32,5.96-7.01,9.48-9.83,2.14-1.71,5.34-2.08,8.07-3.06-2.1,3.39-4.2,6.79-6.3,10.17-1.41,1.29-2.82,2.59-4.23,3.88,0,0-.53.03-.53.03,0,0-.53,0-.53,0-1.97,0-3.94.01-5.91.02-.02-.4-.03-.81-.05-1.21Z"/>
  <path class="cls-15" d="M201.8,212.3c-1.57,1.55-2.97,4.21-4.73,4.47-27.21,4.08-54.47,7.8-81.7,11.72-3.86.56-4.91-1.11-4.55-4.51.38-.4.77-.79,1.15-1.19,8.16,2.92,15.85-.13,23.57-2.07.93-.23,1.4-2.33,2.08-3.56,3.89-.09,7.77-.18,11.66-.27,1.69.8,3.49,2.48,5.05,2.27,15.85-2.11,31.66-4.53,47.48-6.87Z"/>
  <path class="cls-19" d="M137.62,217.16c-.68,1.23-1.15,3.33-2.08,3.56-7.72,1.94-15.41,4.98-23.57,2.07.04-1.13.09-2.25.13-3.38.78-1.16,1.57-2.32,2.35-3.48,2.34-.83,4.67-1.67,7.01-2.5.73.02,1.47.05,2.2.07,1.76,1.15,3.39,2.88,5.31,3.3,2.77.61,5.76.28,8.65.35Z"/>
  <path class="cls-17" d="M172.65,115.48c1.89-5.89,6.85-8.71,11.66-11.66,6.4-.32,12.79-.63,19.19-.95-4.41,3.48-8.82,6.96-13.23,10.44-6.37-3.3-12.07-1.13-17.63,2.17Z"/>
  <path class="cls-14" d="M203.5,102.87c-6.4.32-12.79.63-19.19.95,4.66-3.12,9.32-6.25,13.98-9.37,4.75.43,9.5.86,14.25,1.29-2.03,2.3-4.06,4.6-6.09,6.9h0c-.99.07-1.97.15-2.96.23Z"/>
  <path class="cls-27" d="M172.65,115.48c5.56-3.3,11.26-5.47,17.63-2.17-3.39,2.7-6.79,5.4-10.18,8.1-4.06-.04-8.11-.09-12.17-.13,1.57-1.94,3.15-3.87,4.72-5.81Z"/>
  <path class="cls-2" d="M167.92,121.29c4.06.04,8.11.09,12.17.13-4.18,3.55-8.36,7.11-12.53,10.66-2.58-1.2-5.16-2.4-7.74-3.6,1.94-2.01,3.87-4.01,5.81-6.02.76-.39,1.53-.79,2.29-1.18Z"/>
  <path class="cls-22" d="M210.73,102.47c-1.73,1.31-3.47,2.63-5.2,3.94.31-1.26.62-2.52.92-3.78,0,0,0,.01,0,.01,1.43-.06,2.86-.11,4.29-.17Z"/>
  <path class="cls-22" d="M205.53,106.43c-1.19.76-2.38,1.52-3.57,2.27,1.19-.76,2.38-1.52,3.57-2.27Z"/>
  <path class="cls-4" d="M165.63,122.47c-1.94,2.01-3.87,4.01-5.81,6.02-1.16,1.14-2.32,2.27-3.48,3.41-1.9.79-3.8,1.59-5.7,2.38l-2.61-.08c1.59-1.96,3.18-3.93,4.77-5.89,2.32-2.33,4.64-4.66,6.97-6.99,1.95.39,3.9.77,5.86,1.16Z"/>
  <path class="cls-14" d="M148.03,134.19c.87.03,1.74.05,2.61.08-.02.75-.03,1.5-.05,2.25-2.41,1.7-4.83,3.41-7.24,5.11-.42-.55-.84-1.09-1.26-1.64,1.22-1.29,2.44-2.58,3.66-3.87.76-.65,1.52-1.29,2.28-1.93Z"/>
  <path class="cls-2" d="M150.59,136.52c.02-.75.03-1.5.05-2.25,1.9-.79,3.8-1.58,5.7-2.38-1.92,1.54-3.83,3.08-5.75,4.62Z"/>
  <path class="cls-22" d="M251.98,87.49c-1.17,2.33-2.34,4.67-3.52,7-4.14-.49-8.3-.84-12.41-1.53-2.54-.43-5-1.38-7.49-2.1,0-.76,0-1.51,0-2.27,0,0,0,0,0,0,1.58-.74,3.16-1.48,4.74-2.22,6.22.37,12.45.75,18.67,1.12Z"/>
  <path class="cls-7" d="M224.01,85.2c3.05-.79,6.1-1.59,9.15-2.38-1.53,1.92-3.06,3.85-4.59,5.77,0,0,0,0,0,0-2.44,1.89-4.89,3.78-7.33,5.67-.77.41-1.55.83-2.32,1.24-1.31.17-2.61.34-3.92.51-.18-.18-.36-.36-.54-.54,1.35-1.84,2.69-3.67,4.04-5.51l5.51-4.78v.02Z"/>
  <path class="cls-6" d="M228.57,88.59c1.53-1.92,3.06-3.85,4.59-5.77.99-.34,1.98-.68,3.81-1.32-1.63,2.17-2.64,3.52-3.66,4.87-1.58.74-3.16,1.48-4.74,2.22Z"/>
  <path class="cls-22" d="M218.49,89.96c-1.35,1.84-2.69,3.67-4.03,5.51-.64.09-1.28.18-1.91.27-4.75-.43-9.5-.86-14.25-1.29,3.5-1.94,7-3.89,10.51-5.83,3.23.45,6.46.9,9.7,1.34Z"/>
  <path class="cls-4" d="M218.49,89.96c-3.23-.45-6.46-.9-9.7-1.34,5.07-1.15,10.14-2.29,15.21-3.43-1.84,1.59-3.67,3.19-5.51,4.78Z"/>
  <path class="cls-22" d="M233.21,116.55c-12.81,8.18-25.62,16.37-38.43,24.55-2.7,0-5.41,0-8.11,0-.81-.75-1.63-1.49-2.44-2.24-1.1-7.98,5.45-9.48,10.46-11.75,9.22-4.19,18.7-7.8,28.08-11.65,1.27-.82,2.46-1.83,3.84-2.42,1.8-.78,3.74-1.23,5.62-1.82.33,1.78.66,3.56.98,5.34Z"/>
  <path class="cls-27" d="M222.77,115.45c-9.37,3.85-18.85,7.47-28.08,11.65-5.01,2.28-11.57,3.77-10.46,11.75-1.11-2.3-2.21-4.59-3.32-6.89,9.29-7.83,18.58-15.67,27.87-23.5,3.15.79,6.28,2.1,9.46,2.22,3.56.13,5,1.29,4.53,4.77Z"/>
  <path class="cls-14" d="M228.57,90.86c2.49.72,4.95,1.68,7.49,2.1,4.1.69,8.27,1.04,12.41,1.53-1.18,2.34-2.36,4.67-3.54,7.01-9.08-.05-18.16-.09-27.25-.14.16-.74.32-1.48.48-2.22,0,0-.06.04-.06.04,1.56-1.18,3.12-2.36,4.68-3.54,1.93-1.59,3.86-3.18,5.79-4.77Z"/>
  <path class="cls-20" d="M137.62,217.16c-2.89-.07-5.88.26-8.65-.35-1.92-.42-3.55-2.16-5.31-3.3,13.28,5.07,25.37.86,37.27-4.78.02.81.03,1.61.05,2.42-3.9,1.92-7.8,3.84-11.71,5.76-3.89.09-7.77.18-11.66.27Z"/>
  <path class="cls-20" d="M164.44,206.38c-1.18.79-2.36,1.58-3.54,2.38,1.18-.79,2.36-1.58,3.54-2.38Z"/>
  <path class="cls-20" d="M167.96,203.98c.05.44.11.89.16,1.33-1.24.37-2.48.75-3.72,1.12,1.19-.82,2.37-1.64,3.56-2.46Z"/>
  <path class="cls-6" d="M142.08,178.51c-1.29-.16-2.58-.32-5.1-.63,3.75-4.16,6.87-7.62,9.99-11.09.78.39,1.56.78,2.34,1.17.79,0,1.57-.02,2.36-.03,6.99-.76,13.98-1.53,20.97-2.29,1.46.77,2.88,2.08,4.4,2.22,3.76.36,7.58.18,11.38.22-.21.72-.43,1.44-.64,2.16-.73.22-1.82.21-2.13.69-4.8,7.5-12.2,6.82-19.61,6.54-6.17-.23-12.36-.16-18.54-.04-1.81.04-3.62.7-5.42,1.08Z"/>
  <path class="cls-13" d="M150.45,180.83c-.16-.1-.32-.19-.47-.29.18.08.35.16.53.23,0,0-.05.05-.05.05Z"/>
  <path class="cls-29" d="M172.64,165.65c-6.99.76-13.98,1.53-20.97,2.29-.01-1.15-.03-2.31-.04-3.46.01-.38.03-.77.05-1.15,7.46-4.7,14.93-9.4,22.39-14.1l-.57-2.1c-2.29-.45-4.58-.9-6.87-1.35,4.76-4.6,9.52-9.2,14.28-13.8,1.11,2.3,2.22,4.59,3.32,6.89.81.75,1.63,1.49,2.44,2.24-1.94,1.76-3.86,3.52-5.81,5.26-2.1,1.89-4.22,3.76-6.34,5.64.29.67.59,1.35.88,2.02h20.6c-.39.77-.79,1.53-1.18,2.3-7.4,3.11-14.79,6.22-22.19,9.33Z"/>
  <path class="cls-13" d="M194.82,156.31c.39-.77.79-1.53,1.18-2.3,4.28-3.88,8.56-7.77,12.85-11.65,1.97,0,3.94-.01,5.91-.02-.07.38-.1.75-.1,1.14-1.04,1.44-2.08,2.88-3.12,4.32-3.47,2.91-6.93,5.82-10.39,8.73-2.1-.07-4.21-.15-6.32-.22Z"/>
  <path class="cls-5" d="M201.45,188.63c-.65.06-1.3.12-1.95.18-.79.05-1.59.1-2.38.14-1.88.32-3.82,1.08-5.64.86-2.85-.34-5.62-1.34-8.42-2.06.86-1.49,1.72-2.99,2.58-4.48.38-.37.76-.75,1.15-1.12,1.96-1.57,3.91-3.14,5.87-4.7.39-.37.77-.73,1.16-1.1,1.51-.83,3.02-1.67,4.54-2.5,1.49.03,2.99.06,4.48.09-.46,4.9-.91,9.8-1.37,14.69Z"/>
  <path class="cls-28" d="M183.05,187.75c2.8.72,5.57,1.72,8.42,2.06,1.82.22,3.76-.54,5.64-.86,0,.76,0,1.53.01,2.29-.04.36-.09.71-.15,1.07-1.49.45-2.98.89-4.47,1.34-5.84.38-11.68.77-17.52,1.15-.36-.01-.72-.03-1.09-.05-1.05-1.95-2.1-3.9-3.77-7h12.92Z"/>
  <path class="cls-8" d="M174.99,194.8c5.84-.38,11.68-.77,17.52-1.15-.05,1.13-.11,2.26-.17,3.39-.38.39-.75.79-1.12,1.18-.39.39-.77.78-1.16,1.18-.43.42-.86.83-1.29,1.25-2.82.38-5.66,1.17-8.44,1.01-2.2-.13-4.34-1.41-6.51-2.18.03-.78.06-1.57.09-2.35.36-.77.72-1.54,1.08-2.31Z"/>
  <path class="cls-12" d="M174.99,194.8c-.36.77-.72,1.54-1.08,2.31,0-.79,0-1.57,0-2.36.36.02.73.03,1.09.05Z"/>
  <path class="cls-26" d="M202.82,173.93c-1.49-.03-2.99-.06-4.48-.09,0-.4,0-.79-.01-1.19.39-.39.77-.77,1.16-1.16,1.11.81,2.22,1.62,3.33,2.43Z"/>
  <path class="cls-13" d="M166.63,145.77c2.29.45,4.58.9,6.87,1.35l.57,2.1c-7.46,4.7-14.93,9.4-22.39,14.1-.42-.01-.84-.03-1.27-.04,5.41-5.84,10.82-11.68,16.22-17.52Z"/>
  <path class="cls-7" d="M212.54,95.74c.64-.09,1.28-.18,1.91-.27.18.18.35.36.53.54-.13,1.04-.24,2.08-.36,3.13-1.29,1.11-2.59,2.23-3.88,3.34-1.43.06-2.86.11-4.29.17,2.03-2.3,4.06-4.6,6.09-6.9Z"/>
  <path class="cls-22" d="M214.62,99.13c.12-1.04.24-2.09.36-3.13,1.31-.16,2.62-.33,3.93-.5-.27,1.22-.54,2.45-.81,3.67,0,0,.06-.04.06-.04-1.18,0-2.36,0-3.54,0Z"/>
  <path class="cls-30" d="M150.41,163.28c.42.01.84.03,1.27.04-.02.38-.03.77-.04,1.15-.77,1.16-1.55,2.33-2.32,3.49-.78-.39-1.56-.78-2.34-1.17,1.15-1.17,2.3-2.34,3.44-3.51Z"/>
  <path class="cls-19" d="M149.27,216.89c3.9-1.92,7.8-3.84,11.71-5.76,1.14.7,2.41,2.16,3.39,1.99,9.39-1.67,18.74-3.62,28.1-5.49,3.1.78,6.2,1.56,9.3,2.35,0,.77.02,1.55.02,2.32-15.82,2.33-31.63,4.75-47.48,6.87-1.55.21-3.36-1.47-5.05-2.27Z"/>
  <path class="cls-26" d="M197.13,191.24c0-.76,0-1.53-.01-2.29.79-.05,1.59-.1,2.38-.14-.79.81-1.58,1.62-2.37,2.44Z"/>
  <path class="cls-2" d="M208.85,142.36c-4.28,3.88-8.56,7.77-12.85,11.65-6.87,0-13.73,0-20.6,0-.29-.67-.59-1.35-.88-2.02,2.11-1.88,4.23-3.75,6.34-5.64,1.95-1.74,3.87-3.51,5.81-5.26,2.7,0,5.41,0,8.11,0,4.67.02,9.35.03,14.02.05.02.4.03.81.05,1.21Z"/>
  <path class="cls-6" d="M228.57,90.86c-1.93,1.59-3.86,3.18-5.79,4.77-.52-.46-1.03-.91-1.55-1.37,2.44-1.89,4.89-3.78,7.33-5.67,0,.76,0,1.51,0,2.27Z"/>
  <path class="cls-3" d="M221.23,94.26c.52.46,1.03.91,1.55,1.37-1.56,1.18-3.12,2.36-4.68,3.54.27-1.22.54-2.45.81-3.67.77-.41,1.55-.83,2.32-1.24Z"/>
  <path class="cls-13" d="M149.31,167.97c.77-1.16,1.55-2.33,2.32-3.49.01,1.15.03,2.31.04,3.46-.79,0-1.57.02-2.36.03Z"/>
</svg>